<?xml version="1.0" encoding="utf-8"?>
<!-- Generator: Adobe Illustrator 18.1.1, SVG Export Plug-In . SVG Version: 6.00 Build 0)  -->
<!DOCTYPE svg PUBLIC "-//W3C//DTD SVG 1.1//EN" "http://www.w3.org/Graphics/SVG/1.1/DTD/svg11.dtd">
<svg version="1.1" id="Layer_1" xmlns:sketch="http://www.bohemiancoding.com/sketch/ns"
	 xmlns="http://www.w3.org/2000/svg" xmlns:xlink="http://www.w3.org/1999/xlink" x="0px" y="0px" viewBox="0 0 80 80"
	 enable-background="new 0 0 80 80" xml:space="preserve">
<title>Tadpole</title>
<desc>Created with Sketch.</desc>
<g id="Welcome" sketch:type="MSPage">
	<g id="Tadpole" transform="translate(-27.000000, -29.500000)" sketch:type="MSLayerGroup">
		<g id="XMLID_1_">
			<g id="Group">
				<rect id="Rectangle-path" x="103.3" y="64.1" fill="#4C7521" width="3.6" height="3.6"/>
				<rect id="Rectangle-path_1_" x="103.3" y="60.4" fill="#4C7521" width="3.6" height="3.6"/>
				<rect id="Rectangle-path_2_" x="103.3" y="56.8" fill="#4C7521" width="3.6" height="3.6"/>
				<rect id="Rectangle-path_3_" x="103.3" y="53.2" fill="#4C7521" width="3.6" height="3.6"/>
				<rect id="Rectangle-path_4_" x="99.6" y="103.9" fill="#4C7521" width="3.6" height="3.6"/>
				<rect id="Rectangle-path_5_" x="99.6" y="100.3" fill="#4C7521" width="3.6" height="3.6"/>
				<rect id="Rectangle-path_6_" x="99.6" y="96.7" fill="#4C7521" width="3.6" height="3.6"/>
				<rect id="Rectangle-path_7_" x="99.6" y="93.1" fill="#4C7521" width="3.6" height="3.6"/>
				<rect id="Rectangle-path_8_" x="99.6" y="64.1" fill="#4C7521" width="3.6" height="3.6"/>
				<rect id="Rectangle-path_9_" x="99.6" y="60.4" fill="#8CC63F" width="3.6" height="3.6"/>
				<rect id="Rectangle-path_10_" x="99.6" y="56.8" fill="#8CC63F" width="3.6" height="3.6"/>
				<rect id="Rectangle-path_11_" x="99.6" y="53.2" fill="#4C7521" width="3.6" height="3.6"/>
				<rect id="Rectangle-path_12_" x="96" y="103.9" fill="#4C7521" width="3.6" height="3.6"/>
				<rect id="Rectangle-path_13_" x="96" y="100.3" fill="#8CC63F" width="3.6" height="3.6"/>
				<rect id="Rectangle-path_14_" x="96" y="96.7" fill="#8CC63F" width="3.6" height="3.6"/>
				<rect id="Rectangle-path_15_" x="96" y="93.1" fill="#4C7521" width="3.6" height="3.6"/>
				<rect id="Rectangle-path_16_" x="96" y="64.1" fill="#4C7521" width="3.6" height="3.6"/>
				<rect id="Rectangle-path_17_" x="96" y="60.4" fill="#8CC63F" width="3.6" height="3.6"/>
				<rect id="Rectangle-path_18_" x="96" y="56.8" fill="#4C7521" width="3.6" height="3.6"/>
				<rect id="Rectangle-path_19_" x="96" y="53.2" fill="#4C7521" width="3.6" height="3.6"/>
				<rect id="Rectangle-path_20_" x="92.4" y="103.9" fill="#4C7521" width="3.6" height="3.6"/>
				<rect id="Rectangle-path_21_" x="92.4" y="100.3" fill="#8CC63F" width="3.6" height="3.6"/>
				<rect id="Rectangle-path_22_" x="92.4" y="96.7" fill="#8CC63F" width="3.6" height="3.6"/>
				<rect id="Rectangle-path_23_" x="92.4" y="93.1" fill="#4C7521" width="3.6" height="3.6"/>
				<rect id="Rectangle-path_24_" x="92.4" y="74.9" fill="#4C7521" width="3.6" height="3.6"/>
				<rect id="Rectangle-path_25_" x="92.4" y="71.3" fill="#4C7521" width="3.6" height="3.6"/>
				<rect id="Rectangle-path_26_" x="92.4" y="67.7" fill="#4C7521" width="3.6" height="3.6"/>
				<rect id="Rectangle-path_27_" x="92.4" y="64.1" fill="#8CC63F" width="3.6" height="3.6"/>
				<rect id="Rectangle-path_28_" x="92.4" y="60.4" fill="#8CC63F" width="3.6" height="3.6"/>
				<rect id="Rectangle-path_29_" x="92.4" y="56.8" fill="#8CC63F" width="3.6" height="3.6"/>
				<rect id="Rectangle-path_30_" x="92.4" y="53.2" fill="#4C7521" width="3.6" height="3.6"/>
				<rect id="Rectangle-path_31_" x="92.4" y="49.6" fill="#4C7521" width="3.6" height="3.6"/>
				<rect id="Rectangle-path_32_" x="88.8" y="100.3" fill="#4C7521" width="3.6" height="3.6"/>
				<rect id="Rectangle-path_33_" x="88.8" y="96.7" fill="#8CC63F" width="3.6" height="3.6"/>
				<rect id="Rectangle-path_34_" x="88.8" y="93.1" fill="#8CC63F" width="3.6" height="3.6"/>
				<rect id="Rectangle-path_35_" x="88.8" y="89.4" fill="#4C7521" width="3.6" height="3.6"/>
				<rect id="Rectangle-path_36_" x="88.8" y="82.2" fill="#4C7521" width="3.6" height="3.6"/>
				<rect id="Rectangle-path_37_" x="88.8" y="78.6" fill="#4C7521" width="3.6" height="3.6"/>
				<rect id="Rectangle-path_38_" x="88.8" y="74.9" fill="#4C7521" width="3.6" height="3.6"/>
				<rect id="Rectangle-path_39_" x="88.8" y="71.3" fill="#8CC63F" width="3.6" height="3.6"/>
				<rect id="Rectangle-path_40_" x="88.8" y="67.7" fill="#8CC63F" width="3.6" height="3.6"/>
				<rect id="Rectangle-path_41_" x="88.8" y="64.1" fill="#8CC63F" width="3.6" height="3.6"/>
				<rect id="Rectangle-path_42_" x="88.8" y="60.4" fill="#8CC63F" width="3.6" height="3.6"/>
				<rect id="Rectangle-path_43_" x="88.8" y="56.8" fill="#8CC63F" width="3.6" height="3.6"/>
				<rect id="Rectangle-path_44_" x="88.8" y="53.2" fill="#8CC63F" width="3.6" height="3.6"/>
				<rect id="Rectangle-path_45_" x="88.8" y="49.6" fill="#8CC63F" width="3.6" height="3.6"/>
				<rect id="Rectangle-path_46_" x="88.8" y="45.9" fill="#4C7521" width="3.6" height="3.6"/>
				<rect id="Rectangle-path_47_" x="85.1" y="100.3" fill="#4C7521" width="3.6" height="3.6"/>
				<rect id="Rectangle-path_48_" x="85.1" y="96.7" fill="#8CC63F" width="3.6" height="3.6"/>
				<rect id="Rectangle-path_49_" x="85.1" y="93.1" fill="#8CC63F" width="3.6" height="3.6"/>
				<rect id="Rectangle-path_50_" x="85.1" y="89.4" fill="#4C7521" width="3.6" height="3.6"/>
				<rect id="Rectangle-path_51_" x="85.1" y="85.8" fill="#4C7521" width="3.6" height="3.6"/>
				<rect id="Rectangle-path_52_" x="85.1" y="82.2" fill="#8CC63F" width="3.6" height="3.6"/>
				<rect id="Rectangle-path_53_" x="85.1" y="78.6" fill="#8CC63F" width="3.6" height="3.6"/>
				<rect id="Rectangle-path_54_" x="85.1" y="74.9" fill="#8CC63F" width="3.6" height="3.6"/>
				<rect id="Rectangle-path_55_" x="85.1" y="71.3" fill="#8CC63F" width="3.6" height="3.6"/>
				<rect id="Rectangle-path_56_" x="85.1" y="67.7" fill="#8CC63F" width="3.6" height="3.6"/>
				<rect id="Rectangle-path_57_" x="85.1" y="64.1" fill="#8CC63F" width="3.6" height="3.6"/>
				<rect id="Rectangle-path_58_" x="85.1" y="60.4" fill="#8CC63F" width="3.6" height="3.6"/>
				<rect id="Rectangle-path_59_" x="85.1" y="56.8" fill="#FF7BAC" width="3.6" height="3.6"/>
				<rect id="Rectangle-path_60_" x="85.1" y="53.2" fill="#FF7BAC" width="3.6" height="3.6"/>
				<rect id="Rectangle-path_61_" x="85.1" y="49.6" fill="#8CC63F" width="3.6" height="3.6"/>
				<rect id="Rectangle-path_62_" x="85.1" y="45.9" fill="#8CC63F" width="3.6" height="3.6"/>
				<rect id="Rectangle-path_63_" x="85.1" y="42.3" fill="#4C7521" width="3.6" height="3.6"/>
				<rect id="Rectangle-path_64_" x="81.5" y="100.3" fill="#4C7521" width="3.6" height="3.6"/>
				<rect id="Rectangle-path_65_" x="81.5" y="96.7" fill="#8CC63F" width="3.6" height="3.6"/>
				<rect id="Rectangle-path_66_" x="81.5" y="93.1" fill="#8CC63F" width="3.6" height="3.6"/>
				<rect id="Rectangle-path_67_" x="81.5" y="89.4" fill="#8CC63F" width="3.6" height="3.6"/>
				<rect id="Rectangle-path_68_" x="81.5" y="85.8" fill="#8CC63F" width="3.6" height="3.6"/>
				<rect id="Rectangle-path_69_" x="81.5" y="82.2" fill="#8CC63F" width="3.6" height="3.6"/>
				<rect id="Rectangle-path_70_" x="81.5" y="78.6" fill="#8CC63F" width="3.6" height="3.6"/>
				<rect id="Rectangle-path_71_" x="81.5" y="74.9" fill="#8CC63F" width="3.6" height="3.6"/>
				<rect id="Rectangle-path_72_" x="81.5" y="71.3" fill="#8CC63F" width="3.6" height="3.6"/>
				<rect id="Rectangle-path_73_" x="81.5" y="67.7" fill="#8CC63F" width="3.6" height="3.6"/>
				<rect id="Rectangle-path_74_" x="81.5" y="64.1" fill="#8CC63F" width="3.6" height="3.6"/>
				<rect id="Rectangle-path_75_" x="81.5" y="60.4" fill="#8CC63F" width="3.6" height="3.6"/>
				<rect id="Rectangle-path_76_" x="81.5" y="56.8" fill="#FF7BAC" width="3.6" height="3.6"/>
				<rect id="Rectangle-path_77_" x="81.5" y="53.2" fill="#FF7BAC" width="3.6" height="3.6"/>
				<rect id="Rectangle-path_78_" x="81.5" y="49.6" fill="#8CC63F" width="3.6" height="3.6"/>
				<rect id="Rectangle-path_79_" x="81.5" y="45.9" fill="#8CC63F" width="3.6" height="3.6"/>
				<rect id="Rectangle-path_80_" x="81.5" y="42.3" fill="#8CC63F" width="3.6" height="3.6"/>
				<rect id="Rectangle-path_81_" x="81.5" y="38.7" fill="#4C7521" width="3.6" height="3.6"/>
				<rect id="Rectangle-path_82_" x="77.9" y="100.3" fill="#4C7521" width="3.6" height="3.6"/>
				<rect id="Rectangle-path_83_" x="77.9" y="96.7" fill="#8CC63F" width="3.6" height="3.6"/>
				<rect id="Rectangle-path_84_" x="77.9" y="93.1" fill="#8CC63F" width="3.6" height="3.6"/>
				<rect id="Rectangle-path_85_" x="77.9" y="89.4" fill="#8CC63F" width="3.6" height="3.6"/>
				<rect id="Rectangle-path_86_" x="77.9" y="85.8" fill="#8CC63F" width="3.6" height="3.6"/>
				<rect id="Rectangle-path_87_" x="77.9" y="82.2" fill="#8CC63F" width="3.6" height="3.6"/>
				<rect id="Rectangle-path_88_" x="77.9" y="78.6" fill="#8CC63F" width="3.6" height="3.6"/>
				<rect id="Rectangle-path_89_" x="77.9" y="74.9" fill="#8CC63F" width="3.6" height="3.6"/>
				<rect id="Rectangle-path_90_" x="77.9" y="71.3" fill="#8CC63F" width="3.6" height="3.6"/>
				<rect id="Rectangle-path_91_" x="77.9" y="67.7" fill="#8CC63F" width="3.6" height="3.6"/>
				<rect id="Rectangle-path_92_" x="77.9" y="64.1" fill="#8CC63F" width="3.6" height="3.6"/>
				<rect id="Rectangle-path_93_" x="77.9" y="60.4" fill="#8CC63F" width="3.6" height="3.6"/>
				<rect id="Rectangle-path_94_" x="77.9" y="56.8" fill="#8CC63F" width="3.6" height="3.6"/>
				<rect id="Rectangle-path_95_" x="77.9" y="53.2" fill="#8CC63F" width="3.6" height="3.6"/>
				<rect id="Rectangle-path_96_" x="77.9" y="49.6" fill="#8CC63F" width="3.6" height="3.6"/>
				<rect id="Rectangle-path_97_" x="77.9" y="45.9" fill="#8CC63F" width="3.6" height="3.6"/>
				<rect id="Rectangle-path_98_" x="77.9" y="42.3" fill="#8CC63F" width="3.6" height="3.6"/>
				<rect id="Rectangle-path_99_" x="77.9" y="38.7" fill="#8CC63F" width="3.6" height="3.6"/>
				<rect id="Rectangle-path_100_" x="77.9" y="35.1" fill="#4C7521" width="3.6" height="3.6"/>
				<rect id="Rectangle-path_101_" x="74.3" y="100.3" fill="#4C7521" width="3.6" height="3.6"/>
				<rect id="Rectangle-path_102_" x="74.3" y="96.7" fill="#8CC63F" width="3.6" height="3.6"/>
				<rect id="Rectangle-path_103_" x="74.3" y="93.1" fill="#8CC63F" width="3.6" height="3.6"/>
				<rect id="Rectangle-path_104_" x="74.3" y="89.4" fill="#8CC63F" width="3.6" height="3.6"/>
				<rect id="Rectangle-path_105_" x="74.3" y="85.8" fill="#8CC63F" width="3.6" height="3.6"/>
				<rect id="Rectangle-path_106_" x="74.3" y="82.2" fill="#8CC63F" width="3.6" height="3.6"/>
				<rect id="Rectangle-path_107_" x="74.3" y="78.6" fill="#8CC63F" width="3.6" height="3.6"/>
				<rect id="Rectangle-path_108_" x="74.3" y="74.9" fill="#8CC63F" width="3.6" height="3.6"/>
				<rect id="Rectangle-path_109_" x="74.3" y="71.3" fill="#8CC63F" width="3.6" height="3.6"/>
				<rect id="Rectangle-path_110_" x="74.3" y="67.7" fill="#8CC63F" width="3.6" height="3.6"/>
				<rect id="Rectangle-path_111_" x="74.3" y="64.1" fill="#8CC63F" width="3.6" height="3.6"/>
				<rect id="Rectangle-path_112_" x="74.3" y="60.4" fill="#8CC63F" width="3.6" height="3.6"/>
				<rect id="Rectangle-path_113_" x="74.3" y="56.8" fill="#8CC63F" width="3.6" height="3.6"/>
				<rect id="Rectangle-path_114_" x="74.3" y="53.2" fill="#8CC63F" width="3.6" height="3.6"/>
				<rect id="Rectangle-path_115_" x="74.3" y="49.6" fill="#8CC63F" width="3.6" height="3.6"/>
				<rect id="Rectangle-path_116_" x="74.3" y="45.9" fill="#8CC63F" width="3.6" height="3.6"/>
				<rect id="Rectangle-path_117_" x="74.3" y="42.3" fill="#8CC63F" width="3.6" height="3.6"/>
				<rect id="Rectangle-path_118_" x="74.3" y="38.7" fill="#8CC63F" width="3.6" height="3.6"/>
				<rect id="Rectangle-path_119_" x="74.3" y="35.1" fill="#8CC63F" width="3.6" height="3.6"/>
				<rect id="Rectangle-path_120_" x="74.3" y="31.4" fill="#4C7521" width="3.6" height="3.6"/>
				<rect id="Rectangle-path_121_" x="70.6" y="100.3" fill="#4C7521" width="3.6" height="3.6"/>
				<rect id="Rectangle-path_122_" x="70.6" y="96.7" fill="#8CC63F" width="3.6" height="3.6"/>
				<rect id="Rectangle-path_123_" x="70.6" y="93.1" fill="#8CC63F" width="3.6" height="3.6"/>
				<rect id="Rectangle-path_124_" x="70.6" y="89.4" fill="#8CC63F" width="3.6" height="3.6"/>
				<rect id="Rectangle-path_125_" x="70.6" y="85.8" fill="#8CC63F" width="3.6" height="3.6"/>
				<rect id="Rectangle-path_126_" x="70.6" y="82.2" fill="#8CC63F" width="3.6" height="3.6"/>
				<rect id="Rectangle-path_127_" x="70.6" y="78.6" fill="#8CC63F" width="3.6" height="3.6"/>
				<rect id="Rectangle-path_128_" x="70.6" y="74.9" fill="#8CC63F" width="3.6" height="3.6"/>
				<rect id="Rectangle-path_129_" x="70.6" y="71.3" fill="#8CC63F" width="3.6" height="3.6"/>
				<rect id="Rectangle-path_130_" x="70.6" y="67.7" fill="#8CC63F" width="3.6" height="3.6"/>
				<rect id="Rectangle-path_131_" x="70.6" y="64.1" fill="#8CC63F" width="3.6" height="3.6"/>
				<rect id="Rectangle-path_132_" x="70.6" y="60.4" fill="#8CC63F" width="3.6" height="3.6"/>
				<rect id="Rectangle-path_133_" x="70.6" y="56.8" fill="#8CC63F" width="3.6" height="3.6"/>
				<rect id="Rectangle-path_134_" x="70.6" y="53.2" fill="#8CC63F" width="3.6" height="3.6"/>
				<rect id="Rectangle-path_135_" x="70.6" y="49.6" fill="#8CC63F" width="3.6" height="3.6"/>
				<rect id="Rectangle-path_136_" x="70.6" y="45.9" fill="#8CC63F" width="3.6" height="3.6"/>
				<rect id="Rectangle-path_137_" x="70.6" y="42.3" fill="#8CC63F" width="3.6" height="3.6"/>
				<rect id="Rectangle-path_138_" x="70.6" y="38.7" fill="#8CC63F" width="3.6" height="3.6"/>
				<rect id="Rectangle-path_139_" x="70.6" y="35.1" fill="#8CC63F" width="3.6" height="3.6"/>
				<rect id="Rectangle-path_140_" x="70.6" y="31.4" fill="#4C7521" width="3.6" height="3.6"/>
				<rect id="Rectangle-path_141_" x="67" y="100.3" fill="#4C7521" width="3.6" height="3.6"/>
				<rect id="Rectangle-path_142_" x="67" y="96.7" fill="#8CC63F" width="3.6" height="3.6"/>
				<rect id="Rectangle-path_143_" x="67" y="93.1" fill="#8CC63F" width="3.6" height="3.6"/>
				<rect id="Rectangle-path_144_" x="67" y="89.4" fill="#8CC63F" width="3.6" height="3.6"/>
				<rect id="Rectangle-path_145_" x="67" y="85.8" fill="#8CC63F" width="3.6" height="3.6"/>
				<rect id="Rectangle-path_146_" x="67" y="82.2" fill="#8CC63F" width="3.6" height="3.6"/>
				<rect id="Rectangle-path_147_" x="67" y="78.6" fill="#8CC63F" width="3.6" height="3.6"/>
				<rect id="Rectangle-path_148_" x="67" y="74.9" fill="#8CC63F" width="3.6" height="3.6"/>
				<rect id="Rectangle-path_149_" x="67" y="71.3" fill="#8CC63F" width="3.6" height="3.6"/>
				<rect id="Rectangle-path_150_" x="67" y="67.7" fill="#8CC63F" width="3.6" height="3.6"/>
				<rect id="Rectangle-path_151_" x="67" y="64.1" fill="#8CC63F" width="3.6" height="3.6"/>
				<rect id="Rectangle-path_152_" x="67" y="60.4" fill="#8CC63F" width="3.6" height="3.6"/>
				<rect id="Rectangle-path_153_" x="67" y="56.8" fill="#8CC63F" width="3.6" height="3.6"/>
				<rect id="Rectangle-path_154_" x="67" y="53.2" fill="#8CC63F" width="3.6" height="3.6"/>
				<rect id="Rectangle-path_155_" x="67" y="49.6" fill="#8CC63F" width="3.6" height="3.6"/>
				<rect id="Rectangle-path_156_" x="67" y="45.9" fill="#8CC63F" width="3.6" height="3.6"/>
				<rect id="Rectangle-path_157_" x="67" y="42.3" fill="#8CC63F" width="3.6" height="3.6"/>
				<rect id="Rectangle-path_158_" x="67" y="38.7" fill="#8CC63F" width="3.6" height="3.6"/>
				<rect id="Rectangle-path_159_" x="67" y="35.1" fill="#8CC63F" width="3.6" height="3.6"/>
				<rect id="Rectangle-path_160_" x="67" y="31.4" fill="#4C7521" width="3.6" height="3.6"/>
				<rect id="Rectangle-path_161_" x="63.4" y="100.3" fill="#4C7521" width="3.6" height="3.6"/>
				<rect id="Rectangle-path_162_" x="63.4" y="96.7" fill="#8CC63F" width="3.6" height="3.6"/>
				<rect id="Rectangle-path_163_" x="63.4" y="93.1" fill="#8CC63F" width="3.6" height="3.6"/>
				<rect id="Rectangle-path_164_" x="63.4" y="89.4" fill="#8CC63F" width="3.6" height="3.6"/>
				<rect id="Rectangle-path_165_" x="63.4" y="85.8" fill="#8CC63F" width="3.6" height="3.6"/>
				<rect id="Rectangle-path_166_" x="63.4" y="82.2" fill="#8CC63F" width="3.6" height="3.6"/>
				<rect id="Rectangle-path_167_" x="63.4" y="78.6" fill="#8CC63F" width="3.6" height="3.6"/>
				<rect id="Rectangle-path_168_" x="63.4" y="74.9" fill="#8CC63F" width="3.6" height="3.6"/>
				<rect id="Rectangle-path_169_" x="63.4" y="71.3" fill="#8CC63F" width="3.6" height="3.6"/>
				<rect id="Rectangle-path_170_" x="63.4" y="67.7" fill="#8CC63F" width="3.6" height="3.6"/>
				<rect id="Rectangle-path_171_" x="63.4" y="64.1" fill="#8CC63F" width="3.6" height="3.6"/>
				<rect id="Rectangle-path_172_" x="63.4" y="60.4" fill="#8CC63F" width="3.6" height="3.6"/>
				<rect id="Rectangle-path_173_" x="63.4" y="56.8" fill="#8CC63F" width="3.6" height="3.6"/>
				<rect id="Rectangle-path_174_" x="63.4" y="53.2" fill="#8CC63F" width="3.6" height="3.6"/>
				<rect id="Rectangle-path_175_" x="63.4" y="49.6" fill="#8CC63F" width="3.6" height="3.6"/>
				<rect id="Rectangle-path_176_" x="63.4" y="45.9" fill="#8CC63F" width="3.6" height="3.6"/>
				<rect id="Rectangle-path_177_" x="63.4" y="42.3" fill="#8CC63F" width="3.6" height="3.6"/>
				<rect id="Rectangle-path_178_" x="63.4" y="38.7" fill="#8CC63F" width="3.6" height="3.6"/>
				<rect id="Rectangle-path_179_" x="63.4" y="35.1" fill="#8CC63F" width="3.6" height="3.6"/>
				<rect id="Rectangle-path_180_" x="63.4" y="31.4" fill="#4C7521" width="3.6" height="3.6"/>
				<rect id="Rectangle-path_181_" x="59.7" y="100.3" fill="#4C7521" width="3.6" height="3.6"/>
				<rect id="Rectangle-path_182_" x="59.7" y="96.7" fill="#8CC63F" width="3.6" height="3.6"/>
				<rect id="Rectangle-path_183_" x="59.7" y="93.1" fill="#8CC63F" width="3.6" height="3.6"/>
				<rect id="Rectangle-path_184_" x="59.7" y="89.4" fill="#8CC63F" width="3.6" height="3.6"/>
				<rect id="Rectangle-path_185_" x="59.7" y="85.8" fill="#8CC63F" width="3.6" height="3.6"/>
				<rect id="Rectangle-path_186_" x="59.7" y="82.2" fill="#8CC63F" width="3.6" height="3.6"/>
				<rect id="Rectangle-path_187_" x="59.7" y="78.6" fill="#8CC63F" width="3.6" height="3.6"/>
				<rect id="Rectangle-path_188_" x="59.7" y="74.9" fill="#8CC63F" width="3.6" height="3.6"/>
				<rect id="Rectangle-path_189_" x="59.7" y="71.3" fill="#8CC63F" width="3.6" height="3.6"/>
				<rect id="Rectangle-path_190_" x="59.7" y="67.7" fill="#8CC63F" width="3.6" height="3.6"/>
				<rect id="Rectangle-path_191_" x="59.7" y="64.1" fill="#8CC63F" width="3.6" height="3.6"/>
				<rect id="Rectangle-path_192_" x="59.7" y="60.4" fill="#8CC63F" width="3.6" height="3.6"/>
				<rect id="Rectangle-path_193_" x="59.7" y="56.8" fill="#8CC63F" width="3.6" height="3.6"/>
				<rect id="Rectangle-path_194_" x="59.7" y="53.2" fill="#8CC63F" width="3.6" height="3.6"/>
				<rect id="Rectangle-path_195_" x="59.7" y="49.6" fill="#8CC63F" width="3.6" height="3.6"/>
				<rect id="Rectangle-path_196_" x="59.7" y="45.9" fill="#8CC63F" width="3.6" height="3.6"/>
				<rect id="Rectangle-path_197_" x="59.7" y="42.3" fill="#8CC63F" width="3.6" height="3.6"/>
				<rect id="Rectangle-path_198_" x="59.7" y="38.7" fill="#8CC63F" width="3.6" height="3.6"/>
				<rect id="Rectangle-path_199_" x="59.7" y="35.1" fill="#8CC63F" width="3.6" height="3.6"/>
				<rect id="Rectangle-path_200_" x="59.7" y="31.4" fill="#4C7521" width="3.6" height="3.6"/>
				<rect id="Rectangle-path_201_" x="56.1" y="96.7" fill="#4C7521" width="3.6" height="3.6"/>
				<rect id="Rectangle-path_202_" x="56.1" y="93.1" fill="#8CC63F" width="3.6" height="3.6"/>
				<rect id="Rectangle-path_203_" x="56.1" y="89.4" fill="#8CC63F" width="3.6" height="3.6"/>
				<rect id="Rectangle-path_204_" x="56.1" y="85.8" fill="#8CC63F" width="3.6" height="3.6"/>
				<rect id="Rectangle-path_205_" x="56.1" y="82.2" fill="#8CC63F" width="3.6" height="3.6"/>
				<rect id="Rectangle-path_206_" x="56.1" y="78.6" fill="#8CC63F" width="3.6" height="3.6"/>
				<rect id="Rectangle-path_207_" x="56.1" y="74.9" fill="#8CC63F" width="3.6" height="3.6"/>
				<rect id="Rectangle-path_208_" x="56.1" y="71.3" fill="#8CC63F" width="3.6" height="3.6"/>
				<rect id="Rectangle-path_209_" x="56.1" y="67.7" fill="#8CC63F" width="3.6" height="3.6"/>
				<rect id="Rectangle-path_210_" x="56.1" y="64.1" fill="#8CC63F" width="3.6" height="3.6"/>
				<rect id="Rectangle-path_211_" x="56.1" y="60.4" fill="#8CC63F" width="3.6" height="3.6"/>
				<rect id="Rectangle-path_212_" x="56.1" y="56.8" fill="#8CC63F" width="3.6" height="3.6"/>
				<rect id="Rectangle-path_213_" x="56.1" y="53.2" fill="#8CC63F" width="3.6" height="3.6"/>
				<rect id="Rectangle-path_214_" x="56.1" y="49.6" fill="#8CC63F" width="3.6" height="3.6"/>
				<rect id="Rectangle-path_215_" x="56.1" y="45.9" fill="#8CC63F" width="3.6" height="3.6"/>
				<rect id="Rectangle-path_216_" x="56.1" y="42.3" fill="#8CC63F" width="3.6" height="3.6"/>
				<rect id="Rectangle-path_217_" x="56.1" y="38.7" fill="#8CC63F" width="3.6" height="3.6"/>
				<rect id="Rectangle-path_218_" x="56.1" y="35.1" fill="#8CC63F" width="3.6" height="3.6"/>
				<rect id="Rectangle-path_219_" x="56.1" y="31.4" fill="#4C7521" width="3.6" height="3.6"/>
				<rect id="Rectangle-path_220_" x="52.5" y="93.1" fill="#4C7521" width="3.6" height="3.6"/>
				<rect id="Rectangle-path_221_" x="52.5" y="89.4" fill="#8CC63F" width="3.6" height="3.6"/>
				<rect id="Rectangle-path_222_" x="52.5" y="85.8" fill="#8CC63F" width="3.6" height="3.6"/>
				<rect id="Rectangle-path_223_" x="52.5" y="82.2" fill="#8CC63F" width="3.6" height="3.6"/>
				<rect id="Rectangle-path_224_" x="52.5" y="78.6" fill="#8CC63F" width="3.6" height="3.6"/>
				<rect id="Rectangle-path_225_" x="52.5" y="74.9" fill="#8CC63F" width="3.6" height="3.6"/>
				<rect id="Rectangle-path_226_" x="52.5" y="71.3" fill="#8CC63F" width="3.6" height="3.6"/>
				<rect id="Rectangle-path_227_" x="52.5" y="67.7" fill="#8CC63F" width="3.6" height="3.6"/>
				<rect id="Rectangle-path_228_" x="52.5" y="64.1" fill="#8CC63F" width="3.6" height="3.6"/>
				<rect id="Rectangle-path_229_" x="52.5" y="60.4" fill="#8CC63F" width="3.6" height="3.6"/>
				<rect id="Rectangle-path_230_" x="52.5" y="56.8" fill="#8CC63F" width="3.6" height="3.6"/>
				<rect id="Rectangle-path_231_" x="52.5" y="53.2" fill="#8CC63F" width="3.6" height="3.6"/>
				<rect id="Rectangle-path_232_" x="52.5" y="49.6" fill="#8CC63F" width="3.6" height="3.6"/>
				<rect id="Rectangle-path_233_" x="52.5" y="45.9" fill="#8CC63F" width="3.6" height="3.6"/>
				<rect id="Rectangle-path_234_" x="52.5" y="42.3" fill="#8CC63F" width="3.6" height="3.6"/>
				<rect id="Rectangle-path_235_" x="52.5" y="38.7" fill="#8CC63F" width="3.6" height="3.6"/>
				<rect id="Rectangle-path_236_" x="52.5" y="35.1" fill="#4C7521" width="3.6" height="3.6"/>
				<rect id="Rectangle-path_237_" x="48.9" y="89.4" fill="#4C7521" width="3.6" height="3.6"/>
				<rect id="Rectangle-path_238_" x="48.9" y="85.8" fill="#8CC63F" width="3.6" height="3.6"/>
				<rect id="Rectangle-path_239_" x="48.9" y="82.2" fill="#8CC63F" width="3.6" height="3.6"/>
				<rect id="Rectangle-path_240_" x="48.9" y="78.6" fill="#8CC63F" width="3.6" height="3.6"/>
				<rect id="Rectangle-path_241_" x="48.9" y="74.9" fill="#8CC63F" width="3.6" height="3.6"/>
				<rect id="Rectangle-path_242_" x="48.9" y="71.3" fill="#8CC63F" width="3.6" height="3.6"/>
				<rect id="Rectangle-path_243_" x="48.9" y="67.7" fill="#8CC63F" width="3.6" height="3.6"/>
				<rect id="Rectangle-path_244_" x="48.9" y="64.1" fill="#8CC63F" width="3.6" height="3.6"/>
				<rect id="Rectangle-path_245_" x="48.9" y="60.4" fill="#8CC63F" width="3.6" height="3.6"/>
				<rect id="Rectangle-path_246_" x="48.9" y="56.8" fill="#FF7BAC" width="3.6" height="3.6"/>
				<rect id="Rectangle-path_247_" x="48.9" y="53.2" fill="#FF7BAC" width="3.6" height="3.6"/>
				<rect id="Rectangle-path_248_" x="48.9" y="49.6" fill="#8CC63F" width="3.6" height="3.6"/>
				<rect id="Rectangle-path_249_" x="48.9" y="45.9" fill="#8CC63F" width="3.6" height="3.6"/>
				<rect id="Rectangle-path_250_" x="48.9" y="42.3" fill="#8CC63F" width="3.6" height="3.6"/>
				<rect id="Rectangle-path_251_" x="48.9" y="38.7" fill="#4C7521" width="3.6" height="3.6"/>
				<rect id="Rectangle-path_252_" x="45.2" y="85.8" fill="#4C7521" width="3.6" height="3.6"/>
				<rect id="Rectangle-path_253_" x="45.2" y="82.2" fill="#8CC63F" width="3.6" height="3.6"/>
				<rect id="Rectangle-path_254_" x="45.2" y="78.6" fill="#8CC63F" width="3.6" height="3.6"/>
				<rect id="Rectangle-path_255_" x="45.2" y="74.9" fill="#8CC63F" width="3.6" height="3.6"/>
				<rect id="Rectangle-path_256_" x="45.2" y="71.3" fill="#8CC63F" width="3.6" height="3.6"/>
				<rect id="Rectangle-path_257_" x="45.2" y="67.7" fill="#8CC63F" width="3.6" height="3.6"/>
				<rect id="Rectangle-path_258_" x="45.2" y="64.1" fill="#8CC63F" width="3.6" height="3.6"/>
				<rect id="Rectangle-path_259_" x="45.2" y="60.4" fill="#8CC63F" width="3.6" height="3.6"/>
				<rect id="Rectangle-path_260_" x="45.2" y="56.8" fill="#FF7BAC" width="3.6" height="3.6"/>
				<rect id="Rectangle-path_261_" x="45.2" y="53.2" fill="#FF7BAC" width="3.6" height="3.6"/>
				<rect id="Rectangle-path_262_" x="45.2" y="49.6" fill="#8CC63F" width="3.6" height="3.6"/>
				<rect id="Rectangle-path_263_" x="45.2" y="45.9" fill="#8CC63F" width="3.6" height="3.6"/>
				<rect id="Rectangle-path_264_" x="45.2" y="42.3" fill="#4C7521" width="3.6" height="3.6"/>
				<rect id="Rectangle-path_265_" x="41.6" y="82.2" fill="#4C7521" width="3.6" height="3.6"/>
				<rect id="Rectangle-path_266_" x="41.6" y="78.6" fill="#8CC63F" width="3.6" height="3.6"/>
				<rect id="Rectangle-path_267_" x="41.6" y="74.9" fill="#8CC63F" width="3.6" height="3.6"/>
				<rect id="Rectangle-path_268_" x="41.6" y="71.3" fill="#8CC63F" width="3.6" height="3.6"/>
				<rect id="Rectangle-path_269_" x="41.6" y="67.7" fill="#8CC63F" width="3.6" height="3.6"/>
				<rect id="Rectangle-path_270_" x="41.6" y="64.1" fill="#8CC63F" width="3.6" height="3.6"/>
				<rect id="Rectangle-path_271_" x="41.6" y="60.4" fill="#8CC63F" width="3.6" height="3.6"/>
				<rect id="Rectangle-path_272_" x="41.6" y="56.8" fill="#8CC63F" width="3.6" height="3.6"/>
				<rect id="Rectangle-path_273_" x="41.6" y="53.2" fill="#8CC63F" width="3.6" height="3.6"/>
				<rect id="Rectangle-path_274_" x="41.6" y="49.6" fill="#8CC63F" width="3.6" height="3.6"/>
				<rect id="Rectangle-path_275_" x="41.6" y="45.9" fill="#4C7521" width="3.6" height="3.6"/>
				<rect id="Rectangle-path_276_" x="38" y="78.6" fill="#4C7521" width="3.6" height="3.6"/>
				<rect id="Rectangle-path_277_" x="38" y="74.9" fill="#4C7521" width="3.6" height="3.6"/>
				<rect id="Rectangle-path_278_" x="38" y="71.3" fill="#4C7521" width="3.6" height="3.6"/>
				<rect id="Rectangle-path_279_" x="38" y="67.7" fill="#4C7521" width="3.6" height="3.6"/>
				<rect id="Rectangle-path_280_" x="38" y="64.1" fill="#8CC63F" width="3.6" height="3.6"/>
				<rect id="Rectangle-path_281_" x="38" y="60.4" fill="#8CC63F" width="3.6" height="3.6"/>
				<rect id="Rectangle-path_282_" x="38" y="56.8" fill="#8CC63F" width="3.6" height="3.6"/>
				<rect id="Rectangle-path_283_" x="38" y="53.2" fill="#4C7521" width="3.6" height="3.6"/>
				<rect id="Rectangle-path_284_" x="38" y="49.6" fill="#4C7521" width="3.6" height="3.6"/>
				<rect id="Rectangle-path_285_" x="34.4" y="64.1" fill="#4C7521" width="3.6" height="3.6"/>
				<rect id="Rectangle-path_286_" x="34.4" y="60.4" fill="#8CC63F" width="3.6" height="3.6"/>
				<rect id="Rectangle-path_287_" x="34.4" y="56.8" fill="#4C7521" width="3.6" height="3.6"/>
				<rect id="Rectangle-path_288_" x="34.4" y="53.2" fill="#4C7521" width="3.6" height="3.6"/>
				<rect id="Rectangle-path_289_" x="30.7" y="64.1" fill="#4C7521" width="3.6" height="3.6"/>
				<rect id="Rectangle-path_290_" x="30.7" y="60.4" fill="#8CC63F" width="3.6" height="3.6"/>
				<rect id="Rectangle-path_291_" x="30.7" y="56.8" fill="#8CC63F" width="3.6" height="3.6"/>
				<rect id="Rectangle-path_292_" x="30.7" y="53.2" fill="#4C7521" width="3.6" height="3.6"/>
				<rect id="Rectangle-path_293_" x="27.1" y="64.1" fill="#4C7521" width="3.6" height="3.6"/>
				<rect id="Rectangle-path_294_" x="27.1" y="60.4" fill="#4C7521" width="3.6" height="3.6"/>
				<rect id="Rectangle-path_295_" x="27.1" y="56.8" fill="#4C7521" width="3.6" height="3.6"/>
				<rect id="Rectangle-path_296_" x="27.1" y="53.2" fill="#4C7521" width="3.6" height="3.6"/>
			</g>
		</g>
	</g>
</g>
</svg>
