<?xml version="1.0" encoding="UTF-8" standalone="no"?>
<svg width="305px" height="321px" viewBox="0 0 305 321" version="1.1" xmlns="http://www.w3.org/2000/svg" xmlns:xlink="http://www.w3.org/1999/xlink" xmlns:sketch="http://www.bohemiancoding.com/sketch/ns">
    <!-- Generator: Sketch 3.3.1 (12005) - http://www.bohemiancoding.com/sketch -->
    <title>Adult</title>
    <desc>Created with Sketch.</desc>
    <defs></defs>
    <g id="Welcome" stroke="none" stroke-width="1" fill="none" fill-rule="evenodd" sketch:type="MSPage">
        <g id="Adult" sketch:type="MSLayerGroup" transform="translate(-298.000000, -47.750000)">
            <g transform="translate(298.000000, 48.000000)" id="XMLID_4_" sketch:type="MSShapeGroup">
                <g>
                    <g id="Group">
                        <rect id="Rectangle-path" fill="#4C7521" x="224.5" y="0.5" width="16" height="16"></rect>
                        <rect id="Rectangle-path" fill="#4C7521" x="240.5" y="16.5" width="16" height="16"></rect>
                        <rect id="Rectangle-path" fill="#4C7521" x="240.5" y="32.5" width="16" height="16"></rect>
                        <rect id="Rectangle-path" fill="#8CC63F" x="192.5" y="304.5" width="16" height="16"></rect>
                        <rect id="Rectangle-path" fill="#8CC63F" x="176.5" y="304.5" width="16" height="16"></rect>
                        <rect id="Rectangle-path" fill="#8CC63F" x="208.5" y="304.5" width="16" height="16"></rect>
                        <rect id="Rectangle-path" fill="#8CC63F" x="48.5" y="304.5" width="16" height="16"></rect>
                        <rect id="Rectangle-path" fill="#8CC63F" x="80.5" y="304.5" width="16" height="16"></rect>
                        <rect id="Rectangle-path" fill="#8CC63F" x="64.5" y="304.5" width="16" height="16"></rect>
                        <rect id="Rectangle-path" fill="#4C7521" x="208.5" y="0.5" width="16" height="16"></rect>
                        <rect id="Rectangle-path" fill="#4C7521" x="224.5" y="16.5" width="16" height="16"></rect>
                        <rect id="Rectangle-path" fill="#4C7521" x="224.5" y="32.5" width="16" height="16"></rect>
                        <rect id="Rectangle-path" fill="#4C7521" x="288.5" y="176.5" width="16" height="16"></rect>
                        <rect id="Rectangle-path" fill="#4C7521" x="288.5" y="160.5" width="16" height="16"></rect>
                        <rect id="Rectangle-path" fill="#4C7521" x="288.5" y="144.5" width="16" height="16"></rect>
                        <rect id="Rectangle-path" fill="#4C7521" x="288.5" y="128.5" width="16" height="16"></rect>
                        <rect id="Rectangle-path" fill="#4C7521" x="288.5" y="112.5" width="16" height="16"></rect>
                        <rect id="Rectangle-path" fill="#4C7521" x="288.5" y="96.5" width="16" height="16"></rect>
                        <rect id="Rectangle-path" fill="#4C7521" x="288.5" y="80.5" width="16" height="16"></rect>
                        <rect id="Rectangle-path" fill="#4C7521" x="288.5" y="64.5" width="16" height="16"></rect>
                        <rect id="Rectangle-path" fill="#4C7521" x="288.5" y="48.5" width="16" height="16"></rect>
                        <rect id="Rectangle-path" fill="#4C7521" x="272.5" y="176.5" width="16" height="16"></rect>
                        <rect id="Rectangle-path" fill="#8CC63F" x="272.5" y="160.5" width="16" height="16"></rect>
                        <rect id="Rectangle-path" fill="#8CC63F" x="272.5" y="144.5" width="16" height="16"></rect>
                        <rect id="Rectangle-path" fill="#8CC63F" x="272.5" y="128.5" width="16" height="16"></rect>
                        <rect id="Rectangle-path" fill="#8CC63F" x="272.5" y="112.5" width="16" height="16"></rect>
                        <rect id="Rectangle-path" fill="#8CC63F" x="272.5" y="96.5" width="16" height="16"></rect>
                        <rect id="Rectangle-path" fill="#8CC63F" x="272.5" y="80.5" width="16" height="16"></rect>
                        <rect id="Rectangle-path" fill="#8CC63F" x="272.5" y="64.5" width="16" height="16"></rect>
                        <rect id="Rectangle-path" fill="#4C7521" x="272.5" y="48.5" width="16" height="16"></rect>
                        <rect id="Rectangle-path" fill="#4C7521" x="256.5" y="176.5" width="16" height="16"></rect>
                        <rect id="Rectangle-path" fill="#8CC63F" x="256.5" y="160.5" width="16" height="16"></rect>
                        <rect id="Rectangle-path" fill="#8CC63F" x="256.5" y="144.5" width="16" height="16"></rect>
                        <rect id="Rectangle-path" fill="#8CC63F" x="256.5" y="128.5" width="16" height="16"></rect>
                        <rect id="Rectangle-path" fill="#8CC63F" x="256.5" y="112.5" width="16" height="16"></rect>
                        <rect id="Rectangle-path" fill="#8CC63F" x="256.5" y="96.5" width="16" height="16"></rect>
                        <rect id="Rectangle-path" fill="#8CC63F" x="256.5" y="80.5" width="16" height="16"></rect>
                        <rect id="Rectangle-path" fill="#8CC63F" x="256.5" y="64.5" width="16" height="16"></rect>
                        <rect id="Rectangle-path" fill="#4C7521" x="256.5" y="48.5" width="16" height="16"></rect>
                        <rect id="Rectangle-path" fill="#4C7521" x="240.5" y="304.5" width="16" height="16"></rect>
                        <rect id="Rectangle-path" fill="#4C7521" x="240.5" y="288.5" width="16" height="16"></rect>
                        <rect id="Rectangle-path" fill="#4C7521" x="240.5" y="272.5" width="16" height="16"></rect>
                        <rect id="Rectangle-path" fill="#4C7521" x="240.5" y="256.5" width="16" height="16"></rect>
                        <rect id="Rectangle-path" fill="#4C7521" x="240.5" y="240.5" width="16" height="16"></rect>
                        <rect id="Rectangle-path" fill="#4C7521" x="240.5" y="224.5" width="16" height="16"></rect>
                        <rect id="Rectangle-path" fill="#4C7521" x="240.5" y="208.5" width="16" height="16"></rect>
                        <rect id="Rectangle-path" fill="#4C7521" x="240.5" y="192.5" width="16" height="16"></rect>
                        <rect id="Rectangle-path" fill="#4C7521" x="240.5" y="176.5" width="16" height="16"></rect>
                        <rect id="Rectangle-path" fill="#4C7521" x="240.5" y="160.5" width="16" height="16"></rect>
                        <rect id="Rectangle-path" fill="#4C7521" x="240.5" y="144.5" width="16" height="16"></rect>
                        <rect id="Rectangle-path" fill="#4C7521" x="240.5" y="128.5" width="16" height="16"></rect>
                        <rect id="Rectangle-path" fill="#4C7521" x="240.5" y="112.5" width="16" height="16"></rect>
                        <rect id="Rectangle-path" fill="#4C7521" x="240.5" y="96.5" width="16" height="16"></rect>
                        <rect id="Rectangle-path" fill="#4C7521" x="240.5" y="80.5" width="16" height="16"></rect>
                        <rect id="Rectangle-path" fill="#4C7521" x="240.5" y="64.5" width="16" height="16"></rect>
                        <rect id="Rectangle-path" fill="#4C7521" x="240.5" y="48.5" width="16" height="16"></rect>
                        <rect id="Rectangle-path" fill="#4C7521" x="224.5" y="304.5" width="16" height="16"></rect>
                        <rect id="Rectangle-path" fill="#4C7521" x="224.5" y="288.5" width="16" height="16"></rect>
                        <rect id="Rectangle-path" fill="#4C7521" x="224.5" y="272.5" width="16" height="16"></rect>
                        <rect id="Rectangle-path" fill="#4C7521" x="224.5" y="256.5" width="16" height="16"></rect>
                        <rect id="Rectangle-path" fill="#4C7521" x="224.5" y="240.5" width="16" height="16"></rect>
                        <rect id="Rectangle-path" fill="#4C7521" x="224.5" y="224.5" width="16" height="16"></rect>
                        <rect id="Rectangle-path" fill="#4C7521" x="224.5" y="208.5" width="16" height="16"></rect>
                        <rect id="Rectangle-path" fill="#4C7521" x="224.5" y="192.5" width="16" height="16"></rect>
                        <rect id="Rectangle-path" fill="#4C7521" x="224.5" y="176.5" width="16" height="16"></rect>
                        <rect id="Rectangle-path" fill="#4C7521" x="224.5" y="160.5" width="16" height="16"></rect>
                        <rect id="Rectangle-path" fill="#4C7521" x="224.5" y="144.5" width="16" height="16"></rect>
                        <rect id="Rectangle-path" fill="#4C7521" x="224.5" y="128.5" width="16" height="16"></rect>
                        <rect id="Rectangle-path" fill="#4C7521" x="224.5" y="112.5" width="16" height="16"></rect>
                        <rect id="Rectangle-path" fill="#4C7521" x="224.5" y="96.5" width="16" height="16"></rect>
                        <rect id="Rectangle-path" fill="#4C7521" x="224.5" y="80.5" width="16" height="16"></rect>
                        <rect id="Rectangle-path" fill="#4C7521" x="224.5" y="64.5" width="16" height="16"></rect>
                        <rect id="Rectangle-path" fill="#4C7521" x="224.5" y="48.5" width="16" height="16"></rect>
                        <rect id="Rectangle-path" fill="#8CC63F" x="208.5" y="288.5" width="16" height="16"></rect>
                        <rect id="Rectangle-path" fill="#8CC63F" x="208.5" y="272.5" width="16" height="16"></rect>
                        <rect id="Rectangle-path" fill="#8CC63F" x="208.5" y="256.5" width="16" height="16"></rect>
                        <rect id="Rectangle-path" fill="#8CC63F" x="208.5" y="240.5" width="16" height="16"></rect>
                        <rect id="Rectangle-path" fill="#8CC63F" x="208.5" y="224.5" width="16" height="16"></rect>
                        <rect id="Rectangle-path" fill="#8CC63F" x="208.5" y="208.5" width="16" height="16"></rect>
                        <rect id="Rectangle-path" fill="#8CC63F" x="208.5" y="192.5" width="16" height="16"></rect>
                        <rect id="Rectangle-path" fill="#8CC63F" x="208.5" y="176.5" width="16" height="16"></rect>
                        <rect id="Rectangle-path" fill="#8CC63F" x="208.5" y="160.5" width="16" height="16"></rect>
                        <rect id="Rectangle-path" fill="#8CC63F" x="208.5" y="144.5" width="16" height="16"></rect>
                        <rect id="Rectangle-path" fill="#8CC63F" x="208.5" y="128.5" width="16" height="16"></rect>
                        <rect id="Rectangle-path" fill="#8CC63F" x="208.5" y="112.5" width="16" height="16"></rect>
                        <rect id="Rectangle-path" fill="#8CC63F" x="208.5" y="96.5" width="16" height="16"></rect>
                        <rect id="Rectangle-path" fill="#8CC63F" x="208.5" y="80.5" width="16" height="16"></rect>
                        <rect id="Rectangle-path" fill="#8CC63F" x="208.5" y="64.5" width="16" height="16"></rect>
                        <rect id="Rectangle-path" fill="#8CC63F" x="208.5" y="48.5" width="16" height="16"></rect>
                        <rect id="Rectangle-path" fill="#8CC63F" x="208.5" y="32.5" width="16" height="16"></rect>
                        <rect id="Rectangle-path" fill="#8CC63F" x="208.5" y="16.5" width="16" height="16"></rect>
                        <rect id="Rectangle-path" fill="#8CC63F" x="192.5" y="288.5" width="16" height="16"></rect>
                        <rect id="Rectangle-path" fill="#8CC63F" x="192.5" y="272.5" width="16" height="16"></rect>
                        <rect id="Rectangle-path" fill="#8CC63F" x="192.5" y="256.5" width="16" height="16"></rect>
                        <rect id="Rectangle-path" fill="#8CC63F" x="192.5" y="240.5" width="16" height="16"></rect>
                        <rect id="Rectangle-path" fill="#8CC63F" x="192.5" y="224.5" width="16" height="16"></rect>
                        <rect id="Rectangle-path" fill="#8CC63F" x="192.5" y="208.5" width="16" height="16"></rect>
                        <rect id="Rectangle-path" fill="#8CC63F" x="192.5" y="192.5" width="16" height="16"></rect>
                        <rect id="Rectangle-path" fill="#8CC63F" x="192.5" y="176.5" width="16" height="16"></rect>
                        <rect id="Rectangle-path" fill="#8CC63F" x="192.5" y="160.5" width="16" height="16"></rect>
                        <rect id="Rectangle-path" fill="#8CC63F" x="192.5" y="144.5" width="16" height="16"></rect>
                        <rect id="Rectangle-path" fill="#8CC63F" x="192.5" y="128.5" width="16" height="16"></rect>
                        <rect id="Rectangle-path" fill="#8CC63F" x="192.5" y="112.5" width="16" height="16"></rect>
                        <rect id="Rectangle-path" fill="#8CC63F" x="192.5" y="96.5" width="16" height="16"></rect>
                        <rect id="Rectangle-path" fill="#8CC63F" x="192.5" y="80.5" width="16" height="16"></rect>
                        <rect id="Rectangle-path" fill="#4D4D4D" x="192.5" y="64.5" width="16" height="16"></rect>
                        <rect id="Rectangle-path" fill="#4D4D4D" x="192.5" y="48.5" width="16" height="16"></rect>
                        <rect id="Rectangle-path" fill="#8CC63F" x="192.5" y="32.5" width="16" height="16"></rect>
                        <rect id="Rectangle-path" fill="#8CC63F" x="192.5" y="16.5" width="16" height="16"></rect>
                        <rect id="Rectangle-path" fill="#8CC63F" x="192.5" y="0.5" width="16" height="16"></rect>
                        <rect id="Rectangle-path" fill="#8CC63F" x="176.5" y="288.5" width="16" height="16"></rect>
                        <rect id="Rectangle-path" fill="#8CC63F" x="176.5" y="272.5" width="16" height="16"></rect>
                        <rect id="Rectangle-path" fill="#8CC63F" x="176.5" y="256.5" width="16" height="16"></rect>
                        <rect id="Rectangle-path" fill="#8CC63F" x="176.5" y="240.5" width="16" height="16"></rect>
                        <rect id="Rectangle-path" fill="#8CC63F" x="176.5" y="224.5" width="16" height="16"></rect>
                        <rect id="Rectangle-path" fill="#8CC63F" x="176.5" y="208.5" width="16" height="16"></rect>
                        <rect id="Rectangle-path" fill="#8CC63F" x="176.5" y="192.5" width="16" height="16"></rect>
                        <rect id="Rectangle-path" fill="#8CC63F" x="176.5" y="176.5" width="16" height="16"></rect>
                        <rect id="Rectangle-path" fill="#8CC63F" x="176.5" y="160.5" width="16" height="16"></rect>
                        <rect id="Rectangle-path" fill="#8CC63F" x="176.5" y="144.5" width="16" height="16"></rect>
                        <rect id="Rectangle-path" fill="#8CC63F" x="176.5" y="128.5" width="16" height="16"></rect>
                        <rect id="Rectangle-path" fill="#8CC63F" x="176.5" y="112.5" width="16" height="16"></rect>
                        <rect id="Rectangle-path" fill="#8CC63F" x="176.5" y="96.5" width="16" height="16"></rect>
                        <rect id="Rectangle-path" fill="#8CC63F" x="176.5" y="80.5" width="16" height="16"></rect>
                        <rect id="Rectangle-path" fill="#4D4D4D" x="176.5" y="64.5" width="16" height="16"></rect>
                        <rect id="Rectangle-path" fill="#4D4D4D" x="176.5" y="48.5" width="16" height="16"></rect>
                        <rect id="Rectangle-path" fill="#8CC63F" x="176.5" y="32.5" width="16" height="16"></rect>
                        <rect id="Rectangle-path" fill="#8CC63F" x="176.5" y="16.5" width="16" height="16"></rect>
                        <rect id="Rectangle-path" fill="#8CC63F" x="176.5" y="0.5" width="16" height="16"></rect>
                        <rect id="Rectangle-path" fill="#8CC63F" x="160.5" y="272.5" width="16" height="16"></rect>
                        <rect id="Rectangle-path" fill="#8CC63F" x="160.5" y="256.5" width="16" height="16"></rect>
                        <rect id="Rectangle-path" fill="#8CC63F" x="160.5" y="240.5" width="16" height="16"></rect>
                        <rect id="Rectangle-path" fill="#8CC63F" x="160.5" y="224.5" width="16" height="16"></rect>
                        <rect id="Rectangle-path" fill="#8CC63F" x="160.5" y="208.5" width="16" height="16"></rect>
                        <rect id="Rectangle-path" fill="#8CC63F" x="160.5" y="192.5" width="16" height="16"></rect>
                        <rect id="Rectangle-path" fill="#8CC63F" x="160.5" y="176.5" width="16" height="16"></rect>
                        <rect id="Rectangle-path" fill="#8CC63F" x="160.5" y="160.5" width="16" height="16"></rect>
                        <rect id="Rectangle-path" fill="#8CC63F" x="160.5" y="144.5" width="16" height="16"></rect>
                        <rect id="Rectangle-path" fill="#8CC63F" x="160.5" y="128.5" width="16" height="16"></rect>
                        <rect id="Rectangle-path" fill="#4D4D4D" x="160.5" y="112.5" width="16" height="16"></rect>
                        <rect id="Rectangle-path" fill="#4D4D4D" x="160.5" y="96.5" width="16" height="16"></rect>
                        <rect id="Rectangle-path" fill="#8CC63F" x="160.5" y="80.5" width="16" height="16"></rect>
                        <rect id="Rectangle-path" fill="#8CC63F" x="160.5" y="64.5" width="16" height="16"></rect>
                        <rect id="Rectangle-path" fill="#8CC63F" x="160.5" y="48.5" width="16" height="16"></rect>
                        <rect id="Rectangle-path" fill="#8CC63F" x="160.5" y="32.5" width="16" height="16"></rect>
                        <rect id="Rectangle-path" fill="#8CC63F" x="160.5" y="16.5" width="16" height="16"></rect>
                        <rect id="Rectangle-path" fill="#8CC63F" x="160.5" y="0.5" width="16" height="16"></rect>
                        <rect id="Rectangle-path" fill="#8CC63F" x="144.5" y="272.5" width="16" height="16"></rect>
                        <rect id="Rectangle-path" fill="#8CC63F" x="144.5" y="256.5" width="16" height="16"></rect>
                        <rect id="Rectangle-path" fill="#8CC63F" x="144.5" y="240.5" width="16" height="16"></rect>
                        <rect id="Rectangle-path" fill="#8CC63F" x="144.5" y="224.5" width="16" height="16"></rect>
                        <rect id="Rectangle-path" fill="#8CC63F" x="144.5" y="208.5" width="16" height="16"></rect>
                        <rect id="Rectangle-path" fill="#8CC63F" x="144.5" y="192.5" width="16" height="16"></rect>
                        <rect id="Rectangle-path" fill="#8CC63F" x="144.5" y="176.5" width="16" height="16"></rect>
                        <rect id="Rectangle-path" fill="#8CC63F" x="144.5" y="160.5" width="16" height="16"></rect>
                        <rect id="Rectangle-path" fill="#8CC63F" x="144.5" y="144.5" width="16" height="16"></rect>
                        <rect id="Rectangle-path" fill="#8CC63F" x="144.5" y="128.5" width="16" height="16"></rect>
                        <rect id="Rectangle-path" fill="#4D4D4D" x="144.5" y="112.5" width="16" height="16"></rect>
                        <rect id="Rectangle-path" fill="#4D4D4D" x="144.5" y="96.5" width="16" height="16"></rect>
                        <rect id="Rectangle-path" fill="#8CC63F" x="144.5" y="80.5" width="16" height="16"></rect>
                        <rect id="Rectangle-path" fill="#8CC63F" x="144.5" y="64.5" width="16" height="16"></rect>
                        <rect id="Rectangle-path" fill="#8CC63F" x="144.5" y="48.5" width="16" height="16"></rect>
                        <rect id="Rectangle-path" fill="#8CC63F" x="144.5" y="32.5" width="16" height="16"></rect>
                        <rect id="Rectangle-path" fill="#8CC63F" x="144.5" y="16.5" width="16" height="16"></rect>
                        <rect id="Rectangle-path" fill="#8CC63F" x="144.5" y="0.5" width="16" height="16"></rect>
                        <rect id="Rectangle-path" fill="#8CC63F" x="128.5" y="272.5" width="16" height="16"></rect>
                        <rect id="Rectangle-path" fill="#8CC63F" x="128.5" y="256.5" width="16" height="16"></rect>
                        <rect id="Rectangle-path" fill="#8CC63F" x="128.5" y="240.5" width="16" height="16"></rect>
                        <rect id="Rectangle-path" fill="#8CC63F" x="128.5" y="224.5" width="16" height="16"></rect>
                        <rect id="Rectangle-path" fill="#8CC63F" x="128.5" y="208.5" width="16" height="16"></rect>
                        <rect id="Rectangle-path" fill="#8CC63F" x="128.5" y="192.5" width="16" height="16"></rect>
                        <rect id="Rectangle-path" fill="#8CC63F" x="128.5" y="176.5" width="16" height="16"></rect>
                        <rect id="Rectangle-path" fill="#8CC63F" x="128.5" y="160.5" width="16" height="16"></rect>
                        <rect id="Rectangle-path" fill="#8CC63F" x="128.5" y="144.5" width="16" height="16"></rect>
                        <rect id="Rectangle-path" fill="#8CC63F" x="128.5" y="128.5" width="16" height="16"></rect>
                        <rect id="Rectangle-path" fill="#4D4D4D" x="128.5" y="112.5" width="16" height="16"></rect>
                        <rect id="Rectangle-path" fill="#4D4D4D" x="128.5" y="96.5" width="16" height="16"></rect>
                        <rect id="Rectangle-path" fill="#8CC63F" x="128.5" y="80.5" width="16" height="16"></rect>
                        <rect id="Rectangle-path" fill="#8CC63F" x="128.5" y="64.5" width="16" height="16"></rect>
                        <rect id="Rectangle-path" fill="#8CC63F" x="128.5" y="48.5" width="16" height="16"></rect>
                        <rect id="Rectangle-path" fill="#8CC63F" x="128.5" y="32.5" width="16" height="16"></rect>
                        <rect id="Rectangle-path" fill="#8CC63F" x="128.5" y="16.5" width="16" height="16"></rect>
                        <rect id="Rectangle-path" fill="#8CC63F" x="128.5" y="0.5" width="16" height="16"></rect>
                        <rect id="Rectangle-path" fill="#8CC63F" x="112.5" y="272.5" width="16" height="16"></rect>
                        <rect id="Rectangle-path" fill="#8CC63F" x="112.5" y="256.5" width="16" height="16"></rect>
                        <rect id="Rectangle-path" fill="#8CC63F" x="112.5" y="240.5" width="16" height="16"></rect>
                        <rect id="Rectangle-path" fill="#8CC63F" x="112.5" y="224.5" width="16" height="16"></rect>
                        <rect id="Rectangle-path" fill="#8CC63F" x="112.5" y="208.5" width="16" height="16"></rect>
                        <rect id="Rectangle-path" fill="#8CC63F" x="112.5" y="192.5" width="16" height="16"></rect>
                        <rect id="Rectangle-path" fill="#8CC63F" x="112.5" y="176.5" width="16" height="16"></rect>
                        <rect id="Rectangle-path" fill="#8CC63F" x="112.5" y="160.5" width="16" height="16"></rect>
                        <rect id="Rectangle-path" fill="#8CC63F" x="112.5" y="144.5" width="16" height="16"></rect>
                        <rect id="Rectangle-path" fill="#8CC63F" x="112.5" y="128.5" width="16" height="16"></rect>
                        <rect id="Rectangle-path" fill="#4D4D4D" x="112.5" y="112.5" width="16" height="16"></rect>
                        <rect id="Rectangle-path" fill="#4D4D4D" x="112.5" y="96.5" width="16" height="16"></rect>
                        <rect id="Rectangle-path" fill="#8CC63F" x="112.5" y="80.5" width="16" height="16"></rect>
                        <rect id="Rectangle-path" fill="#8CC63F" x="112.5" y="64.5" width="16" height="16"></rect>
                        <rect id="Rectangle-path" fill="#8CC63F" x="112.5" y="48.5" width="16" height="16"></rect>
                        <rect id="Rectangle-path" fill="#8CC63F" x="112.5" y="32.5" width="16" height="16"></rect>
                        <rect id="Rectangle-path" fill="#8CC63F" x="112.5" y="16.5" width="16" height="16"></rect>
                        <rect id="Rectangle-path" fill="#8CC63F" x="112.5" y="0.5" width="16" height="16"></rect>
                        <rect id="Rectangle-path" fill="#4C7521" x="96.5" y="304.5" width="16" height="16"></rect>
                        <rect id="Rectangle-path" fill="#4C7521" x="96.5" y="288.5" width="16" height="16"></rect>
                        <rect id="Rectangle-path" fill="#8CC63F" x="96.5" y="272.5" width="16" height="16"></rect>
                        <rect id="Rectangle-path" fill="#8CC63F" x="96.5" y="256.5" width="16" height="16"></rect>
                        <rect id="Rectangle-path" fill="#8CC63F" x="96.5" y="240.5" width="16" height="16"></rect>
                        <rect id="Rectangle-path" fill="#8CC63F" x="96.5" y="224.5" width="16" height="16"></rect>
                        <rect id="Rectangle-path" fill="#8CC63F" x="96.5" y="208.5" width="16" height="16"></rect>
                        <rect id="Rectangle-path" fill="#8CC63F" x="96.5" y="192.5" width="16" height="16"></rect>
                        <rect id="Rectangle-path" fill="#8CC63F" x="96.5" y="176.5" width="16" height="16"></rect>
                        <rect id="Rectangle-path" fill="#8CC63F" x="96.5" y="160.5" width="16" height="16"></rect>
                        <rect id="Rectangle-path" fill="#8CC63F" x="96.5" y="144.5" width="16" height="16"></rect>
                        <rect id="Rectangle-path" fill="#8CC63F" x="96.5" y="128.5" width="16" height="16"></rect>
                        <rect id="Rectangle-path" fill="#8CC63F" x="96.5" y="112.5" width="16" height="16"></rect>
                        <rect id="Rectangle-path" fill="#8CC63F" x="96.5" y="96.5" width="16" height="16"></rect>
                        <rect id="Rectangle-path" fill="#8CC63F" x="96.5" y="80.5" width="16" height="16"></rect>
                        <rect id="Rectangle-path" fill="#4D4D4D" x="96.5" y="64.5" width="16" height="16"></rect>
                        <rect id="Rectangle-path" fill="#4D4D4D" x="96.5" y="48.5" width="16" height="16"></rect>
                        <rect id="Rectangle-path" fill="#8CC63F" x="96.5" y="32.5" width="16" height="16"></rect>
                        <rect id="Rectangle-path" fill="#8CC63F" x="96.5" y="16.5" width="16" height="16"></rect>
                        <rect id="Rectangle-path" fill="#8CC63F" x="96.5" y="0.5" width="16" height="16"></rect>
                        <rect id="Rectangle-path" fill="#8CC63F" x="80.5" y="288.5" width="16" height="16"></rect>
                        <rect id="Rectangle-path" fill="#8CC63F" x="80.5" y="272.5" width="16" height="16"></rect>
                        <rect id="Rectangle-path" fill="#8CC63F" x="80.5" y="256.5" width="16" height="16"></rect>
                        <rect id="Rectangle-path" fill="#8CC63F" x="80.5" y="240.5" width="16" height="16"></rect>
                        <rect id="Rectangle-path" fill="#8CC63F" x="80.5" y="224.5" width="16" height="16"></rect>
                        <rect id="Rectangle-path" fill="#8CC63F" x="80.5" y="208.5" width="16" height="16"></rect>
                        <rect id="Rectangle-path" fill="#8CC63F" x="80.5" y="192.5" width="16" height="16"></rect>
                        <rect id="Rectangle-path" fill="#8CC63F" x="80.5" y="176.5" width="16" height="16"></rect>
                        <rect id="Rectangle-path" fill="#8CC63F" x="80.5" y="160.5" width="16" height="16"></rect>
                        <rect id="Rectangle-path" fill="#8CC63F" x="80.5" y="144.5" width="16" height="16"></rect>
                        <rect id="Rectangle-path" fill="#8CC63F" x="80.5" y="128.5" width="16" height="16"></rect>
                        <rect id="Rectangle-path" fill="#8CC63F" x="80.5" y="112.5" width="16" height="16"></rect>
                        <rect id="Rectangle-path" fill="#8CC63F" x="80.5" y="96.5" width="16" height="16"></rect>
                        <rect id="Rectangle-path" fill="#8CC63F" x="80.5" y="80.5" width="16" height="16"></rect>
                        <rect id="Rectangle-path" fill="#4D4D4D" x="80.5" y="64.5" width="16" height="16"></rect>
                        <rect id="Rectangle-path" fill="#4D4D4D" x="80.5" y="48.5" width="16" height="16"></rect>
                        <rect id="Rectangle-path" fill="#8CC63F" x="80.5" y="32.5" width="16" height="16"></rect>
                        <rect id="Rectangle-path" fill="#8CC63F" x="80.5" y="16.5" width="16" height="16"></rect>
                        <rect id="Rectangle-path" fill="#8CC63F" x="80.5" y="0.5" width="16" height="16"></rect>
                        <rect id="Rectangle-path" fill="#8CC63F" x="64.5" y="288.5" width="16" height="16"></rect>
                        <rect id="Rectangle-path" fill="#8CC63F" x="64.5" y="272.5" width="16" height="16"></rect>
                        <rect id="Rectangle-path" fill="#8CC63F" x="64.5" y="256.5" width="16" height="16"></rect>
                        <rect id="Rectangle-path" fill="#8CC63F" x="64.5" y="240.5" width="16" height="16"></rect>
                        <rect id="Rectangle-path" fill="#8CC63F" x="64.5" y="224.5" width="16" height="16"></rect>
                        <rect id="Rectangle-path" fill="#8CC63F" x="64.5" y="208.5" width="16" height="16"></rect>
                        <rect id="Rectangle-path" fill="#8CC63F" x="64.5" y="192.5" width="16" height="16"></rect>
                        <rect id="Rectangle-path" fill="#8CC63F" x="64.5" y="176.5" width="16" height="16"></rect>
                        <rect id="Rectangle-path" fill="#8CC63F" x="64.5" y="160.5" width="16" height="16"></rect>
                        <rect id="Rectangle-path" fill="#8CC63F" x="64.5" y="144.5" width="16" height="16"></rect>
                        <rect id="Rectangle-path" fill="#8CC63F" x="64.5" y="128.5" width="16" height="16"></rect>
                        <rect id="Rectangle-path" fill="#8CC63F" x="64.5" y="112.5" width="16" height="16"></rect>
                        <rect id="Rectangle-path" fill="#8CC63F" x="64.5" y="96.5" width="16" height="16"></rect>
                        <rect id="Rectangle-path" fill="#8CC63F" x="64.5" y="80.5" width="16" height="16"></rect>
                        <rect id="Rectangle-path" fill="#8CC63F" x="64.5" y="64.5" width="16" height="16"></rect>
                        <rect id="Rectangle-path" fill="#8CC63F" x="64.5" y="48.5" width="16" height="16"></rect>
                        <rect id="Rectangle-path" fill="#8CC63F" x="64.5" y="32.5" width="16" height="16"></rect>
                        <rect id="Rectangle-path" fill="#8CC63F" x="64.5" y="16.5" width="16" height="16"></rect>
                        <rect id="Rectangle-path" fill="#8CC63F" x="64.5" y="0.5" width="16" height="16"></rect>
                        <rect id="Rectangle-path" fill="#8CC63F" x="48.5" y="288.5" width="16" height="16"></rect>
                        <rect id="Rectangle-path" fill="#8CC63F" x="48.5" y="272.5" width="16" height="16"></rect>
                        <rect id="Rectangle-path" fill="#8CC63F" x="48.5" y="256.5" width="16" height="16"></rect>
                        <rect id="Rectangle-path" fill="#8CC63F" x="48.5" y="240.5" width="16" height="16"></rect>
                        <rect id="Rectangle-path" fill="#8CC63F" x="48.5" y="224.5" width="16" height="16"></rect>
                        <rect id="Rectangle-path" fill="#8CC63F" x="48.5" y="208.5" width="16" height="16"></rect>
                        <rect id="Rectangle-path" fill="#8CC63F" x="48.5" y="192.5" width="16" height="16"></rect>
                        <rect id="Rectangle-path" fill="#8CC63F" x="48.5" y="176.5" width="16" height="16"></rect>
                        <rect id="Rectangle-path" fill="#8CC63F" x="48.5" y="160.5" width="16" height="16"></rect>
                        <rect id="Rectangle-path" fill="#8CC63F" x="48.5" y="144.5" width="16" height="16"></rect>
                        <rect id="Rectangle-path" fill="#8CC63F" x="48.5" y="128.5" width="16" height="16"></rect>
                        <rect id="Rectangle-path" fill="#8CC63F" x="48.5" y="112.5" width="16" height="16"></rect>
                        <rect id="Rectangle-path" fill="#8CC63F" x="48.5" y="96.5" width="16" height="16"></rect>
                        <rect id="Rectangle-path" fill="#8CC63F" x="48.5" y="80.5" width="16" height="16"></rect>
                        <rect id="Rectangle-path" fill="#8CC63F" x="48.5" y="64.5" width="16" height="16"></rect>
                        <rect id="Rectangle-path" fill="#8CC63F" x="48.5" y="48.5" width="16" height="16"></rect>
                        <rect id="Rectangle-path" fill="#8CC63F" x="48.5" y="32.5" width="16" height="16"></rect>
                        <rect id="Rectangle-path" fill="#8CC63F" x="48.5" y="16.5" width="16" height="16"></rect>
                        <rect id="Rectangle-path" fill="#4C7521" x="32.5" y="160.5" width="16" height="16"></rect>
                        <rect id="Rectangle-path" fill="#4C7521" x="32.5" y="144.5" width="16" height="16"></rect>
                        <rect id="Rectangle-path" fill="#4C7521" x="32.5" y="128.5" width="16" height="16"></rect>
                        <rect id="Rectangle-path" fill="#4C7521" x="32.5" y="112.5" width="16" height="16"></rect>
                        <rect id="Rectangle-path" fill="#4C7521" x="32.5" y="96.5" width="16" height="16"></rect>
                        <rect id="Rectangle-path" fill="#4C7521" x="32.5" y="80.5" width="16" height="16"></rect>
                        <rect id="Rectangle-path" fill="#4C7521" x="32.5" y="64.5" width="16" height="16"></rect>
                        <rect id="Rectangle-path" fill="#8CC63F" x="16.5" y="160.5" width="16" height="16"></rect>
                        <rect id="Rectangle-path" fill="#8CC63F" x="16.5" y="144.5" width="16" height="16"></rect>
                        <rect id="Rectangle-path" fill="#8CC63F" x="16.5" y="128.5" width="16" height="16"></rect>
                        <rect id="Rectangle-path" fill="#8CC63F" x="16.5" y="112.5" width="16" height="16"></rect>
                        <rect id="Rectangle-path" fill="#8CC63F" x="16.5" y="96.5" width="16" height="16"></rect>
                        <rect id="Rectangle-path" fill="#8CC63F" x="16.5" y="80.5" width="16" height="16"></rect>
                        <rect id="Rectangle-path" fill="#8CC63F" x="16.5" y="64.5" width="16" height="16"></rect>
                        <rect id="Rectangle-path" fill="#8CC63F" x="0.5" y="160.5" width="16" height="16"></rect>
                        <rect id="Rectangle-path" fill="#8CC63F" x="0.5" y="144.5" width="16" height="16"></rect>
                        <rect id="Rectangle-path" fill="#8CC63F" x="0.5" y="128.5" width="16" height="16"></rect>
                        <rect id="Rectangle-path" fill="#8CC63F" x="0.5" y="112.5" width="16" height="16"></rect>
                        <rect id="Rectangle-path" fill="#8CC63F" x="0.5" y="96.5" width="16" height="16"></rect>
                        <rect id="Rectangle-path" fill="#8CC63F" x="0.5" y="80.5" width="16" height="16"></rect>
                        <rect id="Rectangle-path" fill="#8CC63F" x="0.5" y="64.5" width="16" height="16"></rect>
                    </g>
                </g>
            </g>
        </g>
    </g>
</svg>