<?xml version="1.0" encoding="UTF-8" standalone="no"?>
<svg width="161px" height="225px" viewBox="0 0 161 225" version="1.1" xmlns="http://www.w3.org/2000/svg" xmlns:xlink="http://www.w3.org/1999/xlink" xmlns:sketch="http://www.bohemiancoding.com/sketch/ns">
    <!-- Generator: Sketch 3.3.1 (12005) - http://www.bohemiancoding.com/sketch -->
    <title>Tombstone</title>
    <desc>Created with Sketch.</desc>
    <defs></defs>
    <g id="Welcome" stroke="none" stroke-width="1" fill="none" fill-rule="evenodd" sketch:type="MSPage">
        <g id="Tombstone" sketch:type="MSLayerGroup">
            <g id="XMLID_1_" sketch:type="MSShapeGroup">
                <g id="Group">
                    <rect id="Rectangle-path" fill="#808080" x="144.5" y="208.5" width="16" height="16"></rect>
                    <rect id="Rectangle-path" fill="#808080" x="144.5" y="192.5" width="16" height="16"></rect>
                    <rect id="Rectangle-path" fill="#808080" x="144.5" y="176.5" width="16" height="16"></rect>
                    <rect id="Rectangle-path" fill="#808080" x="144.5" y="160.5" width="16" height="16"></rect>
                    <rect id="Rectangle-path" fill="#808080" x="144.5" y="144.5" width="16" height="16"></rect>
                    <rect id="Rectangle-path" fill="#808080" x="144.5" y="128.5" width="16" height="16"></rect>
                    <rect id="Rectangle-path" fill="#808080" x="144.5" y="112.5" width="16" height="16"></rect>
                    <rect id="Rectangle-path" fill="#808080" x="144.5" y="96.5" width="16" height="16"></rect>
                    <rect id="Rectangle-path" fill="#808080" x="144.5" y="80.5" width="16" height="16"></rect>
                    <rect id="Rectangle-path" fill="#CCCCCC" x="128.5" y="208.5" width="16" height="16"></rect>
                    <rect id="Rectangle-path" fill="#CCCCCC" x="128.5" y="192.5" width="16" height="16"></rect>
                    <rect id="Rectangle-path" fill="#CCCCCC" x="128.5" y="176.5" width="16" height="16"></rect>
                    <rect id="Rectangle-path" fill="#CCCCCC" x="128.5" y="160.5" width="16" height="16"></rect>
                    <rect id="Rectangle-path" fill="#CCCCCC" x="128.5" y="144.5" width="16" height="16"></rect>
                    <rect id="Rectangle-path" fill="#CCCCCC" x="128.5" y="128.5" width="16" height="16"></rect>
                    <rect id="Rectangle-path" fill="#CCCCCC" x="128.5" y="112.5" width="16" height="16"></rect>
                    <rect id="Rectangle-path" fill="#CCCCCC" x="128.5" y="96.5" width="16" height="16"></rect>
                    <rect id="Rectangle-path" fill="#808080" x="128.5" y="80.5" width="16" height="16"></rect>
                    <rect id="Rectangle-path" fill="#CCCCCC" x="112.5" y="208.5" width="16" height="16"></rect>
                    <rect id="Rectangle-path" fill="#CCCCCC" x="112.5" y="192.5" width="16" height="16"></rect>
                    <rect id="Rectangle-path" fill="#CCCCCC" x="112.5" y="176.5" width="16" height="16"></rect>
                    <rect id="Rectangle-path" fill="#CCCCCC" x="112.5" y="160.5" width="16" height="16"></rect>
                    <rect id="Rectangle-path" fill="#CCCCCC" x="112.5" y="144.5" width="16" height="16"></rect>
                    <rect id="Rectangle-path" fill="#CCCCCC" x="112.5" y="128.5" width="16" height="16"></rect>
                    <rect id="Rectangle-path" fill="#CCCCCC" x="112.5" y="112.5" width="16" height="16"></rect>
                    <rect id="Rectangle-path" fill="#CCCCCC" x="112.5" y="96.5" width="16" height="16"></rect>
                    <rect id="Rectangle-path" fill="#CCCCCC" x="112.5" y="80.5" width="16" height="16"></rect>
                    <rect id="Rectangle-path" fill="#808080" x="112.5" y="64.5" width="16" height="16"></rect>
                    <rect id="Rectangle-path" fill="#CCCCCC" x="96.5" y="208.5" width="16" height="16"></rect>
                    <rect id="Rectangle-path" fill="#CCCCCC" x="96.5" y="192.5" width="16" height="16"></rect>
                    <rect id="Rectangle-path" fill="#CCCCCC" x="96.5" y="176.5" width="16" height="16"></rect>
                    <rect id="Rectangle-path" fill="#CCCCCC" x="96.5" y="160.5" width="16" height="16"></rect>
                    <rect id="Rectangle-path" fill="#CCCCCC" x="96.5" y="144.5" width="16" height="16"></rect>
                    <rect id="Rectangle-path" fill="#CCCCCC" x="96.5" y="128.5" width="16" height="16"></rect>
                    <rect id="Rectangle-path" fill="#CCCCCC" x="96.5" y="112.5" width="16" height="16"></rect>
                    <rect id="Rectangle-path" fill="#CCCCCC" x="96.5" y="96.5" width="16" height="16"></rect>
                    <rect id="Rectangle-path" fill="#CCCCCC" x="96.5" y="80.5" width="16" height="16"></rect>
                    <rect id="Rectangle-path" fill="#CCCCCC" x="96.5" y="64.5" width="16" height="16"></rect>
                    <rect id="Rectangle-path" fill="#808080" x="96.5" y="16.5" width="16" height="16"></rect>
                    <rect id="Rectangle-path" fill="#CCCCCC" x="80.5" y="208.5" width="16" height="16"></rect>
                    <rect id="Rectangle-path" fill="#CCCCCC" x="80.5" y="192.5" width="16" height="16"></rect>
                    <rect id="Rectangle-path" fill="#CCCCCC" x="80.5" y="176.5" width="16" height="16"></rect>
                    <rect id="Rectangle-path" fill="#CCCCCC" x="80.5" y="160.5" width="16" height="16"></rect>
                    <rect id="Rectangle-path" fill="#CCCCCC" x="80.5" y="144.5" width="16" height="16"></rect>
                    <rect id="Rectangle-path" fill="#CCCCCC" x="80.5" y="128.5" width="16" height="16"></rect>
                    <rect id="Rectangle-path" fill="#CCCCCC" x="80.5" y="112.5" width="16" height="16"></rect>
                    <rect id="Rectangle-path" fill="#CCCCCC" x="80.5" y="96.5" width="16" height="16"></rect>
                    <rect id="Rectangle-path" fill="#CCCCCC" x="80.5" y="80.5" width="16" height="16"></rect>
                    <rect id="Rectangle-path" fill="#CCCCCC" x="80.5" y="64.5" width="16" height="16"></rect>
                    <rect id="Rectangle-path" fill="#808080" x="80.5" y="48.5" width="16" height="16"></rect>
                    <rect id="Rectangle-path" fill="#808080" x="80.5" y="32.5" width="16" height="16"></rect>
                    <rect id="Rectangle-path" fill="#CCCCCC" x="80.5" y="16.5" width="16" height="16"></rect>
                    <rect id="Rectangle-path" fill="#808080" x="80.5" y="0.5" width="16" height="16"></rect>
                    <rect id="Rectangle-path" fill="#CCCCCC" x="64.5" y="208.5" width="16" height="16"></rect>
                    <rect id="Rectangle-path" fill="#CCCCCC" x="64.5" y="192.5" width="16" height="16"></rect>
                    <rect id="Rectangle-path" fill="#CCCCCC" x="64.5" y="176.5" width="16" height="16"></rect>
                    <rect id="Rectangle-path" fill="#CCCCCC" x="64.5" y="160.5" width="16" height="16"></rect>
                    <rect id="Rectangle-path" fill="#CCCCCC" x="64.5" y="144.5" width="16" height="16"></rect>
                    <rect id="Rectangle-path" fill="#CCCCCC" x="64.5" y="128.5" width="16" height="16"></rect>
                    <rect id="Rectangle-path" fill="#CCCCCC" x="64.5" y="112.5" width="16" height="16"></rect>
                    <rect id="Rectangle-path" fill="#CCCCCC" x="64.5" y="96.5" width="16" height="16"></rect>
                    <rect id="Rectangle-path" fill="#CCCCCC" x="64.5" y="80.5" width="16" height="16"></rect>
                    <rect id="Rectangle-path" fill="#CCCCCC" x="64.5" y="64.5" width="16" height="16"></rect>
                    <rect id="Rectangle-path" fill="#CCCCCC" x="64.5" y="48.5" width="16" height="16"></rect>
                    <rect id="Rectangle-path" fill="#CCCCCC" x="64.5" y="32.5" width="16" height="16"></rect>
                    <rect id="Rectangle-path" fill="#CCCCCC" x="64.5" y="16.5" width="16" height="16"></rect>
                    <rect id="Rectangle-path" fill="#CCCCCC" x="64.5" y="0.5" width="16" height="16"></rect>
                    <rect id="Rectangle-path" fill="#CCCCCC" x="48.5" y="208.5" width="16" height="16"></rect>
                    <rect id="Rectangle-path" fill="#CCCCCC" x="48.5" y="192.5" width="16" height="16"></rect>
                    <rect id="Rectangle-path" fill="#CCCCCC" x="48.5" y="176.5" width="16" height="16"></rect>
                    <rect id="Rectangle-path" fill="#CCCCCC" x="48.5" y="160.5" width="16" height="16"></rect>
                    <rect id="Rectangle-path" fill="#CCCCCC" x="48.5" y="144.5" width="16" height="16"></rect>
                    <rect id="Rectangle-path" fill="#CCCCCC" x="48.5" y="128.5" width="16" height="16"></rect>
                    <rect id="Rectangle-path" fill="#CCCCCC" x="48.5" y="112.5" width="16" height="16"></rect>
                    <rect id="Rectangle-path" fill="#CCCCCC" x="48.5" y="96.5" width="16" height="16"></rect>
                    <rect id="Rectangle-path" fill="#CCCCCC" x="48.5" y="80.5" width="16" height="16"></rect>
                    <rect id="Rectangle-path" fill="#CCCCCC" x="48.5" y="64.5" width="16" height="16"></rect>
                    <rect id="Rectangle-path" fill="#CCCCCC" x="48.5" y="16.5" width="16" height="16"></rect>
                    <rect id="Rectangle-path" fill="#CCCCCC" x="32.5" y="208.5" width="16" height="16"></rect>
                    <rect id="Rectangle-path" fill="#CCCCCC" x="32.5" y="192.5" width="16" height="16"></rect>
                    <rect id="Rectangle-path" fill="#CCCCCC" x="32.5" y="176.5" width="16" height="16"></rect>
                    <rect id="Rectangle-path" fill="#CCCCCC" x="32.5" y="160.5" width="16" height="16"></rect>
                    <rect id="Rectangle-path" fill="#CCCCCC" x="32.5" y="144.5" width="16" height="16"></rect>
                    <rect id="Rectangle-path" fill="#CCCCCC" x="32.5" y="128.5" width="16" height="16"></rect>
                    <rect id="Rectangle-path" fill="#CCCCCC" x="32.5" y="112.5" width="16" height="16"></rect>
                    <rect id="Rectangle-path" fill="#CCCCCC" x="32.5" y="96.5" width="16" height="16"></rect>
                    <rect id="Rectangle-path" fill="#CCCCCC" x="32.5" y="80.5" width="16" height="16"></rect>
                    <rect id="Rectangle-path" fill="#CCCCCC" x="32.5" y="64.5" width="16" height="16"></rect>
                    <rect id="Rectangle-path" fill="#CCCCCC" x="16.5" y="208.5" width="16" height="16"></rect>
                    <rect id="Rectangle-path" fill="#CCCCCC" x="16.5" y="192.5" width="16" height="16"></rect>
                    <rect id="Rectangle-path" fill="#CCCCCC" x="16.5" y="176.5" width="16" height="16"></rect>
                    <rect id="Rectangle-path" fill="#CCCCCC" x="16.5" y="160.5" width="16" height="16"></rect>
                    <rect id="Rectangle-path" fill="#CCCCCC" x="16.5" y="144.5" width="16" height="16"></rect>
                    <rect id="Rectangle-path" fill="#CCCCCC" x="16.5" y="128.5" width="16" height="16"></rect>
                    <rect id="Rectangle-path" fill="#CCCCCC" x="16.5" y="112.5" width="16" height="16"></rect>
                    <rect id="Rectangle-path" fill="#CCCCCC" x="16.5" y="96.5" width="16" height="16"></rect>
                    <rect id="Rectangle-path" fill="#CCCCCC" x="16.5" y="80.5" width="16" height="16"></rect>
                    <rect id="Rectangle-path" fill="#CCCCCC" x="0.5" y="208.5" width="16" height="16"></rect>
                    <rect id="Rectangle-path" fill="#CCCCCC" x="0.5" y="192.5" width="16" height="16"></rect>
                    <rect id="Rectangle-path" fill="#CCCCCC" x="0.5" y="176.5" width="16" height="16"></rect>
                    <rect id="Rectangle-path" fill="#CCCCCC" x="0.5" y="160.5" width="16" height="16"></rect>
                    <rect id="Rectangle-path" fill="#CCCCCC" x="0.5" y="144.5" width="16" height="16"></rect>
                    <rect id="Rectangle-path" fill="#CCCCCC" x="0.5" y="128.5" width="16" height="16"></rect>
                    <rect id="Rectangle-path" fill="#CCCCCC" x="0.5" y="112.5" width="16" height="16"></rect>
                    <rect id="Rectangle-path" fill="#CCCCCC" x="0.5" y="96.5" width="16" height="16"></rect>
                </g>
            </g>
        </g>
    </g>
</svg>