<?xml version="1.0" encoding="utf-8"?>
<!-- Generator: Adobe Illustrator 18.1.1, SVG Export Plug-In . SVG Version: 6.00 Build 0)  -->
<!DOCTYPE svg PUBLIC "-//W3C//DTD SVG 1.1//EN" "http://www.w3.org/Graphics/SVG/1.1/DTD/svg11.dtd">
<svg version="1.1" id="Moon" xmlns="http://www.w3.org/2000/svg" xmlns:xlink="http://www.w3.org/1999/xlink" x="0px" y="0px"
	 viewBox="0 0 612 792" enable-background="new 0 0 612 792" xml:space="preserve">
<rect x="104.2" y="432.7" fill="#F7F7F5" width="24.5" height="24.5"/>
<rect x="128.7" y="383.8" fill="#EAEAE5" width="24.5" height="24.5"/>
<rect x="153.2" y="383.8" fill="#F7F7F5" width="24.5" height="24.5"/>
<rect x="128.7" y="408.2" fill="#F7F7F5" width="24.5" height="24.5"/>
<rect x="104.2" y="383.8" fill="#EAEAE5" width="24.5" height="24.5"/>
<rect x="104.2" y="408.2" fill="#EAEAE5" width="24.5" height="24.5"/>
<rect x="177.7" y="359.3" fill="#F7F7F5" width="24.5" height="24.5"/>
<rect x="153.2" y="359.3" fill="#EAEAE5" width="24.5" height="24.5"/>
<rect x="202" y="334.8" fill="#F7F7F5" width="24.5" height="24.5"/>
<rect x="177.7" y="334.8" fill="#EAEAE5" width="24.5" height="24.5"/>
<rect x="153.2" y="334.8" fill="#EAEAE5" width="24.5" height="24.5"/>
<rect x="128.7" y="359.3" fill="#EAEAE5" width="24.5" height="24.5"/>
<rect x="104.2" y="359.3" fill="#EAEAE5" width="24.5" height="24.5"/>
<rect x="128.7" y="334.8" fill="#EAEAE5" width="24.5" height="24.5"/>
<rect x="128.7" y="310.3" fill="#F7F7F5" width="24.5" height="24.5"/>
<rect x="202" y="310.3" fill="#EAEAE5" width="24.5" height="24.5"/>
<rect x="177.6" y="310.3" fill="#EAEAE5" width="24.5" height="24.5"/>
<rect x="153.2" y="310.3" fill="#EAEAE5" width="24.5" height="24.5"/>
<rect x="226.5" y="310.3" fill="#F7F7F5" width="24.5" height="24.5"/>
<rect x="104.2" y="334.8" fill="#F7F7F5" width="24.5" height="24.5"/>
<rect x="104.2" y="310.3" fill="#F7F7F5" width="24.5" height="24.5"/>
<rect x="79.8" y="334.8" fill="#F7F7F5" width="24.5" height="24.5"/>
<rect x="79.8" y="310.3" fill="#F7F7F5" width="24.5" height="24.5"/>
<rect x="79.8" y="285.8" fill="#F7F7F5" width="24.5" height="24.5"/>
<rect x="104.2" y="285.8" fill="#F7F7F5" width="24.5" height="24.5"/>
<rect x="56" y="310.3" fill="#F7F7F5" width="24.5" height="24.5"/>
<rect x="56" y="285.8" fill="#F7F7F5" width="24.5" height="24.5"/>
<rect x="79.8" y="408.2" fill="#EAEAE5" width="24.5" height="24.5"/>
<rect x="79.8" y="383.8" fill="#EAEAE5" width="24.5" height="24.5"/>
<rect x="202" y="285.8" fill="#EAEAE5" width="24.5" height="24.5"/>
<rect x="177.6" y="285.8" fill="#EAEAE5" width="24.5" height="24.5"/>
<rect x="275.5" y="261.4" fill="#F7F7F5" width="24.5" height="24.5"/>
<rect x="251" y="285.8" fill="#F7F7F5" width="24.5" height="24.5"/>
<rect x="300" y="236.9" fill="#F7F7F5" width="24.5" height="24.5"/>
<rect x="324.3" y="212.4" fill="#F7F7F5" width="24.5" height="24.5"/>
<rect x="348.8" y="187.9" fill="#F7F7F5" width="24.5" height="24.5"/>
<rect x="226.5" y="285.8" fill="#EAEAE5" width="24.5" height="24.5"/>
<rect x="251" y="261.4" fill="#EAEAE5" width="24.5" height="24.5"/>
<rect x="275.5" y="236.9" fill="#EAEAE5" width="24.5" height="24.5"/>
<rect x="300" y="212.4" fill="#EAEAE5" width="24.5" height="24.5"/>
<rect x="324.3" y="187.9" fill="#EAEAE5" width="24.5" height="24.5"/>
<rect x="202" y="261.4" fill="#EAEAE5" width="24.5" height="24.5"/>
<rect x="226.5" y="261.4" fill="#EAEAE5" width="24.5" height="24.5"/>
<rect x="226.5" y="236.9" fill="#EAEAE5" width="24.5" height="24.5"/>
<rect x="251" y="236.9" fill="#EAEAE5" width="24.5" height="24.5"/>
<rect x="251" y="212.4" fill="#EAEAE5" width="24.5" height="24.5"/>
<rect x="275.5" y="212.4" fill="#EAEAE5" width="24.5" height="24.5"/>
<rect x="275.5" y="187.9" fill="#EAEAE5" width="24.5" height="24.5"/>
<rect x="300" y="187.9" fill="#EAEAE5" width="24.5" height="24.5"/>
<rect x="324.4" y="163.4" fill="#EAEAE5" width="24.5" height="24.5"/>
<rect x="300" y="163.4" fill="#EAEAE5" width="24.5" height="24.5"/>
<rect x="128.7" y="285.8" fill="#F7F7F5" width="24.5" height="24.5"/>
<rect x="153.2" y="285.8" fill="#F7F7F5" width="24.5" height="24.5"/>
<rect x="177.7" y="260.4" fill="#F7F7F5" width="24.5" height="24.5"/>
<rect x="153.2" y="261.4" fill="#F7F7F5" width="24.5" height="24.5"/>
<rect x="202" y="237.3" fill="#F7F7F5" width="24.5" height="24.5"/>
<rect x="226.5" y="212.4" fill="#F7F7F5" width="24.5" height="24.5"/>
<rect x="251" y="187.9" fill="#F7F7F5" width="24.5" height="24.5"/>
<rect x="226.5" y="187.9" fill="#F7F7F5" width="24.5" height="24.5"/>
<rect x="202" y="212.8" fill="#F7F7F5" width="24.5" height="24.5"/>
<rect x="177.6" y="235.9" fill="#F7F7F5" width="24.5" height="24.5"/>
<rect x="251" y="163.4" fill="#F7F7F5" width="24.5" height="24.5"/>
<rect x="226.5" y="163.4" fill="#F7F7F5" width="24.5" height="24.5"/>
<rect x="202" y="188.4" fill="#F7F7F5" width="24.5" height="24.5"/>
<rect x="177.7" y="188.4" fill="#F7F7F5" width="24.5" height="24.5"/>
<rect x="177.6" y="211.4" fill="#F7F7F5" width="24.5" height="24.5"/>
<rect x="226.5" y="139" fill="#F7F7F5" width="24.5" height="24.5"/>
<rect x="202" y="139.4" fill="#F7F7F5" width="24.5" height="24.5"/>
<rect x="202" y="163.9" fill="#F7F7F5" width="24.5" height="24.5"/>
<rect x="153.2" y="236.9" fill="#F7F7F5" width="24.5" height="24.5"/>
<rect x="153.2" y="212.4" fill="#F7F7F5" width="24.5" height="24.5"/>
<rect x="128.7" y="261.4" fill="#F7F7F5" width="24.5" height="24.5"/>
<rect x="128.7" y="236.9" fill="#F7F7F5" width="24.5" height="24.5"/>
<rect x="104.2" y="261.4" fill="#F7F7F5" width="24.5" height="24.5"/>
<rect x="79.8" y="261.4" fill="#F7F7F5" width="24.5" height="24.5"/>
<rect x="177.7" y="163.4" fill="#F7F7F5" width="24.5" height="24.5"/>
<rect x="104.2" y="236.9" fill="#F7F7F5" width="24.5" height="24.5"/>
<rect x="128.7" y="212.8" fill="#F7F7F5" width="24.5" height="24.5"/>
<rect x="153.2" y="188.4" fill="#F7F7F5" width="24.5" height="24.5"/>
<rect x="79.8" y="236.9" fill="#F7F7F5" width="24.5" height="24.5"/>
<rect x="104.2" y="212.4" fill="#F7F7F5" width="24.5" height="24.5"/>
<rect x="128.7" y="187.9" fill="#F7F7F5" width="24.5" height="24.5"/>
<rect x="153.2" y="163.4" fill="#F7F7F5" width="24.5" height="24.5"/>
<rect x="79.8" y="212.4" fill="#F7F7F5" width="24.5" height="24.5"/>
<rect x="56" y="237.3" fill="#F7F7F5" width="24.5" height="24.5"/>
<rect x="104.2" y="187.8" fill="#F7F7F5" width="24.5" height="24.5"/>
<rect x="128.7" y="163.3" fill="#F7F7F5" width="24.5" height="24.5"/>
<rect x="153.2" y="139" fill="#F7F7F5" width="24.5" height="24.5"/>
<rect x="54.9" y="212.1" fill="#F7F7F5" width="24.5" height="24.5"/>
<rect x="79.4" y="187.5" fill="#F7F7F5" width="24.5" height="24.5"/>
<rect x="103.8" y="163" fill="#F7F7F5" width="24.5" height="24.5"/>
<rect x="128.3" y="138.6" fill="#F7F7F5" width="24.5" height="24.5"/>
<rect x="31.2" y="211.8" fill="#F7F7F5" width="24.5" height="24.5"/>
<rect x="55.7" y="187.2" fill="#F7F7F5" width="24.5" height="24.5"/>
<rect x="80.1" y="162.7" fill="#F7F7F5" width="24.5" height="24.5"/>
<rect x="104.6" y="138.3" fill="#F7F7F5" width="24.5" height="24.5"/>
<rect x="7.3" y="211.5" fill="#F7F7F5" width="24.5" height="24.5"/>
<rect x="7.5" y="187.2" fill="#F7F7F5" width="24.5" height="24.5"/>
<rect x="30.8" y="186.9" fill="#F7F7F5" width="24.5" height="24.5"/>
<rect x="55.3" y="162.4" fill="#F7F7F5" width="24.5" height="24.5"/>
<rect x="79.8" y="138" fill="#F7F7F5" width="24.5" height="24.5"/>
<rect x="55.5" y="138.5" fill="#F7F7F5" width="24.5" height="24.5"/>
<rect x="30.8" y="162.4" fill="#F7F7F5" width="24.5" height="24.5"/>
<rect x="30.8" y="137.5" fill="#F7F7F5" width="24.5" height="24.5"/>
<rect x="7.5" y="162.4" fill="#F7F7F5" width="24.5" height="24.5"/>
<rect x="7.5" y="137.5" fill="#F7F7F5" width="24.5" height="24.5"/>
<rect x="7.5" y="113.5" fill="#F7F7F5" width="24.5" height="24.5"/>
<rect x="31.2" y="113.5" fill="#F7F7F5" width="24.5" height="24.5"/>
</svg>
