<?xml version="1.0" encoding="utf-8"?>
<!-- Generator: Adobe Illustrator 18.1.1, SVG Export Plug-In . SVG Version: 6.00 Build 0)  -->
<!DOCTYPE svg PUBLIC "-//W3C//DTD SVG 1.1//EN" "http://www.w3.org/Graphics/SVG/1.1/DTD/svg11.dtd">
<svg version="1.1" id="Layer_1" xmlns="http://www.w3.org/2000/svg" xmlns:xlink="http://www.w3.org/1999/xlink" x="0px" y="0px"
	 viewBox="0 0 612 792" enable-background="new 0 0 612 792" xml:space="preserve">
<g id="Layer_1_1_" display="none">
	<g display="inline">
		<g id="XMLID_1_">
			<g>
				<rect x="366.4" y="458" fill="#808080" width="24.5" height="24.5"/>
				<rect x="366.4" y="433.5" fill="#808080" width="24.5" height="24.5"/>
				<rect x="366.4" y="409" fill="#808080" width="24.5" height="24.5"/>
				<rect x="366.4" y="384.5" fill="#808080" width="24.5" height="24.5"/>
				<rect x="366.4" y="360" fill="#808080" width="24.5" height="24.5"/>
				<rect x="366.4" y="335.6" fill="#808080" width="24.5" height="24.5"/>
				<rect x="366.4" y="311.1" fill="#808080" width="24.5" height="24.5"/>
				<rect x="366.4" y="286.6" fill="#808080" width="24.5" height="24.5"/>
				<rect x="342" y="458" fill="#CCCCCC" width="24.5" height="24.5"/>
				<rect x="342" y="433.5" fill="#CCCCCC" width="24.5" height="24.5"/>
				<rect x="342" y="409" fill="#CCCCCC" width="24.5" height="24.5"/>
				<rect x="342" y="384.5" fill="#CCCCCC" width="24.5" height="24.5"/>
				<rect x="342" y="360" fill="#CCCCCC" width="24.5" height="24.5"/>
				<rect x="342" y="335.6" fill="#CCCCCC" width="24.5" height="24.5"/>
				<rect x="342" y="311.1" fill="#CCCCCC" width="24.5" height="24.5"/>
				<rect x="342" y="286.6" fill="#CCCCCC" width="24.5" height="24.5"/>
				<rect x="342" y="262.1" fill="#808080" width="24.5" height="24.5"/>
				<rect x="317.5" y="458" fill="#CCCCCC" width="24.5" height="24.5"/>
				<rect x="317.5" y="433.5" fill="#CCCCCC" width="24.5" height="24.5"/>
				<rect x="317.5" y="409" fill="#CCCCCC" width="24.5" height="24.5"/>
				<rect x="317.5" y="384.5" fill="#CCCCCC" width="24.5" height="24.5"/>
				<rect x="317.5" y="360" fill="#CCCCCC" width="24.5" height="24.5"/>
				<rect x="317.5" y="335.6" fill="#CCCCCC" width="24.5" height="24.5"/>
				<rect x="317.5" y="311.1" fill="#CCCCCC" width="24.5" height="24.5"/>
				<rect x="317.5" y="286.6" fill="#CCCCCC" width="24.5" height="24.5"/>
				<rect x="317.5" y="262.1" fill="#CCCCCC" width="24.5" height="24.5"/>
				<rect x="317.5" y="237.6" fill="#808080" width="24.5" height="24.5"/>
				<rect x="293" y="458" fill="#CCCCCC" width="24.5" height="24.5"/>
				<rect x="293" y="433.5" fill="#CCCCCC" width="24.5" height="24.5"/>
				<rect x="293" y="409" fill="#CCCCCC" width="24.5" height="24.5"/>
				<rect x="293" y="384.5" fill="#CCCCCC" width="24.5" height="24.5"/>
				<rect x="293" y="360" fill="#CCCCCC" width="24.5" height="24.5"/>
				<rect x="293" y="335.6" fill="#CCCCCC" width="24.5" height="24.5"/>
				<rect x="293" y="311.1" fill="#CCCCCC" width="24.5" height="24.5"/>
				<rect x="293" y="286.6" fill="#CCCCCC" width="24.5" height="24.5"/>
				<rect x="293" y="262.1" fill="#CCCCCC" width="24.5" height="24.5"/>
				<rect x="293" y="237.6" fill="#CCCCCC" width="24.5" height="24.5"/>
				<rect x="268.5" y="458" fill="#CCCCCC" width="24.5" height="24.5"/>
				<rect x="268.5" y="433.5" fill="#CCCCCC" width="24.5" height="24.5"/>
				<rect x="268.5" y="409" fill="#CCCCCC" width="24.5" height="24.5"/>
				<rect x="268.5" y="384.5" fill="#CCCCCC" width="24.5" height="24.5"/>
				<rect x="268.5" y="360" fill="#CCCCCC" width="24.5" height="24.5"/>
				<rect x="268.5" y="335.6" fill="#CCCCCC" width="24.5" height="24.5"/>
				<rect x="268.5" y="311.1" fill="#CCCCCC" width="24.5" height="24.5"/>
				<rect x="268.5" y="286.6" fill="#CCCCCC" width="24.5" height="24.5"/>
				<rect x="268.5" y="262.1" fill="#CCCCCC" width="24.5" height="24.5"/>
				<rect x="268.5" y="237.6" fill="#CCCCCC" width="24.5" height="24.5"/>
				<rect x="268.5" y="164.2" fill="#CCCCCC" width="24.5" height="24.5"/>
				<rect x="244" y="458" fill="#CCCCCC" width="24.5" height="24.5"/>
				<rect x="244" y="433.5" fill="#CCCCCC" width="24.5" height="24.5"/>
				<rect x="244" y="409" fill="#CCCCCC" width="24.5" height="24.5"/>
				<rect x="244" y="384.5" fill="#CCCCCC" width="24.5" height="24.5"/>
				<rect x="244" y="360" fill="#CCCCCC" width="24.5" height="24.5"/>
				<rect x="244" y="335.6" fill="#CCCCCC" width="24.5" height="24.5"/>
				<rect x="244" y="311.1" fill="#CCCCCC" width="24.5" height="24.5"/>
				<rect x="244" y="286.6" fill="#CCCCCC" width="24.5" height="24.5"/>
				<rect x="244" y="262.1" fill="#CCCCCC" width="24.5" height="24.5"/>
				<rect x="244" y="237.6" fill="#CCCCCC" width="24.5" height="24.5"/>
				<rect x="244" y="213.2" fill="#CCCCCC" width="24.5" height="24.5"/>
				<rect x="244" y="188.7" fill="#CCCCCC" width="24.5" height="24.5"/>
				<rect x="244" y="164.2" fill="#CCCCCC" width="24.5" height="24.5"/>
				<rect x="244" y="139.7" fill="#CCCCCC" width="24.5" height="24.5"/>
				<rect x="219.6" y="458" fill="#CCCCCC" width="24.5" height="24.5"/>
				<rect x="219.6" y="433.5" fill="#CCCCCC" width="24.5" height="24.5"/>
				<rect x="219.6" y="409" fill="#CCCCCC" width="24.5" height="24.5"/>
				<rect x="219.6" y="384.5" fill="#CCCCCC" width="24.5" height="24.5"/>
				<rect x="219.6" y="360" fill="#CCCCCC" width="24.5" height="24.5"/>
				<rect x="219.6" y="335.6" fill="#CCCCCC" width="24.5" height="24.5"/>
				<rect x="219.6" y="311.1" fill="#CCCCCC" width="24.5" height="24.5"/>
				<rect x="219.6" y="286.6" fill="#CCCCCC" width="24.5" height="24.5"/>
				<rect x="219.6" y="262.1" fill="#CCCCCC" width="24.5" height="24.5"/>
				<rect x="219.6" y="237.6" fill="#CCCCCC" width="24.5" height="24.5"/>
				<rect x="219.6" y="164.2" fill="#CCCCCC" width="24.5" height="24.5"/>
				<rect x="195.1" y="458" fill="#CCCCCC" width="24.5" height="24.5"/>
				<rect x="195.1" y="433.5" fill="#CCCCCC" width="24.5" height="24.5"/>
				<rect x="195.1" y="409" fill="#CCCCCC" width="24.5" height="24.5"/>
				<rect x="195.1" y="384.5" fill="#CCCCCC" width="24.5" height="24.5"/>
				<rect x="195.1" y="360" fill="#CCCCCC" width="24.5" height="24.5"/>
				<rect x="195.1" y="335.6" fill="#CCCCCC" width="24.5" height="24.5"/>
				<rect x="195.1" y="311.1" fill="#CCCCCC" width="24.5" height="24.5"/>
				<rect x="195.1" y="286.6" fill="#CCCCCC" width="24.5" height="24.5"/>
				<rect x="195.1" y="262.1" fill="#CCCCCC" width="24.5" height="24.5"/>
				<rect x="195.1" y="237.6" fill="#CCCCCC" width="24.5" height="24.5"/>
				<rect x="170.6" y="458" fill="#CCCCCC" width="24.5" height="24.5"/>
				<rect x="170.6" y="433.5" fill="#CCCCCC" width="24.5" height="24.5"/>
				<rect x="170.6" y="409" fill="#CCCCCC" width="24.5" height="24.5"/>
				<rect x="170.6" y="384.5" fill="#CCCCCC" width="24.5" height="24.5"/>
				<rect x="170.6" y="360" fill="#CCCCCC" width="24.5" height="24.5"/>
				<rect x="170.6" y="335.6" fill="#CCCCCC" width="24.5" height="24.5"/>
				<rect x="170.6" y="311.1" fill="#CCCCCC" width="24.5" height="24.5"/>
				<rect x="170.6" y="286.6" fill="#CCCCCC" width="24.5" height="24.5"/>
				<rect x="170.6" y="262.1" fill="#CCCCCC" width="24.5" height="24.5"/>
				<rect x="146.1" y="458" fill="#CCCCCC" width="24.5" height="24.5"/>
				<rect x="146.1" y="433.5" fill="#CCCCCC" width="24.5" height="24.5"/>
				<rect x="146.1" y="409" fill="#CCCCCC" width="24.5" height="24.5"/>
				<rect x="146.1" y="384.5" fill="#CCCCCC" width="24.5" height="24.5"/>
				<rect x="146.1" y="360" fill="#CCCCCC" width="24.5" height="24.5"/>
				<rect x="146.1" y="335.6" fill="#CCCCCC" width="24.5" height="24.5"/>
				<rect x="146.1" y="311.1" fill="#CCCCCC" width="24.5" height="24.5"/>
				<rect x="146.1" y="286.6" fill="#CCCCCC" width="24.5" height="24.5"/>
			</g>
			<g>
				<polygon fill="none" stroke="#000000" stroke-miterlimit="10" points="-0.8,115.2 -0.8,90.8 23.7,90.8 48.2,90.8 72.7,90.8 
					97.2,90.8 121.6,90.8 146.1,90.8 170.6,90.8 195.1,90.8 219.6,90.8 244,90.8 268.5,90.8 293,90.8 317.5,90.8 342,90.8 
					366.4,90.8 390.9,90.8 415.4,90.8 439.9,90.8 464.4,90.8 488.8,90.8 513.3,90.8 537.8,90.8 562.3,90.8 586.8,90.8 611.2,90.8 
					611.2,115.2 611.2,139.7 611.2,164.2 611.2,188.7 611.2,213.2 611.2,237.6 611.2,262.1 611.2,286.6 611.2,311.1 611.2,335.6 
					611.2,360 611.2,384.5 611.2,409 611.2,433.5 611.2,458 611.2,482.4 611.2,506.9 611.2,531.4 611.2,555.9 611.2,580.4 
					611.2,604.8 611.2,629.3 611.2,653.8 611.2,678.3 611.2,702.8 586.8,702.8 562.3,702.8 537.8,702.8 513.3,702.8 488.8,702.8 
					464.4,702.8 439.9,702.8 415.4,702.8 390.9,702.8 366.4,702.8 342,702.8 317.5,702.8 293,702.8 268.5,702.8 244,702.8 
					219.6,702.8 195.1,702.8 170.6,702.8 146.1,702.8 121.6,702.8 97.2,702.8 72.7,702.8 48.2,702.8 23.7,702.8 -0.8,702.8 
					-0.8,678.3 -0.8,653.8 -0.8,629.3 -0.8,604.8 -0.8,580.4 -0.8,555.9 -0.8,531.4 -0.8,506.9 -0.8,482.4 -0.8,458 -0.8,433.5 
					-0.8,409 -0.8,384.5 -0.8,360 -0.8,335.6 -0.8,311.1 -0.8,286.6 -0.8,262.1 -0.8,237.6 -0.8,213.2 -0.8,188.7 -0.8,164.2 
					-0.8,139.7 				"/>
				<polyline fill="none" stroke="#000000" stroke-miterlimit="10" points="0,678.3 23.7,678.3 48.2,678.3 72.7,678.3 97.2,678.3 
					121.6,678.3 146.1,678.3 170.6,678.3 195.1,678.3 219.6,678.3 244,678.3 268.5,678.3 293,678.3 317.5,678.3 342,678.3 
					366.4,678.3 390.9,678.3 415.4,678.3 439.9,678.3 464.4,678.3 488.8,678.3 513.3,678.3 537.8,678.3 562.3,678.3 586.8,678.3 
					611.2,678.3 612,678.3 				"/>
				<polyline fill="none" stroke="#000000" stroke-miterlimit="10" points="0,653.8 23.7,653.8 48.2,653.8 72.7,653.8 97.2,653.8 
					121.6,653.8 146.1,653.8 170.6,653.8 195.1,653.8 219.6,653.8 244,653.8 268.5,653.8 293,653.8 317.5,653.8 342,653.8 
					366.4,653.8 390.9,653.8 415.4,653.8 439.9,653.8 464.4,653.8 488.8,653.8 513.3,653.8 537.8,653.8 562.3,653.8 586.8,653.8 
					611.2,653.8 612,653.8 				"/>
				<polyline fill="none" stroke="#000000" stroke-miterlimit="10" points="0,629.3 23.7,629.3 48.2,629.3 72.7,629.3 97.2,629.3 
					121.6,629.3 146.1,629.3 170.6,629.3 195.1,629.3 219.6,629.3 244,629.3 268.5,629.3 293,629.3 317.5,629.3 342,629.3 
					366.4,629.3 390.9,629.3 415.4,629.3 439.9,629.3 464.4,629.3 488.8,629.3 513.3,629.3 537.8,629.3 562.3,629.3 586.8,629.3 
					611.2,629.3 612,629.3 				"/>
				<polyline fill="none" stroke="#000000" stroke-miterlimit="10" points="0,604.8 23.7,604.8 48.2,604.8 72.7,604.8 97.2,604.8 
					121.6,604.8 146.1,604.8 170.6,604.8 195.1,604.8 219.6,604.8 244,604.8 268.5,604.8 293,604.8 317.5,604.8 342,604.8 
					366.4,604.8 390.9,604.8 415.4,604.8 439.9,604.8 464.4,604.8 488.8,604.8 513.3,604.8 537.8,604.8 562.3,604.8 586.8,604.8 
					611.2,604.8 612,604.8 				"/>
				<polyline fill="none" stroke="#000000" stroke-miterlimit="10" points="0,580.4 23.7,580.4 48.2,580.4 72.7,580.4 97.2,580.4 
					121.6,580.4 146.1,580.4 170.6,580.4 195.1,580.4 219.6,580.4 244,580.4 268.5,580.4 293,580.4 317.5,580.4 342,580.4 
					366.4,580.4 390.9,580.4 415.4,580.4 439.9,580.4 464.4,580.4 488.8,580.4 513.3,580.4 537.8,580.4 562.3,580.4 586.8,580.4 
					611.2,580.4 612,580.4 				"/>
				<polyline fill="none" stroke="#000000" stroke-miterlimit="10" points="0,555.9 23.7,555.9 48.2,555.9 72.7,555.9 97.2,555.9 
					121.6,555.9 146.1,555.9 170.6,555.9 195.1,555.9 219.6,555.9 244,555.9 268.5,555.9 293,555.9 317.5,555.9 342,555.9 
					366.4,555.9 390.9,555.9 415.4,555.9 439.9,555.9 464.4,555.9 488.8,555.9 513.3,555.9 537.8,555.9 562.3,555.9 586.8,555.9 
					611.2,555.9 612,555.9 				"/>
				<polyline fill="none" stroke="#000000" stroke-miterlimit="10" points="0,531.4 23.7,531.4 48.2,531.4 72.7,531.4 97.2,531.4 
					121.6,531.4 146.1,531.4 170.6,531.4 195.1,531.4 219.6,531.4 244,531.4 268.5,531.4 293,531.4 317.5,531.4 342,531.4 
					366.4,531.4 390.9,531.4 415.4,531.4 439.9,531.4 464.4,531.4 488.8,531.4 513.3,531.4 537.8,531.4 562.3,531.4 586.8,531.4 
					611.2,531.4 612,531.4 				"/>
				<polyline fill="none" stroke="#000000" stroke-miterlimit="10" points="0,506.9 23.7,506.9 48.2,506.9 72.7,506.9 97.2,506.9 
					121.6,506.9 146.1,506.9 170.6,506.9 195.1,506.9 219.6,506.9 244,506.9 268.5,506.9 293,506.9 317.5,506.9 342,506.9 
					366.4,506.9 390.9,506.9 415.4,506.9 439.9,506.9 464.4,506.9 488.8,506.9 513.3,506.9 537.8,506.9 562.3,506.9 586.8,506.9 
					611.2,506.9 612,506.9 				"/>
				<polyline fill="none" stroke="#000000" stroke-miterlimit="10" points="0,482.4 23.7,482.4 48.2,482.4 72.7,482.4 97.2,482.4 
					121.6,482.4 146.1,482.4 170.6,482.4 195.1,482.4 219.6,482.4 244,482.4 268.5,482.4 293,482.4 317.5,482.4 342,482.4 
					366.4,482.4 390.9,482.4 415.4,482.4 439.9,482.4 464.4,482.4 488.8,482.4 513.3,482.4 537.8,482.4 562.3,482.4 586.8,482.4 
					611.2,482.4 612,482.4 				"/>
				<polyline fill="none" stroke="#000000" stroke-miterlimit="10" points="0,458 23.7,458 48.2,458 72.7,458 97.2,458 121.6,458 
					146.1,458 170.6,458 195.1,458 219.6,458 244,458 268.5,458 293,458 317.5,458 342,458 366.4,458 390.9,458 415.4,458 
					439.9,458 464.4,458 488.8,458 513.3,458 537.8,458 562.3,458 586.8,458 611.2,458 612,458 				"/>
				<polyline fill="none" stroke="#000000" stroke-miterlimit="10" points="0,433.5 23.7,433.5 48.2,433.5 72.7,433.5 97.2,433.5 
					121.6,433.5 146.1,433.5 170.6,433.5 195.1,433.5 219.6,433.5 244,433.5 268.5,433.5 293,433.5 317.5,433.5 342,433.5 
					366.4,433.5 390.9,433.5 415.4,433.5 439.9,433.5 464.4,433.5 488.8,433.5 513.3,433.5 537.8,433.5 562.3,433.5 586.8,433.5 
					611.2,433.5 612,433.5 				"/>
				<polyline fill="none" stroke="#000000" stroke-miterlimit="10" points="0,409 23.7,409 48.2,409 72.7,409 97.2,409 121.6,409 
					146.1,409 170.6,409 195.1,409 219.6,409 244,409 268.5,409 293,409 317.5,409 342,409 366.4,409 390.9,409 415.4,409 
					439.9,409 464.4,409 488.8,409 513.3,409 537.8,409 562.3,409 586.8,409 611.2,409 612,409 				"/>
				<polyline fill="none" stroke="#000000" stroke-miterlimit="10" points="0,384.5 23.7,384.5 48.2,384.5 72.7,384.5 97.2,384.5 
					121.6,384.5 146.1,384.5 170.6,384.5 195.1,384.5 219.6,384.5 244,384.5 268.5,384.5 293,384.5 317.5,384.5 342,384.5 
					366.4,384.5 390.9,384.5 415.4,384.5 439.9,384.5 464.4,384.5 488.8,384.5 513.3,384.5 537.8,384.5 562.3,384.5 586.8,384.5 
					611.2,384.5 612,384.5 				"/>
				<polyline fill="none" stroke="#000000" stroke-miterlimit="10" points="0,360 23.7,360 48.2,360 72.7,360 97.2,360 121.6,360 
					146.1,360 170.6,360 195.1,360 219.6,360 244,360 268.5,360 293,360 317.5,360 342,360 366.4,360 390.9,360 415.4,360 
					439.9,360 464.4,360 488.8,360 513.3,360 537.8,360 562.3,360 586.8,360 611.2,360 612,360 				"/>
				<polyline fill="none" stroke="#000000" stroke-miterlimit="10" points="0,335.6 23.7,335.6 48.2,335.6 72.7,335.6 97.2,335.6 
					121.6,335.6 146.1,335.6 170.6,335.6 195.1,335.6 219.6,335.6 244,335.6 268.5,335.6 293,335.6 317.5,335.6 342,335.6 
					366.4,335.6 390.9,335.6 415.4,335.6 439.9,335.6 464.4,335.6 488.8,335.6 513.3,335.6 537.8,335.6 562.3,335.6 586.8,335.6 
					611.2,335.6 612,335.6 				"/>
				<polyline fill="none" stroke="#000000" stroke-miterlimit="10" points="0,311.1 23.7,311.1 48.2,311.1 72.7,311.1 97.2,311.1 
					121.6,311.1 146.1,311.1 170.6,311.1 195.1,311.1 219.6,311.1 244,311.1 268.5,311.1 293,311.1 317.5,311.1 342,311.1 
					366.4,311.1 390.9,311.1 415.4,311.1 439.9,311.1 464.4,311.1 488.8,311.1 513.3,311.1 537.8,311.1 562.3,311.1 586.8,311.1 
					611.2,311.1 612,311.1 				"/>
				<polyline fill="none" stroke="#000000" stroke-miterlimit="10" points="0,286.6 23.7,286.6 48.2,286.6 72.7,286.6 97.2,286.6 
					121.6,286.6 146.1,286.6 170.6,286.6 195.1,286.6 219.6,286.6 244,286.6 268.5,286.6 293,286.6 317.5,286.6 342,286.6 
					366.4,286.6 390.9,286.6 415.4,286.6 439.9,286.6 464.4,286.6 488.8,286.6 513.3,286.6 537.8,286.6 562.3,286.6 586.8,286.6 
					611.2,286.6 612,286.6 				"/>
				<polyline fill="none" stroke="#000000" stroke-miterlimit="10" points="0,262.1 23.7,262.1 48.2,262.1 72.7,262.1 97.2,262.1 
					121.6,262.1 146.1,262.1 170.6,262.1 195.1,262.1 219.6,262.1 244,262.1 268.5,262.1 293,262.1 317.5,262.1 342,262.1 
					366.4,262.1 390.9,262.1 415.4,262.1 439.9,262.1 464.4,262.1 488.8,262.1 513.3,262.1 537.8,262.1 562.3,262.1 586.8,262.1 
					611.2,262.1 612,262.1 				"/>
				<polyline fill="none" stroke="#000000" stroke-miterlimit="10" points="0,237.6 23.7,237.6 48.2,237.6 72.7,237.6 97.2,237.6 
					121.6,237.6 146.1,237.6 170.6,237.6 195.1,237.6 219.6,237.6 244,237.6 268.5,237.6 293,237.6 317.5,237.6 342,237.6 
					366.4,237.6 390.9,237.6 415.4,237.6 439.9,237.6 464.4,237.6 488.8,237.6 513.3,237.6 537.8,237.6 562.3,237.6 586.8,237.6 
					611.2,237.6 612,237.6 				"/>
				<polyline fill="none" stroke="#000000" stroke-miterlimit="10" points="0,213.2 23.7,213.2 48.2,213.2 72.7,213.2 97.2,213.2 
					121.6,213.2 146.1,213.2 170.6,213.2 195.1,213.2 219.6,213.2 244,213.2 268.5,213.2 293,213.2 317.5,213.2 342,213.2 
					366.4,213.2 390.9,213.2 415.4,213.2 439.9,213.2 464.4,213.2 488.8,213.2 513.3,213.2 537.8,213.2 562.3,213.2 586.8,213.2 
					611.2,213.2 612,213.2 				"/>
				<polyline fill="none" stroke="#000000" stroke-miterlimit="10" points="0,188.7 23.7,188.7 48.2,188.7 72.7,188.7 97.2,188.7 
					121.6,188.7 146.1,188.7 170.6,188.7 195.1,188.7 219.6,188.7 244,188.7 268.5,188.7 293,188.7 317.5,188.7 342,188.7 
					366.4,188.7 390.9,188.7 415.4,188.7 439.9,188.7 464.4,188.7 488.8,188.7 513.3,188.7 537.8,188.7 562.3,188.7 586.8,188.7 
					611.2,188.7 612,188.7 				"/>
				<polyline fill="none" stroke="#000000" stroke-miterlimit="10" points="0,164.2 23.7,164.2 48.2,164.2 72.7,164.2 97.2,164.2 
					121.6,164.2 146.1,164.2 170.6,164.2 195.1,164.2 219.6,164.2 244,164.2 268.5,164.2 293,164.2 317.5,164.2 342,164.2 
					366.4,164.2 390.9,164.2 415.4,164.2 439.9,164.2 464.4,164.2 488.8,164.2 513.3,164.2 537.8,164.2 562.3,164.2 586.8,164.2 
					611.2,164.2 612,164.2 				"/>
				<polyline fill="none" stroke="#000000" stroke-miterlimit="10" points="0,139.7 23.7,139.7 48.2,139.7 72.7,139.7 97.2,139.7 
					121.6,139.7 146.1,139.7 170.6,139.7 195.1,139.7 219.6,139.7 244,139.7 268.5,139.7 293,139.7 317.5,139.7 342,139.7 
					366.4,139.7 390.9,139.7 415.4,139.7 439.9,139.7 464.4,139.7 488.8,139.7 513.3,139.7 537.8,139.7 562.3,139.7 586.8,139.7 
					611.2,139.7 612,139.7 				"/>
				<polyline fill="none" stroke="#000000" stroke-miterlimit="10" points="0,115.2 23.7,115.2 48.2,115.2 72.7,115.2 97.2,115.2 
					121.6,115.2 146.1,115.2 170.6,115.2 195.1,115.2 219.6,115.2 244,115.2 268.5,115.2 293,115.2 317.5,115.2 342,115.2 
					366.4,115.2 390.9,115.2 415.4,115.2 439.9,115.2 464.4,115.2 488.8,115.2 513.3,115.2 537.8,115.2 562.3,115.2 586.8,115.2 
					611.2,115.2 612,115.2 				"/>
				<polyline fill="none" stroke="#000000" stroke-miterlimit="10" points="586.8,90 586.8,90.8 586.8,115.2 586.8,139.7 
					586.8,164.2 586.8,188.7 586.8,213.2 586.8,237.6 586.8,262.1 586.8,286.6 586.8,311.1 586.8,335.6 586.8,360 586.8,384.5 
					586.8,409 586.8,433.5 586.8,458 586.8,482.4 586.8,506.9 586.8,531.4 586.8,555.9 586.8,580.4 586.8,604.8 586.8,629.3 
					586.8,653.8 586.8,678.3 586.8,702 				"/>
				<polyline fill="none" stroke="#000000" stroke-miterlimit="10" points="562.3,90 562.3,90.8 562.3,115.2 562.3,139.7 
					562.3,164.2 562.3,188.7 562.3,213.2 562.3,237.6 562.3,262.1 562.3,286.6 562.3,311.1 562.3,335.6 562.3,360 562.3,384.5 
					562.3,409 562.3,433.5 562.3,458 562.3,482.4 562.3,506.9 562.3,531.4 562.3,555.9 562.3,580.4 562.3,604.8 562.3,629.3 
					562.3,653.8 562.3,678.3 562.3,702 				"/>
				<polyline fill="none" stroke="#000000" stroke-miterlimit="10" points="537.8,90 537.8,90.8 537.8,115.2 537.8,139.7 
					537.8,164.2 537.8,188.7 537.8,213.2 537.8,237.6 537.8,262.1 537.8,286.6 537.8,311.1 537.8,335.6 537.8,360 537.8,384.5 
					537.8,409 537.8,433.5 537.8,458 537.8,482.4 537.8,506.9 537.8,531.4 537.8,555.9 537.8,580.4 537.8,604.8 537.8,629.3 
					537.8,653.8 537.8,678.3 537.8,702 				"/>
				<polyline fill="none" stroke="#000000" stroke-miterlimit="10" points="513.3,90 513.3,90.8 513.3,115.2 513.3,139.7 
					513.3,164.2 513.3,188.7 513.3,213.2 513.3,237.6 513.3,262.1 513.3,286.6 513.3,311.1 513.3,335.6 513.3,360 513.3,384.5 
					513.3,409 513.3,433.5 513.3,458 513.3,482.4 513.3,506.9 513.3,531.4 513.3,555.9 513.3,580.4 513.3,604.8 513.3,629.3 
					513.3,653.8 513.3,678.3 513.3,702 				"/>
				<polyline fill="none" stroke="#000000" stroke-miterlimit="10" points="488.8,90 488.8,90.8 488.8,115.2 488.8,139.7 
					488.8,164.2 488.8,188.7 488.8,213.2 488.8,237.6 488.8,262.1 488.8,286.6 488.8,311.1 488.8,335.6 488.8,360 488.8,384.5 
					488.8,409 488.8,433.5 488.8,458 488.8,482.4 488.8,506.9 488.8,531.4 488.8,555.9 488.8,580.4 488.8,604.8 488.8,629.3 
					488.8,653.8 488.8,678.3 488.8,702 				"/>
				<polyline fill="none" stroke="#000000" stroke-miterlimit="10" points="464.4,90 464.4,90.8 464.4,115.2 464.4,139.7 
					464.4,164.2 464.4,188.7 464.4,213.2 464.4,237.6 464.4,262.1 464.4,286.6 464.4,311.1 464.4,335.6 464.4,360 464.4,384.5 
					464.4,409 464.4,433.5 464.4,458 464.4,482.4 464.4,506.9 464.4,531.4 464.4,555.9 464.4,580.4 464.4,604.8 464.4,629.3 
					464.4,653.8 464.4,678.3 464.4,702 				"/>
				<polyline fill="none" stroke="#000000" stroke-miterlimit="10" points="439.9,90 439.9,90.8 439.9,115.2 439.9,139.7 
					439.9,164.2 439.9,188.7 439.9,213.2 439.9,237.6 439.9,262.1 439.9,286.6 439.9,311.1 439.9,335.6 439.9,360 439.9,384.5 
					439.9,409 439.9,433.5 439.9,458 439.9,482.4 439.9,506.9 439.9,531.4 439.9,555.9 439.9,580.4 439.9,604.8 439.9,629.3 
					439.9,653.8 439.9,678.3 439.9,702 				"/>
				<polyline fill="none" stroke="#000000" stroke-miterlimit="10" points="415.4,90 415.4,90.8 415.4,115.2 415.4,139.7 
					415.4,164.2 415.4,188.7 415.4,213.2 415.4,237.6 415.4,262.1 415.4,286.6 415.4,311.1 415.4,335.6 415.4,360 415.4,384.5 
					415.4,409 415.4,433.5 415.4,458 415.4,482.4 415.4,506.9 415.4,531.4 415.4,555.9 415.4,580.4 415.4,604.8 415.4,629.3 
					415.4,653.8 415.4,678.3 415.4,702 				"/>
				<polyline fill="none" stroke="#000000" stroke-miterlimit="10" points="390.9,90 390.9,90.8 390.9,115.2 390.9,139.7 
					390.9,164.2 390.9,188.7 390.9,213.2 390.9,237.6 390.9,262.1 390.9,286.6 390.9,311.1 390.9,335.6 390.9,360 390.9,384.5 
					390.9,409 390.9,433.5 390.9,458 390.9,482.4 390.9,506.9 390.9,531.4 390.9,555.9 390.9,580.4 390.9,604.8 390.9,629.3 
					390.9,653.8 390.9,678.3 390.9,702 				"/>
				<polyline fill="none" stroke="#000000" stroke-miterlimit="10" points="366.4,90 366.4,90.8 366.4,115.2 366.4,139.7 
					366.4,164.2 366.4,188.7 366.4,213.2 366.4,237.6 366.4,262.1 366.4,286.6 366.4,311.1 366.4,335.6 366.4,360 366.4,384.5 
					366.4,409 366.4,433.5 366.4,458 366.4,482.4 366.4,506.9 366.4,531.4 366.4,555.9 366.4,580.4 366.4,604.8 366.4,629.3 
					366.4,653.8 366.4,678.3 366.4,702 				"/>
				<polyline fill="none" stroke="#000000" stroke-miterlimit="10" points="342,90 342,90.8 342,115.2 342,139.7 342,164.2 
					342,188.7 342,213.2 342,237.6 342,262.1 342,286.6 342,311.1 342,335.6 342,360 342,384.5 342,409 342,433.5 342,458 
					342,482.4 342,506.9 342,531.4 342,555.9 342,580.4 342,604.8 342,629.3 342,653.8 342,678.3 342,702 				"/>
				<polyline fill="none" stroke="#000000" stroke-miterlimit="10" points="317.5,90 317.5,90.8 317.5,115.2 317.5,139.7 
					317.5,164.2 317.5,188.7 317.5,213.2 317.5,237.6 317.5,262.1 317.5,286.6 317.5,311.1 317.5,335.6 317.5,360 317.5,384.5 
					317.5,409 317.5,433.5 317.5,458 317.5,482.4 317.5,506.9 317.5,531.4 317.5,555.9 317.5,580.4 317.5,604.8 317.5,629.3 
					317.5,653.8 317.5,678.3 317.5,702 				"/>
				<polyline fill="none" stroke="#000000" stroke-miterlimit="10" points="293,90 293,90.8 293,115.2 293,139.7 293,164.2 
					293,188.7 293,213.2 293,237.6 293,262.1 293,286.6 293,311.1 293,335.6 293,360 293,384.5 293,409 293,433.5 293,458 
					293,482.4 293,506.9 293,531.4 293,555.9 293,580.4 293,604.8 293,629.3 293,653.8 293,678.3 293,702 				"/>
				<polyline fill="none" stroke="#000000" stroke-miterlimit="10" points="268.5,90 268.5,90.8 268.5,115.2 268.5,139.7 
					268.5,164.2 268.5,188.7 268.5,213.2 268.5,237.6 268.5,262.1 268.5,286.6 268.5,311.1 268.5,335.6 268.5,360 268.5,384.5 
					268.5,409 268.5,433.5 268.5,458 268.5,482.4 268.5,506.9 268.5,531.4 268.5,555.9 268.5,580.4 268.5,604.8 268.5,629.3 
					268.5,653.8 268.5,678.3 268.5,702 				"/>
				<polyline fill="none" stroke="#000000" stroke-miterlimit="10" points="244,90 244,90.8 244,115.2 244,139.7 244,164.2 
					244,188.7 244,213.2 244,237.6 244,262.1 244,286.6 244,311.1 244,335.6 244,360 244,384.5 244,409 244,433.5 244,458 
					244,482.4 244,506.9 244,531.4 244,555.9 244,580.4 244,604.8 244,629.3 244,653.8 244,678.3 244,702 				"/>
				<polyline fill="none" stroke="#000000" stroke-miterlimit="10" points="219.6,90 219.6,90.8 219.6,115.2 219.6,139.7 
					219.6,164.2 219.6,188.7 219.6,213.2 219.6,237.6 219.6,262.1 219.6,286.6 219.6,311.1 219.6,335.6 219.6,360 219.6,384.5 
					219.6,409 219.6,433.5 219.6,458 219.6,482.4 219.6,506.9 219.6,531.4 219.6,555.9 219.6,580.4 219.6,604.8 219.6,629.3 
					219.6,653.8 219.6,678.3 219.6,702 				"/>
				<polyline fill="none" stroke="#000000" stroke-miterlimit="10" points="195.1,90 195.1,90.8 195.1,115.2 195.1,139.7 
					195.1,164.2 195.1,188.7 195.1,213.2 195.1,237.6 195.1,262.1 195.1,286.6 195.1,311.1 195.1,335.6 195.1,360 195.1,384.5 
					195.1,409 195.1,433.5 195.1,458 195.1,482.4 195.1,506.9 195.1,531.4 195.1,555.9 195.1,580.4 195.1,604.8 195.1,629.3 
					195.1,653.8 195.1,678.3 195.1,702 				"/>
				<polyline fill="none" stroke="#000000" stroke-miterlimit="10" points="170.6,90 170.6,90.8 170.6,115.2 170.6,139.7 
					170.6,164.2 170.6,188.7 170.6,213.2 170.6,237.6 170.6,262.1 170.6,286.6 170.6,311.1 170.6,335.6 170.6,360 170.6,384.5 
					170.6,409 170.6,433.5 170.6,458 170.6,482.4 170.6,506.9 170.6,531.4 170.6,555.9 170.6,580.4 170.6,604.8 170.6,629.3 
					170.6,653.8 170.6,678.3 170.6,702 				"/>
				<polyline fill="none" stroke="#000000" stroke-miterlimit="10" points="146.1,90 146.1,90.8 146.1,115.2 146.1,139.7 
					146.1,164.2 146.1,188.7 146.1,213.2 146.1,237.6 146.1,262.1 146.1,286.6 146.1,311.1 146.1,335.6 146.1,360 146.1,384.5 
					146.1,409 146.1,433.5 146.1,458 146.1,482.4 146.1,506.9 146.1,531.4 146.1,555.9 146.1,580.4 146.1,604.8 146.1,629.3 
					146.1,653.8 146.1,678.3 146.1,702 				"/>
				<polyline fill="none" stroke="#000000" stroke-miterlimit="10" points="121.6,90 121.6,90.8 121.6,115.2 121.6,139.7 
					121.6,164.2 121.6,188.7 121.6,213.2 121.6,237.6 121.6,262.1 121.6,286.6 121.6,311.1 121.6,335.6 121.6,360 121.6,384.5 
					121.6,409 121.6,433.5 121.6,458 121.6,482.4 121.6,506.9 121.6,531.4 121.6,555.9 121.6,580.4 121.6,604.8 121.6,629.3 
					121.6,653.8 121.6,678.3 121.6,702 				"/>
				<polyline fill="none" stroke="#000000" stroke-miterlimit="10" points="97.2,90 97.2,90.8 97.2,115.2 97.2,139.7 97.2,164.2 
					97.2,188.7 97.2,213.2 97.2,237.6 97.2,262.1 97.2,286.6 97.2,311.1 97.2,335.6 97.2,360 97.2,384.5 97.2,409 97.2,433.5 
					97.2,458 97.2,482.4 97.2,506.9 97.2,531.4 97.2,555.9 97.2,580.4 97.2,604.8 97.2,629.3 97.2,653.8 97.2,678.3 97.2,702 				
					"/>
				<polyline fill="none" stroke="#000000" stroke-miterlimit="10" points="72.7,90 72.7,90.8 72.7,115.2 72.7,139.7 72.7,164.2 
					72.7,188.7 72.7,213.2 72.7,237.6 72.7,262.1 72.7,286.6 72.7,311.1 72.7,335.6 72.7,360 72.7,384.5 72.7,409 72.7,433.5 
					72.7,458 72.7,482.4 72.7,506.9 72.7,531.4 72.7,555.9 72.7,580.4 72.7,604.8 72.7,629.3 72.7,653.8 72.7,678.3 72.7,702 				
					"/>
				<polyline fill="none" stroke="#000000" stroke-miterlimit="10" points="48.2,90 48.2,90.8 48.2,115.2 48.2,139.7 48.2,164.2 
					48.2,188.7 48.2,213.2 48.2,237.6 48.2,262.1 48.2,286.6 48.2,311.1 48.2,335.6 48.2,360 48.2,384.5 48.2,409 48.2,433.5 
					48.2,458 48.2,482.4 48.2,506.9 48.2,531.4 48.2,555.9 48.2,580.4 48.2,604.8 48.2,629.3 48.2,653.8 48.2,678.3 48.2,702 				
					"/>
				<polyline fill="none" stroke="#000000" stroke-miterlimit="10" points="23.7,90 23.7,90.8 23.7,115.2 23.7,139.7 23.7,164.2 
					23.7,188.7 23.7,213.2 23.7,237.6 23.7,262.1 23.7,286.6 23.7,311.1 23.7,335.6 23.7,360 23.7,384.5 23.7,409 23.7,433.5 
					23.7,458 23.7,482.4 23.7,506.9 23.7,531.4 23.7,555.9 23.7,580.4 23.7,604.8 23.7,629.3 23.7,653.8 23.7,678.3 23.7,702 				
					"/>
			</g>
		</g>
	</g>
</g>
<g id="Layer_3" display="none">
	
		<image display="inline" overflow="visible" enable-background="new    " width="510" height="597" xlink:href="727887EC4EE93A21.png"  transform="matrix(-0.614 0 0 0.614 459.2765 164.205)">
	</image>
</g>
<g id="Layer_4" display="none">
	
		<image display="inline" overflow="visible" enable-background="new    " width="460" height="350" xlink:href="727887EC4EE93A23.png"  transform="matrix(1.3244 0 0 1.3244 5.825 148.5586)">
	</image>
</g>
<rect x="108.2" y="363" fill="#F7F7F5" width="24.5" height="24.5"/>
<rect x="132.7" y="314" fill="#EAEAE5" width="24.5" height="24.5"/>
<rect x="157.2" y="314" fill="#F7F7F5" width="24.5" height="24.5"/>
<rect x="132.7" y="338.5" fill="#F7F7F5" width="24.5" height="24.5"/>
<rect x="108.2" y="314" fill="#EAEAE5" width="24.5" height="24.5"/>
<rect x="108.2" y="338.5" fill="#EAEAE5" width="24.5" height="24.5"/>
<rect x="181.7" y="289.5" fill="#F7F7F5" width="24.5" height="24.5"/>
<rect x="157.2" y="289.5" fill="#EAEAE5" width="24.5" height="24.5"/>
<rect x="206" y="265" fill="#F7F7F5" width="24.5" height="24.5"/>
<rect x="181.7" y="265" fill="#EAEAE5" width="24.5" height="24.5"/>
<rect x="157.2" y="265" fill="#EAEAE5" width="24.5" height="24.5"/>
<rect x="132.7" y="289.5" fill="#EAEAE5" width="24.5" height="24.5"/>
<rect x="108.2" y="289.5" fill="#EAEAE5" width="24.5" height="24.5"/>
<rect x="132.7" y="265" fill="#EAEAE5" width="24.5" height="24.5"/>
<rect x="132.7" y="240.6" fill="#F7F7F5" width="24.5" height="24.5"/>
<rect x="206" y="240.6" fill="#EAEAE5" width="24.5" height="24.5"/>
<rect x="181.6" y="240.6" fill="#EAEAE5" width="24.5" height="24.5"/>
<rect x="157.2" y="240.6" fill="#EAEAE5" width="24.5" height="24.5"/>
<rect x="230.5" y="240.6" fill="#F7F7F5" width="24.5" height="24.5"/>
<rect x="108.2" y="265" fill="#F7F7F5" width="24.5" height="24.5"/>
<rect x="108.2" y="240.6" fill="#F7F7F5" width="24.5" height="24.5"/>
<rect x="83.8" y="265" fill="#F7F7F5" width="24.5" height="24.5"/>
<rect x="83.8" y="240.6" fill="#F7F7F5" width="24.5" height="24.5"/>
<rect x="83.8" y="216.1" fill="#F7F7F5" width="24.5" height="24.5"/>
<rect x="108.2" y="216.1" fill="#F7F7F5" width="24.5" height="24.5"/>
<rect x="60" y="240.6" fill="#F7F7F5" width="24.5" height="24.5"/>
<rect x="60" y="216.1" fill="#F7F7F5" width="24.5" height="24.5"/>
<rect x="83.8" y="338.5" fill="#EAEAE5" width="24.5" height="24.5"/>
<rect x="83.8" y="314" fill="#EAEAE5" width="24.5" height="24.5"/>
<rect x="206" y="216.1" fill="#EAEAE5" width="24.5" height="24.5"/>
<rect x="181.6" y="216.1" fill="#EAEAE5" width="24.5" height="24.5"/>
<rect x="212.7" y="411.8" fill="#EE2724" width="24.5" height="24.5"/>
<rect x="237.2" y="436.3" fill="#EE2724" width="24.5" height="24.5"/>
<rect x="261.7" y="460.8" fill="#EE2724" width="24.5" height="24.5"/>
<rect x="217.1" y="332.5" fill="#EE2724" width="24.5" height="24.5"/>
<rect x="241.6" y="357" fill="#EE2724" width="24.5" height="24.5"/>
<rect x="266" y="381.4" fill="#EE2724" width="24.5" height="24.5"/>
<rect x="286.5" y="326.1" fill="#EE2724" width="24.5" height="24.5"/>
<rect x="310.9" y="350.6" fill="#EE2724" width="24.5" height="24.5"/>
<rect x="335.4" y="375.1" fill="#EE2724" width="24.5" height="24.5"/>
<rect x="285.3" y="484.4" fill="#EE2724" width="24.5" height="24.5"/>
<rect x="309.8" y="508.9" fill="#EE2724" width="24.5" height="24.5"/>
<rect x="334.3" y="533.4" fill="#EE2724" width="24.5" height="24.5"/>
<rect x="291.5" y="406.4" fill="#EE2724" width="24.5" height="24.5"/>
<rect x="316" y="430.9" fill="#EE2724" width="24.5" height="24.5"/>
<rect x="340.5" y="455.4" fill="#EE2724" width="24.5" height="24.5"/>
<rect x="359.9" y="399.5" fill="#EE2724" width="24.5" height="24.5"/>
<rect x="384.4" y="424" fill="#EE2724" width="24.5" height="24.5"/>
<rect x="408.9" y="448.5" fill="#EE2724" width="24.5" height="24.5"/>
<rect x="279.5" y="191.6" fill="#F7F7F5" width="24.5" height="24.5"/>
<rect x="255" y="216.1" fill="#F7F7F5" width="24.5" height="24.5"/>
<rect x="304" y="167.1" fill="#F7F7F5" width="24.5" height="24.5"/>
<rect x="328.3" y="142.6" fill="#F7F7F5" width="24.5" height="24.5"/>
<rect x="352.8" y="118.2" fill="#F7F7F5" width="24.5" height="24.5"/>
<rect x="230.5" y="216.1" fill="#EAEAE5" width="24.5" height="24.5"/>
<rect x="255" y="191.6" fill="#EAEAE5" width="24.5" height="24.5"/>
<rect x="279.5" y="167.1" fill="#EAEAE5" width="24.5" height="24.5"/>
<rect x="304" y="142.6" fill="#EAEAE5" width="24.5" height="24.5"/>
<rect x="328.3" y="118.2" fill="#EAEAE5" width="24.5" height="24.5"/>
<rect x="206" y="191.6" fill="#EAEAE5" width="24.5" height="24.5"/>
<rect x="230.5" y="191.6" fill="#EAEAE5" width="24.5" height="24.5"/>
<rect x="230.5" y="167.1" fill="#EAEAE5" width="24.5" height="24.5"/>
<rect x="255" y="167.1" fill="#EAEAE5" width="24.5" height="24.5"/>
<rect x="255" y="142.6" fill="#EAEAE5" width="24.5" height="24.5"/>
<rect x="279.5" y="142.6" fill="#EAEAE5" width="24.5" height="24.5"/>
<rect x="279.5" y="118.2" fill="#EAEAE5" width="24.5" height="24.5"/>
<rect x="304" y="118.2" fill="#EAEAE5" width="24.5" height="24.5"/>
<rect x="328.4" y="93.7" fill="#EAEAE5" width="24.5" height="24.5"/>
<rect x="304" y="93.7" fill="#EAEAE5" width="24.5" height="24.5"/>
<rect x="132.7" y="216.1" fill="#F7F7F5" width="24.5" height="24.5"/>
<rect x="157.2" y="216.1" fill="#F7F7F5" width="24.5" height="24.5"/>
<rect x="181.7" y="190.6" fill="#F7F7F5" width="24.5" height="24.5"/>
<rect x="157.2" y="191.6" fill="#F7F7F5" width="24.5" height="24.5"/>
<rect x="206" y="167.6" fill="#F7F7F5" width="24.5" height="24.5"/>
<rect x="230.5" y="142.6" fill="#F7F7F5" width="24.5" height="24.5"/>
<rect x="255" y="118.2" fill="#F7F7F5" width="24.5" height="24.5"/>
<rect x="230.5" y="118.2" fill="#F7F7F5" width="24.5" height="24.5"/>
<rect x="206" y="143.1" fill="#F7F7F5" width="24.5" height="24.5"/>
<rect x="181.6" y="166.1" fill="#F7F7F5" width="24.5" height="24.5"/>
<rect x="255" y="93.7" fill="#F7F7F5" width="24.5" height="24.5"/>
<rect x="230.5" y="93.7" fill="#F7F7F5" width="24.5" height="24.5"/>
<rect x="206" y="118.6" fill="#F7F7F5" width="24.5" height="24.5"/>
<rect x="181.7" y="118.6" fill="#F7F7F5" width="24.5" height="24.5"/>
<rect x="181.6" y="141.6" fill="#F7F7F5" width="24.5" height="24.5"/>
<rect x="230.5" y="69.2" fill="#F7F7F5" width="24.5" height="24.5"/>
<rect x="206" y="69.6" fill="#F7F7F5" width="24.5" height="24.5"/>
<rect x="206" y="94.1" fill="#F7F7F5" width="24.5" height="24.5"/>
<rect x="157.2" y="167.1" fill="#F7F7F5" width="24.5" height="24.5"/>
<rect x="157.2" y="142.6" fill="#F7F7F5" width="24.5" height="24.5"/>
<rect x="132.7" y="191.6" fill="#F7F7F5" width="24.5" height="24.5"/>
<rect x="132.7" y="167.1" fill="#F7F7F5" width="24.5" height="24.5"/>
<rect x="108.2" y="191.6" fill="#F7F7F5" width="24.5" height="24.5"/>
<rect x="83.8" y="191.6" fill="#F7F7F5" width="24.5" height="24.5"/>
<rect x="181.7" y="93.7" fill="#F7F7F5" width="24.5" height="24.5"/>
<rect x="108.2" y="167.1" fill="#F7F7F5" width="24.5" height="24.5"/>
<rect x="132.7" y="143.1" fill="#F7F7F5" width="24.5" height="24.5"/>
<rect x="157.2" y="118.6" fill="#F7F7F5" width="24.5" height="24.5"/>
<rect x="83.8" y="167.1" fill="#F7F7F5" width="24.5" height="24.5"/>
<rect x="108.2" y="142.6" fill="#F7F7F5" width="24.5" height="24.5"/>
<rect x="132.7" y="118.2" fill="#F7F7F5" width="24.5" height="24.5"/>
<rect x="157.2" y="93.7" fill="#F7F7F5" width="24.5" height="24.5"/>
<rect x="83.8" y="142.6" fill="#F7F7F5" width="24.5" height="24.5"/>
<rect x="60" y="167.6" fill="#F7F7F5" width="24.5" height="24.5"/>
<rect x="108.2" y="118.1" fill="#F7F7F5" width="24.5" height="24.5"/>
<rect x="132.7" y="93.6" fill="#F7F7F5" width="24.5" height="24.5"/>
<rect x="157.2" y="69.2" fill="#F7F7F5" width="24.5" height="24.5"/>
<rect x="58.9" y="142.3" fill="#F7F7F5" width="24.5" height="24.5"/>
<rect x="83.4" y="117.8" fill="#F7F7F5" width="24.5" height="24.5"/>
<rect x="107.8" y="93.3" fill="#F7F7F5" width="24.5" height="24.5"/>
<rect x="132.3" y="68.9" fill="#F7F7F5" width="24.5" height="24.5"/>
<rect x="35.2" y="142" fill="#F7F7F5" width="24.5" height="24.5"/>
<rect x="59.7" y="117.4" fill="#F7F7F5" width="24.5" height="24.5"/>
<rect x="84.1" y="93" fill="#F7F7F5" width="24.5" height="24.5"/>
<rect x="108.6" y="68.6" fill="#F7F7F5" width="24.5" height="24.5"/>
<rect x="11.3" y="141.7" fill="#F7F7F5" width="24.5" height="24.5"/>
<rect x="11.5" y="117.4" fill="#F7F7F5" width="24.5" height="24.5"/>
<rect x="34.8" y="117.1" fill="#F7F7F5" width="24.5" height="24.5"/>
<rect x="59.3" y="92.7" fill="#F7F7F5" width="24.5" height="24.5"/>
<rect x="83.8" y="68.3" fill="#F7F7F5" width="24.5" height="24.5"/>
<rect x="59.5" y="68.7" fill="#F7F7F5" width="24.5" height="24.5"/>
<rect x="34.8" y="92.7" fill="#F7F7F5" width="24.5" height="24.5"/>
<rect x="34.8" y="67.7" fill="#F7F7F5" width="24.5" height="24.5"/>
<rect x="11.5" y="92.7" fill="#F7F7F5" width="24.5" height="24.5"/>
<rect x="11.5" y="67.7" fill="#F7F7F5" width="24.5" height="24.5"/>
<rect x="11.5" y="43.8" fill="#F7F7F5" width="24.5" height="24.5"/>
<rect x="35.2" y="43.8" fill="#F7F7F5" width="24.5" height="24.5"/>
<rect x="334.4" y="207.4" fill="#EE2724" width="24.5" height="24.5"/>
<rect x="358.9" y="231.9" fill="#EE2724" width="24.5" height="24.5"/>
<rect x="383.4" y="256.3" fill="#EE2724" width="24.5" height="24.5"/>
<rect x="407.9" y="280.8" fill="#EE2724" width="24.5" height="24.5"/>
<rect x="432.3" y="305.3" fill="#EE2724" width="24.5" height="24.5"/>
<rect x="456.8" y="329.8" fill="#EE2724" width="24.5" height="24.5"/>
<rect x="290.5" y="256.8" fill="#EE2724" width="24.5" height="24.5"/>
<rect x="315" y="281.3" fill="#EE2724" width="24.5" height="24.5"/>
<rect x="339.4" y="305.7" fill="#EE2724" width="24.5" height="24.5"/>
<rect x="363.9" y="330.2" fill="#EE2724" width="24.5" height="24.5"/>
<rect x="388.4" y="354.7" fill="#EE2724" width="24.5" height="24.5"/>
<rect x="412.9" y="379.2" fill="#EE2724" width="24.5" height="24.5"/>
<rect x="460.6" y="238.1" fill="#EE2724" width="24.5" height="24.5"/>
<rect x="485.1" y="262.6" fill="#EE2724" width="24.5" height="24.5"/>
<rect x="509.5" y="287" fill="#EE2724" width="24.5" height="24.5"/>
<rect x="534" y="311.5" fill="#EE2724" width="24.5" height="24.5"/>
<rect x="558.5" y="336" fill="#EE2724" width="24.5" height="24.5"/>
<rect x="583" y="360.5" fill="#EE2724" width="24.5" height="24.5"/>
<rect x="480.3" y="355" fill="#EE2724" width="24.5" height="24.5"/>
<rect x="504.8" y="379.4" fill="#EE2724" width="24.5" height="24.5"/>
<rect x="529.3" y="403.9" fill="#EE2724" width="24.5" height="24.5"/>
<rect x="553.7" y="428.4" fill="#EE2724" width="24.5" height="24.5"/>
<rect x="578.2" y="452.9" fill="#EE2724" width="24.5" height="24.5"/>
<rect x="436.9" y="216.1" fill="#EE2724" width="24.5" height="24.5"/>
<rect x="431.3" y="472.1" fill="#EE2724" width="24.5" height="24.5"/>
<rect x="455.8" y="496.6" fill="#EE2724" width="24.5" height="24.5"/>
<rect x="480.3" y="521.1" fill="#EE2724" width="24.5" height="24.5"/>
<rect x="504.8" y="545.5" fill="#EE2724" width="24.5" height="24.5"/>
<rect x="529.3" y="570" fill="#EE2724" width="24.5" height="24.5"/>
<rect x="553.7" y="594.5" fill="#EE2724" width="24.5" height="24.5"/>
<rect x="363.4" y="479.9" fill="#EE2724" width="24.5" height="24.5"/>
<rect x="387.9" y="504.4" fill="#EE2724" width="24.5" height="24.5"/>
<rect x="412.4" y="528.9" fill="#EE2724" width="24.5" height="24.5"/>
<rect x="436.9" y="553.4" fill="#EE2724" width="24.5" height="24.5"/>
<rect x="461.3" y="577.8" fill="#EE2724" width="24.5" height="24.5"/>
<rect x="485.8" y="602.3" fill="#EE2724" width="24.5" height="24.5"/>
<rect x="358.2" y="556.9" fill="#EE2724" width="24.5" height="24.5"/>
<rect x="382.7" y="581.3" fill="#EE2724" width="24.5" height="24.5"/>
<rect x="407.2" y="605.8" fill="#EE2724" width="24.5" height="24.5"/>
<rect x="431.6" y="630.3" fill="#EE2724" width="24.5" height="24.5"/>
<rect x="456.1" y="654.8" fill="#EE2724" width="24.5" height="24.5"/>
<rect x="480.6" y="679.3" fill="#EE2724" width="24.5" height="24.5"/>
<rect x="436.4" y="404.2" fill="#EE2724" width="24.5" height="24.5"/>
<rect x="460.8" y="428.7" fill="#EE2724" width="24.5" height="24.5"/>
<rect x="485.3" y="453.2" fill="#EE2724" width="24.5" height="24.5"/>
<rect x="509.8" y="477.6" fill="#EE2724" width="24.5" height="24.5"/>
<rect x="534.3" y="502.1" fill="#EE2724" width="24.5" height="24.5"/>
<rect x="558.8" y="526.6" fill="#EE2724" width="24.5" height="24.5"/>
</svg>
