<?xml version="1.0" encoding="utf-8"?>
<!-- Generator: Adobe Illustrator 19.0.1, SVG Export Plug-In . SVG Version: 6.00 Build 0)  -->
<svg version="1.1" id="Layer_3" xmlns="http://www.w3.org/2000/svg" xmlns:xlink="http://www.w3.org/1999/xlink" x="0px" y="0px"
	 viewBox="0 0 400 400" style="enable-background:new 0 0 400 400;" xml:space="preserve">
<style type="text/css">
	.st0{fill:#E6E6E6;}
	.st1{fill:#F2F2F2;}
</style>
<g>
	<g id="XMLID_2_">
		<g>
			<rect x="383.5" y="176.5" class="st0" width="16" height="16"/>
			<rect x="367.5" y="208.5" class="st0" width="16" height="16"/>
			<rect x="367.5" y="192.5" class="st0" width="16" height="16"/>
			<rect x="367.5" y="176.5" class="st1" width="16" height="16"/>
			<rect x="367.5" y="160.5" class="st0" width="16" height="16"/>
			<rect x="351.5" y="224.5" class="st0" width="16" height="16"/>
			<rect x="351.5" y="208.5" class="st1" width="16" height="16"/>
			<rect x="351.5" y="192.5" class="st1" width="16" height="16"/>
			<rect x="351.5" y="176.5" class="st1" width="16" height="16"/>
			<rect x="351.5" y="160.5" class="st0" width="16" height="16"/>
			<rect x="335.5" y="240.5" class="st0" width="16" height="16"/>
			<rect x="335.5" y="224.5" class="st1" width="16" height="16"/>
			<rect x="335.5" y="208.5" class="st1" width="16" height="16"/>
			<rect x="335.5" y="192.5" class="st1" width="16" height="16"/>
			<rect x="335.5" y="176.5" class="st1" width="16" height="16"/>
			<rect x="335.5" y="160.5" class="st0" width="16" height="16"/>
			<rect x="319.5" y="304.5" class="st0" width="16" height="16"/>
			<rect x="319.5" y="256.5" class="st0" width="16" height="16"/>
			<rect x="319.5" y="240.5" class="st1" width="16" height="16"/>
			<rect x="319.5" y="224.5" class="st1" width="16" height="16"/>
			<rect x="319.5" y="208.5" class="st1" width="16" height="16"/>
			<rect x="319.5" y="192.5" class="st1" width="16" height="16"/>
			<rect x="319.5" y="176.5" class="st1" width="16" height="16"/>
			<rect x="319.5" y="160.5" class="st0" width="16" height="16"/>
			<rect x="303.5" y="304.5" class="st1" width="16" height="16"/>
			<rect x="303.5" y="288.5" class="st0" width="16" height="16"/>
			<rect x="303.5" y="272.5" class="st0" width="16" height="16"/>
			<rect x="303.5" y="256.5" class="st1" width="16" height="16"/>
			<rect x="303.5" y="240.5" class="st1" width="16" height="16"/>
			<rect x="303.5" y="224.5" class="st1" width="16" height="16"/>
			<rect x="303.5" y="208.5" class="st1" width="16" height="16"/>
			<rect x="303.5" y="192.5" class="st1" width="16" height="16"/>
			<rect x="303.5" y="176.5" class="st1" width="16" height="16"/>
			<rect x="303.5" y="160.5" class="st0" width="16" height="16"/>
			<rect x="287.5" y="304.5" class="st1" width="16" height="16"/>
			<rect x="287.5" y="288.5" class="st1" width="16" height="16"/>
			<rect x="287.5" y="272.5" class="st1" width="16" height="16"/>
			<rect x="287.5" y="256.5" class="st1" width="16" height="16"/>
			<rect x="287.5" y="240.5" class="st1" width="16" height="16"/>
			<rect x="287.5" y="224.5" class="st1" width="16" height="16"/>
			<rect x="287.5" y="208.5" class="st1" width="16" height="16"/>
			<rect x="287.5" y="192.5" class="st1" width="16" height="16"/>
			<rect x="287.5" y="176.5" class="st1" width="16" height="16"/>
			<rect x="287.5" y="160.5" class="st0" width="16" height="16"/>
			<rect x="271.5" y="272.5" class="st1" width="16" height="16"/>
			<rect x="271.5" y="256.5" class="st1" width="16" height="16"/>
			<rect x="271.5" y="240.5" class="st1" width="16" height="16"/>
			<rect x="271.5" y="224.5" class="st1" width="16" height="16"/>
			<rect x="271.5" y="208.5" class="st1" width="16" height="16"/>
			<rect x="271.5" y="192.5" class="st1" width="16" height="16"/>
			<rect x="271.5" y="176.5" class="st1" width="16" height="16"/>
			<rect x="271.5" y="160.5" class="st0" width="16" height="16"/>
			<rect x="255.5" y="256.5" class="st1" width="16" height="16"/>
			<rect x="255.5" y="240.5" class="st1" width="16" height="16"/>
			<rect x="255.5" y="224.5" class="st1" width="16" height="16"/>
			<rect x="255.5" y="208.5" class="st1" width="16" height="16"/>
			<rect x="255.5" y="192.5" class="st1" width="16" height="16"/>
			<rect x="255.5" y="176.5" class="st1" width="16" height="16"/>
			<rect x="255.5" y="160.5" class="st0" width="16" height="16"/>
			<rect x="239.5" y="256.5" class="st1" width="16" height="16"/>
			<rect x="239.5" y="240.5" class="st1" width="16" height="16"/>
			<rect x="239.5" y="224.5" class="st1" width="16" height="16"/>
			<rect x="239.5" y="208.5" class="st1" width="16" height="16"/>
			<rect x="239.5" y="192.5" class="st1" width="16" height="16"/>
			<rect x="239.5" y="176.5" class="st1" width="16" height="16"/>
			<rect x="239.5" y="160.5" class="st0" width="16" height="16"/>
			<rect x="223.5" y="256.5" class="st1" width="16" height="16"/>
			<rect x="223.5" y="240.5" class="st1" width="16" height="16"/>
			<rect x="223.5" y="224.5" class="st1" width="16" height="16"/>
			<rect x="223.5" y="208.5" class="st1" width="16" height="16"/>
			<rect x="223.5" y="192.5" class="st1" width="16" height="16"/>
			<rect x="223.5" y="176.5" class="st1" width="16" height="16"/>
			<rect x="223.5" y="160.5" class="st0" width="16" height="16"/>
			<rect x="207.5" y="256.5" class="st1" width="16" height="16"/>
			<rect x="207.5" y="240.5" class="st1" width="16" height="16"/>
			<rect x="207.5" y="224.5" class="st1" width="16" height="16"/>
			<rect x="207.5" y="208.5" class="st1" width="16" height="16"/>
			<rect x="207.5" y="192.5" class="st1" width="16" height="16"/>
			<rect x="207.5" y="176.5" class="st1" width="16" height="16"/>
			<rect x="207.5" y="160.5" class="st0" width="16" height="16"/>
			<rect x="191.5" y="256.5" class="st1" width="16" height="16"/>
			<rect x="191.5" y="240.5" class="st1" width="16" height="16"/>
			<rect x="191.5" y="224.5" class="st1" width="16" height="16"/>
			<rect x="191.5" y="208.5" class="st1" width="16" height="16"/>
			<rect x="191.5" y="192.5" class="st1" width="16" height="16"/>
			<rect x="191.5" y="176.5" class="st1" width="16" height="16"/>
			<rect x="191.5" y="160.5" class="st0" width="16" height="16"/>
			<rect x="175.5" y="256.5" class="st1" width="16" height="16"/>
			<rect x="175.5" y="240.5" class="st1" width="16" height="16"/>
			<rect x="175.5" y="224.5" class="st1" width="16" height="16"/>
			<rect x="175.5" y="208.5" class="st1" width="16" height="16"/>
			<rect x="175.5" y="192.5" class="st1" width="16" height="16"/>
			<rect x="175.5" y="176.5" class="st1" width="16" height="16"/>
			<rect x="175.5" y="160.5" class="st0" width="16" height="16"/>
			<rect x="159.5" y="272.5" class="st0" width="16" height="16"/>
			<rect x="159.5" y="256.5" class="st1" width="16" height="16"/>
			<rect x="159.5" y="240.5" class="st1" width="16" height="16"/>
			<rect x="159.5" y="224.5" class="st1" width="16" height="16"/>
			<rect x="159.5" y="208.5" class="st1" width="16" height="16"/>
			<rect x="159.5" y="192.5" class="st1" width="16" height="16"/>
			<rect x="159.5" y="176.5" class="st1" width="16" height="16"/>
			<rect x="159.5" y="160.5" class="st0" width="16" height="16"/>
			<rect x="159.5" y="48.5" class="st0" width="16" height="16"/>
			<rect x="143.5" y="304.5" class="st0" width="16" height="16"/>
			<rect x="143.5" y="288.5" class="st0" width="16" height="16"/>
			<rect x="143.5" y="272.5" class="st1" width="16" height="16"/>
			<rect x="143.5" y="256.5" class="st1" width="16" height="16"/>
			<rect x="143.5" y="240.5" class="st1" width="16" height="16"/>
			<rect x="143.5" y="224.5" class="st1" width="16" height="16"/>
			<rect x="143.5" y="208.5" class="st1" width="16" height="16"/>
			<rect x="143.5" y="192.5" class="st1" width="16" height="16"/>
			<rect x="143.5" y="176.5" class="st1" width="16" height="16"/>
			<rect x="143.5" y="160.5" class="st0" width="16" height="16"/>
			<rect x="143.5" y="48.5" class="st1" width="16" height="16"/>
			<rect x="143.5" y="32.5" class="st0" width="16" height="16"/>
			<rect x="143.5" y="16.5" class="st0" width="16" height="16"/>
			<rect x="127.5" y="304.5" class="st1" width="16" height="16"/>
			<rect x="127.5" y="288.5" class="st1" width="16" height="16"/>
			<rect x="127.5" y="272.5" class="st1" width="16" height="16"/>
			<rect x="127.5" y="256.5" class="st1" width="16" height="16"/>
			<rect x="127.5" y="240.5" class="st1" width="16" height="16"/>
			<rect x="127.5" y="224.5" class="st1" width="16" height="16"/>
			<rect x="127.5" y="208.5" class="st1" width="16" height="16"/>
			<rect x="127.5" y="192.5" class="st1" width="16" height="16"/>
			<rect x="127.5" y="176.5" class="st1" width="16" height="16"/>
			<rect x="127.5" y="160.5" class="st0" width="16" height="16"/>
			<rect x="127.5" y="48.5" class="st1" width="16" height="16"/>
			<rect x="127.5" y="32.5" class="st1" width="16" height="16"/>
			<rect x="127.5" y="16.5" class="st1" width="16" height="16"/>
			<rect x="111.5" y="304.5" class="st1" width="16" height="16"/>
			<rect x="111.5" y="256.5" class="st1" width="16" height="16"/>
			<rect x="111.5" y="240.5" class="st1" width="16" height="16"/>
			<rect x="111.5" y="224.5" class="st1" width="16" height="16"/>
			<rect x="111.5" y="208.5" class="st1" width="16" height="16"/>
			<rect x="111.5" y="192.5" class="st1" width="16" height="16"/>
			<rect x="111.5" y="176.5" class="st1" width="16" height="16"/>
			<rect x="111.5" y="160.5" class="st0" width="16" height="16"/>
			<rect x="111.5" y="48.5" class="st1" width="16" height="16"/>
			<rect x="111.5" y="16.5" class="st1" width="16" height="16"/>
			<rect x="95.5" y="240.5" class="st1" width="16" height="16"/>
			<rect x="95.5" y="224.5" class="st1" width="16" height="16"/>
			<rect x="95.5" y="208.5" class="st1" width="16" height="16"/>
			<rect x="95.5" y="192.5" class="st1" width="16" height="16"/>
			<rect x="95.5" y="176.5" class="st1" width="16" height="16"/>
			<rect x="95.5" y="160.5" class="st0" width="16" height="16"/>
			<rect x="95.5" y="16.5" class="st1" width="16" height="16"/>
			<rect x="79.5" y="224.5" class="st1" width="16" height="16"/>
			<rect x="79.5" y="208.5" class="st1" width="16" height="16"/>
			<rect x="79.5" y="192.5" class="st1" width="16" height="16"/>
			<rect x="79.5" y="176.5" class="st1" width="16" height="16"/>
			<rect x="79.5" y="160.5" class="st1" width="16" height="16"/>
			<rect x="79.5" y="144.5" class="st1" width="16" height="16"/>
			<rect x="79.5" y="128.5" class="st1" width="16" height="16"/>
			<rect x="79.5" y="112.5" class="st1" width="16" height="16"/>
			<rect x="79.5" y="96.5" class="st1" width="16" height="16"/>
			<rect x="79.5" y="80.5" class="st1" width="16" height="16"/>
			<rect x="79.5" y="64.5" class="st1" width="16" height="16"/>
			<rect x="79.5" y="48.5" class="st1" width="16" height="16"/>
			<rect x="79.5" y="32.5" class="st1" width="16" height="16"/>
			<rect x="79.5" y="16.5" class="st1" width="16" height="16"/>
			<rect x="63.5" y="208.5" class="st1" width="16" height="16"/>
			<rect x="63.5" y="192.5" class="st1" width="16" height="16"/>
			<rect x="63.5" y="176.5" class="st1" width="16" height="16"/>
			<rect x="63.5" y="160.5" class="st0" width="16" height="16"/>
			<rect x="47.5" y="176.5" class="st1" width="16" height="16"/>
			<rect x="47.5" y="160.5" class="st0" width="16" height="16"/>
		</g>
		<g>
		</g>
	</g>
</g>
</svg>
