<?xml version="1.0" encoding="UTF-8" standalone="no"?>
<svg width="353px" height="336px" viewBox="0 0 353 336" version="1.1" xmlns="http://www.w3.org/2000/svg" xmlns:xlink="http://www.w3.org/1999/xlink" xmlns:sketch="http://www.bohemiancoding.com/sketch/ns">
    <!-- Generator: Sketch 3.3.1 (12005) - http://www.bohemiancoding.com/sketch -->
    <title>Tadpole</title>
    <desc>Created with Sketch.</desc>
    <defs></defs>
    <g id="Welcome" stroke="none" stroke-width="1" fill="none" fill-rule="evenodd" sketch:type="MSPage">
        <g id="Tadpole" sketch:type="MSLayerGroup" transform="translate(-27.000000, -29.500000)">
            <g id="Layer_1" transform="translate(27.000000, 29.000000)" sketch:type="MSShapeGroup">
                <g id="XMLID_1_">
                    <g id="Group">
                        <rect id="Rectangle-path" fill="#4C7521" x="336.5" y="144.5" width="16" height="16"></rect>
                        <rect id="Rectangle-path" fill="#4C7521" x="336.5" y="128.5" width="16" height="16"></rect>
                        <rect id="Rectangle-path" fill="#4C7521" x="336.5" y="112.5" width="16" height="16"></rect>
                        <rect id="Rectangle-path" fill="#4C7521" x="336.5" y="96.5" width="16" height="16"></rect>
                        <rect id="Rectangle-path" fill="#4C7521" x="320.5" y="320.5" width="16" height="16"></rect>
                        <rect id="Rectangle-path" fill="#4C7521" x="320.5" y="304.5" width="16" height="16"></rect>
                        <rect id="Rectangle-path" fill="#4C7521" x="320.5" y="288.5" width="16" height="16"></rect>
                        <rect id="Rectangle-path" fill="#4C7521" x="320.5" y="272.5" width="16" height="16"></rect>
                        <rect id="Rectangle-path" fill="#4C7521" x="320.5" y="144.5" width="16" height="16"></rect>
                        <rect id="Rectangle-path" fill="#8CC63F" x="320.5" y="128.5" width="16" height="16"></rect>
                        <rect id="Rectangle-path" fill="#8CC63F" x="320.5" y="112.5" width="16" height="16"></rect>
                        <rect id="Rectangle-path" fill="#4C7521" x="320.5" y="96.5" width="16" height="16"></rect>
                        <rect id="Rectangle-path" fill="#4C7521" x="304.5" y="320.5" width="16" height="16"></rect>
                        <rect id="Rectangle-path" fill="#8CC63F" x="304.5" y="304.5" width="16" height="16"></rect>
                        <rect id="Rectangle-path" fill="#8CC63F" x="304.5" y="288.5" width="16" height="16"></rect>
                        <rect id="Rectangle-path" fill="#4C7521" x="304.5" y="272.5" width="16" height="16"></rect>
                        <rect id="Rectangle-path" fill="#4C7521" x="304.5" y="144.5" width="16" height="16"></rect>
                        <rect id="Rectangle-path" fill="#8CC63F" x="304.5" y="128.5" width="16" height="16"></rect>
                        <rect id="Rectangle-path" fill="#4C7521" x="304.5" y="112.5" width="16" height="16"></rect>
                        <rect id="Rectangle-path" fill="#4C7521" x="304.5" y="96.5" width="16" height="16"></rect>
                        <rect id="Rectangle-path" fill="#4C7521" x="288.5" y="320.5" width="16" height="16"></rect>
                        <rect id="Rectangle-path" fill="#8CC63F" x="288.5" y="304.5" width="16" height="16"></rect>
                        <rect id="Rectangle-path" fill="#8CC63F" x="288.5" y="288.5" width="16" height="16"></rect>
                        <rect id="Rectangle-path" fill="#4C7521" x="288.5" y="272.5" width="16" height="16"></rect>
                        <rect id="Rectangle-path" fill="#4C7521" x="288.5" y="192.5" width="16" height="16"></rect>
                        <rect id="Rectangle-path" fill="#4C7521" x="288.5" y="176.5" width="16" height="16"></rect>
                        <rect id="Rectangle-path" fill="#4C7521" x="288.5" y="160.5" width="16" height="16"></rect>
                        <rect id="Rectangle-path" fill="#8CC63F" x="288.5" y="144.5" width="16" height="16"></rect>
                        <rect id="Rectangle-path" fill="#8CC63F" x="288.5" y="128.5" width="16" height="16"></rect>
                        <rect id="Rectangle-path" fill="#8CC63F" x="288.5" y="112.5" width="16" height="16"></rect>
                        <rect id="Rectangle-path" fill="#4C7521" x="288.5" y="96.5" width="16" height="16"></rect>
                        <rect id="Rectangle-path" fill="#4C7521" x="288.5" y="80.5" width="16" height="16"></rect>
                        <rect id="Rectangle-path" fill="#4C7521" x="272.5" y="304.5" width="16" height="16"></rect>
                        <rect id="Rectangle-path" fill="#8CC63F" x="272.5" y="288.5" width="16" height="16"></rect>
                        <rect id="Rectangle-path" fill="#8CC63F" x="272.5" y="272.5" width="16" height="16"></rect>
                        <rect id="Rectangle-path" fill="#4C7521" x="272.5" y="256.5" width="16" height="16"></rect>
                        <rect id="Rectangle-path" fill="#4C7521" x="272.5" y="224.5" width="16" height="16"></rect>
                        <rect id="Rectangle-path" fill="#4C7521" x="272.5" y="208.5" width="16" height="16"></rect>
                        <rect id="Rectangle-path" fill="#4C7521" x="272.5" y="192.5" width="16" height="16"></rect>
                        <rect id="Rectangle-path" fill="#8CC63F" x="272.5" y="176.5" width="16" height="16"></rect>
                        <rect id="Rectangle-path" fill="#8CC63F" x="272.5" y="160.5" width="16" height="16"></rect>
                        <rect id="Rectangle-path" fill="#8CC63F" x="272.5" y="144.5" width="16" height="16"></rect>
                        <rect id="Rectangle-path" fill="#8CC63F" x="272.5" y="128.5" width="16" height="16"></rect>
                        <rect id="Rectangle-path" fill="#8CC63F" x="272.5" y="112.5" width="16" height="16"></rect>
                        <rect id="Rectangle-path" fill="#8CC63F" x="272.5" y="96.5" width="16" height="16"></rect>
                        <rect id="Rectangle-path" fill="#8CC63F" x="272.5" y="80.5" width="16" height="16"></rect>
                        <rect id="Rectangle-path" fill="#4C7521" x="272.5" y="64.5" width="16" height="16"></rect>
                        <rect id="Rectangle-path" fill="#4C7521" x="256.5" y="304.5" width="16" height="16"></rect>
                        <rect id="Rectangle-path" fill="#8CC63F" x="256.5" y="288.5" width="16" height="16"></rect>
                        <rect id="Rectangle-path" fill="#8CC63F" x="256.5" y="272.5" width="16" height="16"></rect>
                        <rect id="Rectangle-path" fill="#4C7521" x="256.5" y="256.5" width="16" height="16"></rect>
                        <rect id="Rectangle-path" fill="#4C7521" x="256.5" y="240.5" width="16" height="16"></rect>
                        <rect id="Rectangle-path" fill="#8CC63F" x="256.5" y="224.5" width="16" height="16"></rect>
                        <rect id="Rectangle-path" fill="#8CC63F" x="256.5" y="208.5" width="16" height="16"></rect>
                        <rect id="Rectangle-path" fill="#8CC63F" x="256.5" y="192.5" width="16" height="16"></rect>
                        <rect id="Rectangle-path" fill="#8CC63F" x="256.5" y="176.5" width="16" height="16"></rect>
                        <rect id="Rectangle-path" fill="#8CC63F" x="256.5" y="160.5" width="16" height="16"></rect>
                        <rect id="Rectangle-path" fill="#8CC63F" x="256.5" y="144.5" width="16" height="16"></rect>
                        <rect id="Rectangle-path" fill="#8CC63F" x="256.5" y="128.5" width="16" height="16"></rect>
                        <rect id="Rectangle-path" fill="#FF7BAC" x="256.5" y="112.5" width="16" height="16"></rect>
                        <rect id="Rectangle-path" fill="#FF7BAC" x="256.5" y="96.5" width="16" height="16"></rect>
                        <rect id="Rectangle-path" fill="#8CC63F" x="256.5" y="80.5" width="16" height="16"></rect>
                        <rect id="Rectangle-path" fill="#8CC63F" x="256.5" y="64.5" width="16" height="16"></rect>
                        <rect id="Rectangle-path" fill="#4C7521" x="256.5" y="48.5" width="16" height="16"></rect>
                        <rect id="Rectangle-path" fill="#4C7521" x="240.5" y="304.5" width="16" height="16"></rect>
                        <rect id="Rectangle-path" fill="#8CC63F" x="240.5" y="288.5" width="16" height="16"></rect>
                        <rect id="Rectangle-path" fill="#8CC63F" x="240.5" y="272.5" width="16" height="16"></rect>
                        <rect id="Rectangle-path" fill="#8CC63F" x="240.5" y="256.5" width="16" height="16"></rect>
                        <rect id="Rectangle-path" fill="#8CC63F" x="240.5" y="240.5" width="16" height="16"></rect>
                        <rect id="Rectangle-path" fill="#8CC63F" x="240.5" y="224.5" width="16" height="16"></rect>
                        <rect id="Rectangle-path" fill="#8CC63F" x="240.5" y="208.5" width="16" height="16"></rect>
                        <rect id="Rectangle-path" fill="#8CC63F" x="240.5" y="192.5" width="16" height="16"></rect>
                        <rect id="Rectangle-path" fill="#8CC63F" x="240.5" y="176.5" width="16" height="16"></rect>
                        <rect id="Rectangle-path" fill="#8CC63F" x="240.5" y="160.5" width="16" height="16"></rect>
                        <rect id="Rectangle-path" fill="#8CC63F" x="240.5" y="144.5" width="16" height="16"></rect>
                        <rect id="Rectangle-path" fill="#8CC63F" x="240.5" y="128.5" width="16" height="16"></rect>
                        <rect id="Rectangle-path" fill="#FF7BAC" x="240.5" y="112.5" width="16" height="16"></rect>
                        <rect id="Rectangle-path" fill="#FF7BAC" x="240.5" y="96.5" width="16" height="16"></rect>
                        <rect id="Rectangle-path" fill="#8CC63F" x="240.5" y="80.5" width="16" height="16"></rect>
                        <rect id="Rectangle-path" fill="#8CC63F" x="240.5" y="64.5" width="16" height="16"></rect>
                        <rect id="Rectangle-path" fill="#8CC63F" x="240.5" y="48.5" width="16" height="16"></rect>
                        <rect id="Rectangle-path" fill="#4C7521" x="240.5" y="32.5" width="16" height="16"></rect>
                        <rect id="Rectangle-path" fill="#4C7521" x="224.5" y="304.5" width="16" height="16"></rect>
                        <rect id="Rectangle-path" fill="#8CC63F" x="224.5" y="288.5" width="16" height="16"></rect>
                        <rect id="Rectangle-path" fill="#8CC63F" x="224.5" y="272.5" width="16" height="16"></rect>
                        <rect id="Rectangle-path" fill="#8CC63F" x="224.5" y="256.5" width="16" height="16"></rect>
                        <rect id="Rectangle-path" fill="#8CC63F" x="224.5" y="240.5" width="16" height="16"></rect>
                        <rect id="Rectangle-path" fill="#8CC63F" x="224.5" y="224.5" width="16" height="16"></rect>
                        <rect id="Rectangle-path" fill="#8CC63F" x="224.5" y="208.5" width="16" height="16"></rect>
                        <rect id="Rectangle-path" fill="#8CC63F" x="224.5" y="192.5" width="16" height="16"></rect>
                        <rect id="Rectangle-path" fill="#8CC63F" x="224.5" y="176.5" width="16" height="16"></rect>
                        <rect id="Rectangle-path" fill="#8CC63F" x="224.5" y="160.5" width="16" height="16"></rect>
                        <rect id="Rectangle-path" fill="#8CC63F" x="224.5" y="144.5" width="16" height="16"></rect>
                        <rect id="Rectangle-path" fill="#8CC63F" x="224.5" y="128.5" width="16" height="16"></rect>
                        <rect id="Rectangle-path" fill="#8CC63F" x="224.5" y="112.5" width="16" height="16"></rect>
                        <rect id="Rectangle-path" fill="#8CC63F" x="224.5" y="96.5" width="16" height="16"></rect>
                        <rect id="Rectangle-path" fill="#8CC63F" x="224.5" y="80.5" width="16" height="16"></rect>
                        <rect id="Rectangle-path" fill="#8CC63F" x="224.5" y="64.5" width="16" height="16"></rect>
                        <rect id="Rectangle-path" fill="#8CC63F" x="224.5" y="48.5" width="16" height="16"></rect>
                        <rect id="Rectangle-path" fill="#8CC63F" x="224.5" y="32.5" width="16" height="16"></rect>
                        <rect id="Rectangle-path" fill="#4C7521" x="224.5" y="16.5" width="16" height="16"></rect>
                        <rect id="Rectangle-path" fill="#4C7521" x="208.5" y="304.5" width="16" height="16"></rect>
                        <rect id="Rectangle-path" fill="#8CC63F" x="208.5" y="288.5" width="16" height="16"></rect>
                        <rect id="Rectangle-path" fill="#8CC63F" x="208.5" y="272.5" width="16" height="16"></rect>
                        <rect id="Rectangle-path" fill="#8CC63F" x="208.5" y="256.5" width="16" height="16"></rect>
                        <rect id="Rectangle-path" fill="#8CC63F" x="208.5" y="240.5" width="16" height="16"></rect>
                        <rect id="Rectangle-path" fill="#8CC63F" x="208.5" y="224.5" width="16" height="16"></rect>
                        <rect id="Rectangle-path" fill="#8CC63F" x="208.5" y="208.5" width="16" height="16"></rect>
                        <rect id="Rectangle-path" fill="#8CC63F" x="208.5" y="192.5" width="16" height="16"></rect>
                        <rect id="Rectangle-path" fill="#8CC63F" x="208.5" y="176.5" width="16" height="16"></rect>
                        <rect id="Rectangle-path" fill="#8CC63F" x="208.5" y="160.5" width="16" height="16"></rect>
                        <rect id="Rectangle-path" fill="#8CC63F" x="208.5" y="144.5" width="16" height="16"></rect>
                        <rect id="Rectangle-path" fill="#8CC63F" x="208.5" y="128.5" width="16" height="16"></rect>
                        <rect id="Rectangle-path" fill="#8CC63F" x="208.5" y="112.5" width="16" height="16"></rect>
                        <rect id="Rectangle-path" fill="#8CC63F" x="208.5" y="96.5" width="16" height="16"></rect>
                        <rect id="Rectangle-path" fill="#4D4D4D" x="208.5" y="80.5" width="16" height="16"></rect>
                        <rect id="Rectangle-path" fill="#4D4D4D" x="208.5" y="64.5" width="16" height="16"></rect>
                        <rect id="Rectangle-path" fill="#8CC63F" x="208.5" y="48.5" width="16" height="16"></rect>
                        <rect id="Rectangle-path" fill="#8CC63F" x="208.5" y="32.5" width="16" height="16"></rect>
                        <rect id="Rectangle-path" fill="#8CC63F" x="208.5" y="16.5" width="16" height="16"></rect>
                        <rect id="Rectangle-path" fill="#4C7521" x="208.5" y="0.5" width="16" height="16"></rect>
                        <rect id="Rectangle-path" fill="#4C7521" x="192.5" y="304.5" width="16" height="16"></rect>
                        <rect id="Rectangle-path" fill="#8CC63F" x="192.5" y="288.5" width="16" height="16"></rect>
                        <rect id="Rectangle-path" fill="#8CC63F" x="192.5" y="272.5" width="16" height="16"></rect>
                        <rect id="Rectangle-path" fill="#8CC63F" x="192.5" y="256.5" width="16" height="16"></rect>
                        <rect id="Rectangle-path" fill="#8CC63F" x="192.5" y="240.5" width="16" height="16"></rect>
                        <rect id="Rectangle-path" fill="#8CC63F" x="192.5" y="224.5" width="16" height="16"></rect>
                        <rect id="Rectangle-path" fill="#8CC63F" x="192.5" y="208.5" width="16" height="16"></rect>
                        <rect id="Rectangle-path" fill="#8CC63F" x="192.5" y="192.5" width="16" height="16"></rect>
                        <rect id="Rectangle-path" fill="#8CC63F" x="192.5" y="176.5" width="16" height="16"></rect>
                        <rect id="Rectangle-path" fill="#8CC63F" x="192.5" y="160.5" width="16" height="16"></rect>
                        <rect id="Rectangle-path" fill="#8CC63F" x="192.5" y="144.5" width="16" height="16"></rect>
                        <rect id="Rectangle-path" fill="#8CC63F" x="192.5" y="128.5" width="16" height="16"></rect>
                        <rect id="Rectangle-path" fill="#4D4D4D" x="192.5" y="112.5" width="16" height="16"></rect>
                        <rect id="Rectangle-path" fill="#8CC63F" x="192.5" y="96.5" width="16" height="16"></rect>
                        <rect id="Rectangle-path" fill="#8CC63F" x="192.5" y="80.5" width="16" height="16"></rect>
                        <rect id="Rectangle-path" fill="#8CC63F" x="192.5" y="64.5" width="16" height="16"></rect>
                        <rect id="Rectangle-path" fill="#8CC63F" x="192.5" y="48.5" width="16" height="16"></rect>
                        <rect id="Rectangle-path" fill="#8CC63F" x="192.5" y="32.5" width="16" height="16"></rect>
                        <rect id="Rectangle-path" fill="#8CC63F" x="192.5" y="16.5" width="16" height="16"></rect>
                        <rect id="Rectangle-path" fill="#4C7521" x="192.5" y="0.5" width="16" height="16"></rect>
                        <rect id="Rectangle-path" fill="#4C7521" x="176.5" y="304.5" width="16" height="16"></rect>
                        <rect id="Rectangle-path" fill="#8CC63F" x="176.5" y="288.5" width="16" height="16"></rect>
                        <rect id="Rectangle-path" fill="#8CC63F" x="176.5" y="272.5" width="16" height="16"></rect>
                        <rect id="Rectangle-path" fill="#8CC63F" x="176.5" y="256.5" width="16" height="16"></rect>
                        <rect id="Rectangle-path" fill="#8CC63F" x="176.5" y="240.5" width="16" height="16"></rect>
                        <rect id="Rectangle-path" fill="#8CC63F" x="176.5" y="224.5" width="16" height="16"></rect>
                        <rect id="Rectangle-path" fill="#8CC63F" x="176.5" y="208.5" width="16" height="16"></rect>
                        <rect id="Rectangle-path" fill="#8CC63F" x="176.5" y="192.5" width="16" height="16"></rect>
                        <rect id="Rectangle-path" fill="#8CC63F" x="176.5" y="176.5" width="16" height="16"></rect>
                        <rect id="Rectangle-path" fill="#8CC63F" x="176.5" y="160.5" width="16" height="16"></rect>
                        <rect id="Rectangle-path" fill="#8CC63F" x="176.5" y="144.5" width="16" height="16"></rect>
                        <rect id="Rectangle-path" fill="#8CC63F" x="176.5" y="128.5" width="16" height="16"></rect>
                        <rect id="Rectangle-path" fill="#4D4D4D" x="176.5" y="112.5" width="16" height="16"></rect>
                        <rect id="Rectangle-path" fill="#8CC63F" x="176.5" y="96.5" width="16" height="16"></rect>
                        <rect id="Rectangle-path" fill="#8CC63F" x="176.5" y="80.5" width="16" height="16"></rect>
                        <rect id="Rectangle-path" fill="#8CC63F" x="176.5" y="64.5" width="16" height="16"></rect>
                        <rect id="Rectangle-path" fill="#8CC63F" x="176.5" y="48.5" width="16" height="16"></rect>
                        <rect id="Rectangle-path" fill="#8CC63F" x="176.5" y="32.5" width="16" height="16"></rect>
                        <rect id="Rectangle-path" fill="#8CC63F" x="176.5" y="16.5" width="16" height="16"></rect>
                        <rect id="Rectangle-path" fill="#4C7521" x="176.5" y="0.5" width="16" height="16"></rect>
                        <rect id="Rectangle-path" fill="#4C7521" x="160.5" y="304.5" width="16" height="16"></rect>
                        <rect id="Rectangle-path" fill="#8CC63F" x="160.5" y="288.5" width="16" height="16"></rect>
                        <rect id="Rectangle-path" fill="#8CC63F" x="160.5" y="272.5" width="16" height="16"></rect>
                        <rect id="Rectangle-path" fill="#8CC63F" x="160.5" y="256.5" width="16" height="16"></rect>
                        <rect id="Rectangle-path" fill="#8CC63F" x="160.5" y="240.5" width="16" height="16"></rect>
                        <rect id="Rectangle-path" fill="#8CC63F" x="160.5" y="224.5" width="16" height="16"></rect>
                        <rect id="Rectangle-path" fill="#8CC63F" x="160.5" y="208.5" width="16" height="16"></rect>
                        <rect id="Rectangle-path" fill="#8CC63F" x="160.5" y="192.5" width="16" height="16"></rect>
                        <rect id="Rectangle-path" fill="#8CC63F" x="160.5" y="176.5" width="16" height="16"></rect>
                        <rect id="Rectangle-path" fill="#8CC63F" x="160.5" y="160.5" width="16" height="16"></rect>
                        <rect id="Rectangle-path" fill="#8CC63F" x="160.5" y="144.5" width="16" height="16"></rect>
                        <rect id="Rectangle-path" fill="#8CC63F" x="160.5" y="128.5" width="16" height="16"></rect>
                        <rect id="Rectangle-path" fill="#4D4D4D" x="160.5" y="112.5" width="16" height="16"></rect>
                        <rect id="Rectangle-path" fill="#8CC63F" x="160.5" y="96.5" width="16" height="16"></rect>
                        <rect id="Rectangle-path" fill="#8CC63F" x="160.5" y="80.5" width="16" height="16"></rect>
                        <rect id="Rectangle-path" fill="#8CC63F" x="160.5" y="64.5" width="16" height="16"></rect>
                        <rect id="Rectangle-path" fill="#8CC63F" x="160.5" y="48.5" width="16" height="16"></rect>
                        <rect id="Rectangle-path" fill="#8CC63F" x="160.5" y="32.5" width="16" height="16"></rect>
                        <rect id="Rectangle-path" fill="#8CC63F" x="160.5" y="16.5" width="16" height="16"></rect>
                        <rect id="Rectangle-path" fill="#4C7521" x="160.5" y="0.5" width="16" height="16"></rect>
                        <rect id="Rectangle-path" fill="#4C7521" x="144.5" y="304.5" width="16" height="16"></rect>
                        <rect id="Rectangle-path" fill="#8CC63F" x="144.5" y="288.5" width="16" height="16"></rect>
                        <rect id="Rectangle-path" fill="#8CC63F" x="144.5" y="272.5" width="16" height="16"></rect>
                        <rect id="Rectangle-path" fill="#8CC63F" x="144.5" y="256.5" width="16" height="16"></rect>
                        <rect id="Rectangle-path" fill="#8CC63F" x="144.5" y="240.5" width="16" height="16"></rect>
                        <rect id="Rectangle-path" fill="#8CC63F" x="144.5" y="224.5" width="16" height="16"></rect>
                        <rect id="Rectangle-path" fill="#8CC63F" x="144.5" y="208.5" width="16" height="16"></rect>
                        <rect id="Rectangle-path" fill="#8CC63F" x="144.5" y="192.5" width="16" height="16"></rect>
                        <rect id="Rectangle-path" fill="#8CC63F" x="144.5" y="176.5" width="16" height="16"></rect>
                        <rect id="Rectangle-path" fill="#8CC63F" x="144.5" y="160.5" width="16" height="16"></rect>
                        <rect id="Rectangle-path" fill="#8CC63F" x="144.5" y="144.5" width="16" height="16"></rect>
                        <rect id="Rectangle-path" fill="#8CC63F" x="144.5" y="128.5" width="16" height="16"></rect>
                        <rect id="Rectangle-path" fill="#4D4D4D" x="144.5" y="112.5" width="16" height="16"></rect>
                        <rect id="Rectangle-path" fill="#8CC63F" x="144.5" y="96.5" width="16" height="16"></rect>
                        <rect id="Rectangle-path" fill="#8CC63F" x="144.5" y="80.5" width="16" height="16"></rect>
                        <rect id="Rectangle-path" fill="#8CC63F" x="144.5" y="64.5" width="16" height="16"></rect>
                        <rect id="Rectangle-path" fill="#8CC63F" x="144.5" y="48.5" width="16" height="16"></rect>
                        <rect id="Rectangle-path" fill="#8CC63F" x="144.5" y="32.5" width="16" height="16"></rect>
                        <rect id="Rectangle-path" fill="#8CC63F" x="144.5" y="16.5" width="16" height="16"></rect>
                        <rect id="Rectangle-path" fill="#4C7521" x="144.5" y="0.5" width="16" height="16"></rect>
                        <rect id="Rectangle-path" fill="#4C7521" x="128.5" y="288.5" width="16" height="16"></rect>
                        <rect id="Rectangle-path" fill="#8CC63F" x="128.5" y="272.5" width="16" height="16"></rect>
                        <rect id="Rectangle-path" fill="#8CC63F" x="128.5" y="256.5" width="16" height="16"></rect>
                        <rect id="Rectangle-path" fill="#8CC63F" x="128.5" y="240.5" width="16" height="16"></rect>
                        <rect id="Rectangle-path" fill="#8CC63F" x="128.5" y="224.5" width="16" height="16"></rect>
                        <rect id="Rectangle-path" fill="#8CC63F" x="128.5" y="208.5" width="16" height="16"></rect>
                        <rect id="Rectangle-path" fill="#8CC63F" x="128.5" y="192.5" width="16" height="16"></rect>
                        <rect id="Rectangle-path" fill="#8CC63F" x="128.5" y="176.5" width="16" height="16"></rect>
                        <rect id="Rectangle-path" fill="#8CC63F" x="128.5" y="160.5" width="16" height="16"></rect>
                        <rect id="Rectangle-path" fill="#8CC63F" x="128.5" y="144.5" width="16" height="16"></rect>
                        <rect id="Rectangle-path" fill="#8CC63F" x="128.5" y="128.5" width="16" height="16"></rect>
                        <rect id="Rectangle-path" fill="#8CC63F" x="128.5" y="112.5" width="16" height="16"></rect>
                        <rect id="Rectangle-path" fill="#8CC63F" x="128.5" y="96.5" width="16" height="16"></rect>
                        <rect id="Rectangle-path" fill="#4D4D4D" x="128.5" y="80.5" width="16" height="16"></rect>
                        <rect id="Rectangle-path" fill="#4D4D4D" x="128.5" y="64.5" width="16" height="16"></rect>
                        <rect id="Rectangle-path" fill="#8CC63F" x="128.5" y="48.5" width="16" height="16"></rect>
                        <rect id="Rectangle-path" fill="#8CC63F" x="128.5" y="32.5" width="16" height="16"></rect>
                        <rect id="Rectangle-path" fill="#8CC63F" x="128.5" y="16.5" width="16" height="16"></rect>
                        <rect id="Rectangle-path" fill="#4C7521" x="128.5" y="0.5" width="16" height="16"></rect>
                        <rect id="Rectangle-path" fill="#4C7521" x="112.5" y="272.5" width="16" height="16"></rect>
                        <rect id="Rectangle-path" fill="#8CC63F" x="112.5" y="256.5" width="16" height="16"></rect>
                        <rect id="Rectangle-path" fill="#8CC63F" x="112.5" y="240.5" width="16" height="16"></rect>
                        <rect id="Rectangle-path" fill="#8CC63F" x="112.5" y="224.5" width="16" height="16"></rect>
                        <rect id="Rectangle-path" fill="#8CC63F" x="112.5" y="208.5" width="16" height="16"></rect>
                        <rect id="Rectangle-path" fill="#8CC63F" x="112.5" y="192.5" width="16" height="16"></rect>
                        <rect id="Rectangle-path" fill="#8CC63F" x="112.5" y="176.5" width="16" height="16"></rect>
                        <rect id="Rectangle-path" fill="#8CC63F" x="112.5" y="160.5" width="16" height="16"></rect>
                        <rect id="Rectangle-path" fill="#8CC63F" x="112.5" y="144.5" width="16" height="16"></rect>
                        <rect id="Rectangle-path" fill="#8CC63F" x="112.5" y="128.5" width="16" height="16"></rect>
                        <rect id="Rectangle-path" fill="#8CC63F" x="112.5" y="112.5" width="16" height="16"></rect>
                        <rect id="Rectangle-path" fill="#8CC63F" x="112.5" y="96.5" width="16" height="16"></rect>
                        <rect id="Rectangle-path" fill="#8CC63F" x="112.5" y="80.5" width="16" height="16"></rect>
                        <rect id="Rectangle-path" fill="#8CC63F" x="112.5" y="64.5" width="16" height="16"></rect>
                        <rect id="Rectangle-path" fill="#8CC63F" x="112.5" y="48.5" width="16" height="16"></rect>
                        <rect id="Rectangle-path" fill="#8CC63F" x="112.5" y="32.5" width="16" height="16"></rect>
                        <rect id="Rectangle-path" fill="#4C7521" x="112.5" y="16.5" width="16" height="16"></rect>
                        <rect id="Rectangle-path" fill="#4C7521" x="96.5" y="256.5" width="16" height="16"></rect>
                        <rect id="Rectangle-path" fill="#8CC63F" x="96.5" y="240.5" width="16" height="16"></rect>
                        <rect id="Rectangle-path" fill="#8CC63F" x="96.5" y="224.5" width="16" height="16"></rect>
                        <rect id="Rectangle-path" fill="#8CC63F" x="96.5" y="208.5" width="16" height="16"></rect>
                        <rect id="Rectangle-path" fill="#8CC63F" x="96.5" y="192.5" width="16" height="16"></rect>
                        <rect id="Rectangle-path" fill="#8CC63F" x="96.5" y="176.5" width="16" height="16"></rect>
                        <rect id="Rectangle-path" fill="#8CC63F" x="96.5" y="160.5" width="16" height="16"></rect>
                        <rect id="Rectangle-path" fill="#8CC63F" x="96.5" y="144.5" width="16" height="16"></rect>
                        <rect id="Rectangle-path" fill="#8CC63F" x="96.5" y="128.5" width="16" height="16"></rect>
                        <rect id="Rectangle-path" fill="#FF7BAC" x="96.5" y="112.5" width="16" height="16"></rect>
                        <rect id="Rectangle-path" fill="#FF7BAC" x="96.5" y="96.5" width="16" height="16"></rect>
                        <rect id="Rectangle-path" fill="#8CC63F" x="96.5" y="80.5" width="16" height="16"></rect>
                        <rect id="Rectangle-path" fill="#8CC63F" x="96.5" y="64.5" width="16" height="16"></rect>
                        <rect id="Rectangle-path" fill="#8CC63F" x="96.5" y="48.5" width="16" height="16"></rect>
                        <rect id="Rectangle-path" fill="#4C7521" x="96.5" y="32.5" width="16" height="16"></rect>
                        <rect id="Rectangle-path" fill="#4C7521" x="80.5" y="240.5" width="16" height="16"></rect>
                        <rect id="Rectangle-path" fill="#8CC63F" x="80.5" y="224.5" width="16" height="16"></rect>
                        <rect id="Rectangle-path" fill="#8CC63F" x="80.5" y="208.5" width="16" height="16"></rect>
                        <rect id="Rectangle-path" fill="#8CC63F" x="80.5" y="192.5" width="16" height="16"></rect>
                        <rect id="Rectangle-path" fill="#8CC63F" x="80.5" y="176.5" width="16" height="16"></rect>
                        <rect id="Rectangle-path" fill="#8CC63F" x="80.5" y="160.5" width="16" height="16"></rect>
                        <rect id="Rectangle-path" fill="#8CC63F" x="80.5" y="144.5" width="16" height="16"></rect>
                        <rect id="Rectangle-path" fill="#8CC63F" x="80.5" y="128.5" width="16" height="16"></rect>
                        <rect id="Rectangle-path" fill="#FF7BAC" x="80.5" y="112.5" width="16" height="16"></rect>
                        <rect id="Rectangle-path" fill="#FF7BAC" x="80.5" y="96.5" width="16" height="16"></rect>
                        <rect id="Rectangle-path" fill="#8CC63F" x="80.5" y="80.5" width="16" height="16"></rect>
                        <rect id="Rectangle-path" fill="#8CC63F" x="80.5" y="64.5" width="16" height="16"></rect>
                        <rect id="Rectangle-path" fill="#4C7521" x="80.5" y="48.5" width="16" height="16"></rect>
                        <rect id="Rectangle-path" fill="#4C7521" x="64.5" y="224.5" width="16" height="16"></rect>
                        <rect id="Rectangle-path" fill="#8CC63F" x="64.5" y="208.5" width="16" height="16"></rect>
                        <rect id="Rectangle-path" fill="#8CC63F" x="64.5" y="192.5" width="16" height="16"></rect>
                        <rect id="Rectangle-path" fill="#8CC63F" x="64.5" y="176.5" width="16" height="16"></rect>
                        <rect id="Rectangle-path" fill="#8CC63F" x="64.5" y="160.5" width="16" height="16"></rect>
                        <rect id="Rectangle-path" fill="#8CC63F" x="64.5" y="144.5" width="16" height="16"></rect>
                        <rect id="Rectangle-path" fill="#8CC63F" x="64.5" y="128.5" width="16" height="16"></rect>
                        <rect id="Rectangle-path" fill="#8CC63F" x="64.5" y="112.5" width="16" height="16"></rect>
                        <rect id="Rectangle-path" fill="#8CC63F" x="64.5" y="96.5" width="16" height="16"></rect>
                        <rect id="Rectangle-path" fill="#8CC63F" x="64.5" y="80.5" width="16" height="16"></rect>
                        <rect id="Rectangle-path" fill="#4C7521" x="64.5" y="64.5" width="16" height="16"></rect>
                        <rect id="Rectangle-path" fill="#4C7521" x="48.5" y="208.5" width="16" height="16"></rect>
                        <rect id="Rectangle-path" fill="#4C7521" x="48.5" y="192.5" width="16" height="16"></rect>
                        <rect id="Rectangle-path" fill="#4C7521" x="48.5" y="176.5" width="16" height="16"></rect>
                        <rect id="Rectangle-path" fill="#4C7521" x="48.5" y="160.5" width="16" height="16"></rect>
                        <rect id="Rectangle-path" fill="#8CC63F" x="48.5" y="144.5" width="16" height="16"></rect>
                        <rect id="Rectangle-path" fill="#8CC63F" x="48.5" y="128.5" width="16" height="16"></rect>
                        <rect id="Rectangle-path" fill="#8CC63F" x="48.5" y="112.5" width="16" height="16"></rect>
                        <rect id="Rectangle-path" fill="#4C7521" x="48.5" y="96.5" width="16" height="16"></rect>
                        <rect id="Rectangle-path" fill="#4C7521" x="48.5" y="80.5" width="16" height="16"></rect>
                        <rect id="Rectangle-path" fill="#4C7521" x="32.5" y="144.5" width="16" height="16"></rect>
                        <rect id="Rectangle-path" fill="#8CC63F" x="32.5" y="128.5" width="16" height="16"></rect>
                        <rect id="Rectangle-path" fill="#4C7521" x="32.5" y="112.5" width="16" height="16"></rect>
                        <rect id="Rectangle-path" fill="#4C7521" x="32.5" y="96.5" width="16" height="16"></rect>
                        <rect id="Rectangle-path" fill="#4C7521" x="16.5" y="144.5" width="16" height="16"></rect>
                        <rect id="Rectangle-path" fill="#8CC63F" x="16.5" y="128.5" width="16" height="16"></rect>
                        <rect id="Rectangle-path" fill="#8CC63F" x="16.5" y="112.5" width="16" height="16"></rect>
                        <rect id="Rectangle-path" fill="#4C7521" x="16.5" y="96.5" width="16" height="16"></rect>
                        <rect id="Rectangle-path" fill="#4C7521" x="0.5" y="144.5" width="16" height="16"></rect>
                        <rect id="Rectangle-path" fill="#4C7521" x="0.5" y="128.5" width="16" height="16"></rect>
                        <rect id="Rectangle-path" fill="#4C7521" x="0.5" y="112.5" width="16" height="16"></rect>
                        <rect id="Rectangle-path" fill="#4C7521" x="0.5" y="96.5" width="16" height="16"></rect>
                    </g>
                </g>
            </g>
        </g>
    </g>
</svg>