<?xml version="1.0" encoding="utf-8"?>
<!-- Generator: Adobe Illustrator 18.1.1, SVG Export Plug-In . SVG Version: 6.00 Build 0)  -->
<!DOCTYPE svg PUBLIC "-//W3C//DTD SVG 1.1//EN" "http://www.w3.org/Graphics/SVG/1.1/DTD/svg11.dtd">
<svg version="1.1" id="Layer_1" xmlns:sketch="http://www.bohemiancoding.com/sketch/ns"
	 xmlns="http://www.w3.org/2000/svg" xmlns:xlink="http://www.w3.org/1999/xlink" x="0px" y="0px" viewBox="0 0 80 80"
	 enable-background="new 0 0 80 80" xml:space="preserve">
<title>Tadpole</title>
<desc>Created with Sketch.</desc>
<g id="Welcome_1_" sketch:type="MSPage">
	<g id="Tadpole_Happy" sketch:type="MSLayerGroup">
		<g id="XMLID_2_" sketch:type="MSShapeGroup">
			<g id="Group_1_">
				<rect id="Rectangle-path_608_" x="81" y="32.5" fill="#4C7521" width="3.6" height="3.6"/>
				<rect id="Rectangle-path_607_" x="81" y="28.9" fill="#4C7521" width="3.6" height="3.6"/>
				<rect id="Rectangle-path_606_" x="81" y="25.4" fill="#4C7521" width="3.6" height="3.6"/>
				<rect id="Rectangle-path_605_" x="77.4" y="78.9" fill="#4C7521" width="3.6" height="3.6"/>
				<rect id="Rectangle-path_604_" x="77.4" y="75.3" fill="#4C7521" width="3.6" height="3.6"/>
				<rect id="Rectangle-path_603_" x="77.4" y="71.7" fill="#4C7521" width="3.6" height="3.6"/>
				<rect id="Rectangle-path_602_" x="77.4" y="68.2" fill="#4C7521" width="3.6" height="3.6"/>
				<rect id="Rectangle-path_601_" x="77.4" y="36.1" fill="#4C7521" width="3.6" height="3.6"/>
				<rect id="Rectangle-path_600_" x="77.4" y="32.5" fill="#8CC63F" width="3.6" height="3.6"/>
				<rect id="Rectangle-path_599_" x="77.4" y="28.9" fill="#8CC63F" width="3.6" height="3.6"/>
				<rect id="Rectangle-path_598_" x="77.4" y="25.4" fill="#8CC63F" width="3.6" height="3.6"/>
				<rect id="Rectangle-path_597_" x="77.4" y="21.8" fill="#4C7521" width="3.6" height="3.6"/>
				<rect id="Rectangle-path_596_" x="73.9" y="78.9" fill="#4C7521" width="3.6" height="3.6"/>
				<rect id="Rectangle-path_595_" x="73.9" y="75.3" fill="#8CC63F" width="3.6" height="3.6"/>
				<rect id="Rectangle-path_594_" x="73.9" y="71.7" fill="#8CC63F" width="3.6" height="3.6"/>
				<rect id="Rectangle-path_593_" x="73.9" y="68.2" fill="#8CC63F" width="3.6" height="3.6"/>
				<rect id="Rectangle-path_592_" x="73.9" y="64.6" fill="#4C7521" width="3.6" height="3.6"/>
				<rect id="Rectangle-path_591_" x="73.9" y="36.1" fill="#4C7521" width="3.6" height="3.6"/>
				<rect id="Rectangle-path_590_" x="73.9" y="32.5" fill="#8CC63F" width="3.6" height="3.6"/>
				<rect id="Rectangle-path_589_" x="73.9" y="28.9" fill="#8CC63F" width="3.6" height="3.6"/>
				<rect id="Rectangle-path_588_" x="73.9" y="25.4" fill="#8CC63F" width="3.6" height="3.6"/>
				<rect id="Rectangle-path_587_" x="73.9" y="21.8" fill="#4C7521" width="3.6" height="3.6"/>
				<rect id="Rectangle-path_586_" x="70.3" y="75.3" fill="#4C7521" width="3.6" height="3.6"/>
				<rect id="Rectangle-path_585_" x="70.3" y="71.7" fill="#8CC63F" width="3.6" height="3.6"/>
				<rect id="Rectangle-path_584_" x="70.3" y="68.2" fill="#8CC63F" width="3.6" height="3.6"/>
				<rect id="Rectangle-path_583_" x="70.3" y="64.6" fill="#4C7521" width="3.6" height="3.6"/>
				<rect id="Rectangle-path_582_" x="70.3" y="36.1" fill="#4C7521" width="3.6" height="3.6"/>
				<rect id="Rectangle-path_581_" x="70.3" y="32.5" fill="#8CC63F" width="3.6" height="3.6"/>
				<rect id="Rectangle-path_580_" x="70.3" y="28.9" fill="#4C7521" width="3.6" height="3.6"/>
				<rect id="Rectangle-path_579_" x="70.3" y="25.4" fill="#4C7521" width="3.6" height="3.6"/>
				<rect id="Rectangle-path_578_" x="66.7" y="75.3" fill="#4C7521" width="3.6" height="3.6"/>
				<rect id="Rectangle-path_577_" x="66.7" y="71.7" fill="#8CC63F" width="3.6" height="3.6"/>
				<rect id="Rectangle-path_576_" x="66.7" y="68.2" fill="#8CC63F" width="3.6" height="3.6"/>
				<rect id="Rectangle-path_575_" x="66.7" y="64.6" fill="#4C7521" width="3.6" height="3.6"/>
				<rect id="Rectangle-path_574_" x="66.7" y="46.8" fill="#4C7521" width="3.6" height="3.6"/>
				<rect id="Rectangle-path_573_" x="66.7" y="43.2" fill="#4C7521" width="3.6" height="3.6"/>
				<rect id="Rectangle-path_572_" x="66.7" y="39.6" fill="#4C7521" width="3.6" height="3.6"/>
				<rect id="Rectangle-path_571_" x="66.7" y="36.1" fill="#8CC63F" width="3.6" height="3.6"/>
				<rect id="Rectangle-path_570_" x="66.7" y="32.5" fill="#8CC63F" width="3.6" height="3.6"/>
				<rect id="Rectangle-path_569_" x="66.7" y="28.9" fill="#8CC63F" width="3.6" height="3.6"/>
				<rect id="Rectangle-path_568_" x="66.7" y="25.4" fill="#4C7521" width="3.6" height="3.6"/>
				<rect id="Rectangle-path_567_" x="66.7" y="21.8" fill="#4C7521" width="3.6" height="3.6"/>
				<rect id="Rectangle-path_566_" x="63.2" y="71.7" fill="#4C7521" width="3.6" height="3.6"/>
				<rect id="Rectangle-path_565_" x="63.2" y="68.2" fill="#8CC63F" width="3.6" height="3.6"/>
				<rect id="Rectangle-path_564_" x="63.2" y="64.6" fill="#8CC63F" width="3.6" height="3.6"/>
				<rect id="Rectangle-path_563_" x="63.2" y="61" fill="#4C7521" width="3.6" height="3.6"/>
				<rect id="Rectangle-path_562_" x="63.2" y="53.9" fill="#4C7521" width="3.6" height="3.6"/>
				<rect id="Rectangle-path_561_" x="63.2" y="50.3" fill="#4C7521" width="3.6" height="3.6"/>
				<rect id="Rectangle-path_560_" x="63.2" y="46.8" fill="#4C7521" width="3.6" height="3.6"/>
				<rect id="Rectangle-path_559_" x="63.2" y="43.2" fill="#8CC63F" width="3.6" height="3.6"/>
				<rect id="Rectangle-path_558_" x="63.2" y="39.6" fill="#8CC63F" width="3.6" height="3.6"/>
				<rect id="Rectangle-path_557_" x="63.2" y="36.1" fill="#8CC63F" width="3.6" height="3.6"/>
				<rect id="Rectangle-path_556_" x="63.2" y="32.5" fill="#8CC63F" width="3.6" height="3.6"/>
				<rect id="Rectangle-path_555_" x="63.2" y="28.9" fill="#8CC63F" width="3.6" height="3.6"/>
				<rect id="Rectangle-path_554_" x="63.2" y="25.4" fill="#8CC63F" width="3.6" height="3.6"/>
				<rect id="Rectangle-path_553_" x="63.2" y="21.8" fill="#8CC63F" width="3.6" height="3.6"/>
				<rect id="Rectangle-path_552_" x="63.2" y="18.2" fill="#4C7521" width="3.6" height="3.6"/>
				<rect id="Rectangle-path_551_" x="59.6" y="71.7" fill="#4C7521" width="3.6" height="3.6"/>
				<rect id="Rectangle-path_550_" x="59.6" y="68.2" fill="#8CC63F" width="3.6" height="3.6"/>
				<rect id="Rectangle-path_549_" x="59.6" y="64.6" fill="#8CC63F" width="3.6" height="3.6"/>
				<rect id="Rectangle-path_548_" x="59.6" y="61" fill="#4C7521" width="3.6" height="3.6"/>
				<rect id="Rectangle-path_547_" x="59.6" y="57.5" fill="#4C7521" width="3.6" height="3.6"/>
				<rect id="Rectangle-path_546_" x="59.6" y="53.9" fill="#8CC63F" width="3.6" height="3.6"/>
				<rect id="Rectangle-path_545_" x="59.6" y="50.3" fill="#8CC63F" width="3.6" height="3.6"/>
				<rect id="Rectangle-path_544_" x="59.6" y="46.8" fill="#8CC63F" width="3.6" height="3.6"/>
				<rect id="Rectangle-path_543_" x="59.6" y="43.2" fill="#8CC63F" width="3.6" height="3.6"/>
				<rect id="Rectangle-path_542_" x="59.6" y="39.6" fill="#8CC63F" width="3.6" height="3.6"/>
				<rect id="Rectangle-path_541_" x="59.6" y="36.1" fill="#8CC63F" width="3.6" height="3.6"/>
				<rect id="Rectangle-path_540_" x="59.6" y="32.5" fill="#8CC63F" width="3.6" height="3.6"/>
				<rect id="Rectangle-path_539_" x="59.6" y="28.9" fill="#FF7BAC" width="3.6" height="3.6"/>
				<rect id="Rectangle-path_538_" x="59.6" y="25.4" fill="#FF7BAC" width="3.6" height="3.6"/>
				<rect id="Rectangle-path_537_" x="59.6" y="21.8" fill="#8CC63F" width="3.6" height="3.6"/>
				<rect id="Rectangle-path_536_" x="59.6" y="18.2" fill="#8CC63F" width="3.6" height="3.6"/>
				<rect id="Rectangle-path_535_" x="59.6" y="14.7" fill="#4C7521" width="3.6" height="3.6"/>
				<rect id="Rectangle-path_534_" x="56" y="71.7" fill="#4C7521" width="3.6" height="3.6"/>
				<rect id="Rectangle-path_533_" x="56" y="68.2" fill="#8CC63F" width="3.6" height="3.6"/>
				<rect id="Rectangle-path_532_" x="56" y="64.6" fill="#8CC63F" width="3.6" height="3.6"/>
				<rect id="Rectangle-path_531_" x="56" y="61" fill="#8CC63F" width="3.6" height="3.6"/>
				<rect id="Rectangle-path_530_" x="56" y="57.5" fill="#8CC63F" width="3.6" height="3.6"/>
				<rect id="Rectangle-path_529_" x="56" y="53.9" fill="#8CC63F" width="3.6" height="3.6"/>
				<rect id="Rectangle-path_528_" x="56" y="50.3" fill="#8CC63F" width="3.6" height="3.6"/>
				<rect id="Rectangle-path_527_" x="56" y="46.8" fill="#8CC63F" width="3.6" height="3.6"/>
				<rect id="Rectangle-path_526_" x="56" y="43.2" fill="#8CC63F" width="3.6" height="3.6"/>
				<rect id="Rectangle-path_525_" x="56" y="39.6" fill="#8CC63F" width="3.6" height="3.6"/>
				<rect id="Rectangle-path_524_" x="56" y="36.1" fill="#8CC63F" width="3.6" height="3.6"/>
				<rect id="Rectangle-path_523_" x="56" y="32.5" fill="#8CC63F" width="3.6" height="3.6"/>
				<rect id="Rectangle-path_522_" x="56" y="28.9" fill="#FF7BAC" width="3.6" height="3.6"/>
				<rect id="Rectangle-path_521_" x="56" y="25.4" fill="#FF7BAC" width="3.6" height="3.6"/>
				<rect id="Rectangle-path_520_" x="56" y="21.8" fill="#8CC63F" width="3.6" height="3.6"/>
				<rect id="Rectangle-path_519_" x="56" y="18.2" fill="#8CC63F" width="3.6" height="3.6"/>
				<rect id="Rectangle-path_518_" x="56" y="14.7" fill="#8CC63F" width="3.6" height="3.6"/>
				<rect id="Rectangle-path_517_" x="56" y="11.1" fill="#4C7521" width="3.6" height="3.6"/>
				<rect id="Rectangle-path_516_" x="52.5" y="71.7" fill="#4C7521" width="3.6" height="3.6"/>
				<rect id="Rectangle-path_515_" x="52.5" y="68.2" fill="#8CC63F" width="3.6" height="3.6"/>
				<rect id="Rectangle-path_514_" x="52.5" y="64.6" fill="#8CC63F" width="3.6" height="3.6"/>
				<rect id="Rectangle-path_513_" x="52.5" y="61" fill="#8CC63F" width="3.6" height="3.6"/>
				<rect id="Rectangle-path_512_" x="52.5" y="57.5" fill="#8CC63F" width="3.6" height="3.6"/>
				<rect id="Rectangle-path_511_" x="52.5" y="53.9" fill="#8CC63F" width="3.6" height="3.6"/>
				<rect id="Rectangle-path_510_" x="52.5" y="50.3" fill="#8CC63F" width="3.6" height="3.6"/>
				<rect id="Rectangle-path_509_" x="52.5" y="46.8" fill="#8CC63F" width="3.6" height="3.6"/>
				<rect id="Rectangle-path_508_" x="52.5" y="43.2" fill="#8CC63F" width="3.6" height="3.6"/>
				<rect id="Rectangle-path_507_" x="52.5" y="39.6" fill="#8CC63F" width="3.6" height="3.6"/>
				<rect id="Rectangle-path_506_" x="52.5" y="36.1" fill="#8CC63F" width="3.6" height="3.6"/>
				<rect id="Rectangle-path_505_" x="52.5" y="32.5" fill="#8CC63F" width="3.6" height="3.6"/>
				<rect id="Rectangle-path_504_" x="52.5" y="28.9" fill="#8CC63F" width="3.6" height="3.6"/>
				<rect id="Rectangle-path_503_" x="52.5" y="25.4" fill="#8CC63F" width="3.6" height="3.6"/>
				<rect id="Rectangle-path_502_" x="52.5" y="21.8" fill="#4D4D4D" width="3.6" height="3.6"/>
				<rect id="Rectangle-path_501_" x="52.5" y="18.2" fill="#4D4D4D" width="3.6" height="3.6"/>
				<rect id="Rectangle-path_500_" x="52.5" y="14.7" fill="#8CC63F" width="3.6" height="3.6"/>
				<rect id="Rectangle-path_499_" x="52.5" y="11.1" fill="#8CC63F" width="3.6" height="3.6"/>
				<rect id="Rectangle-path_498_" x="52.5" y="7.5" fill="#4C7521" width="3.6" height="3.6"/>
				<rect id="Rectangle-path_497_" x="48.9" y="71.7" fill="#4C7521" width="3.6" height="3.6"/>
				<rect id="Rectangle-path_496_" x="48.9" y="68.2" fill="#8CC63F" width="3.6" height="3.6"/>
				<rect id="Rectangle-path_495_" x="48.9" y="64.6" fill="#8CC63F" width="3.6" height="3.6"/>
				<rect id="Rectangle-path_494_" x="48.9" y="61" fill="#8CC63F" width="3.6" height="3.6"/>
				<rect id="Rectangle-path_493_" x="48.9" y="57.5" fill="#8CC63F" width="3.6" height="3.6"/>
				<rect id="Rectangle-path_492_" x="48.9" y="53.9" fill="#8CC63F" width="3.6" height="3.6"/>
				<rect id="Rectangle-path_491_" x="48.9" y="50.3" fill="#8CC63F" width="3.6" height="3.6"/>
				<rect id="Rectangle-path_490_" x="48.9" y="46.8" fill="#8CC63F" width="3.6" height="3.6"/>
				<rect id="Rectangle-path_489_" x="48.9" y="43.2" fill="#8CC63F" width="3.6" height="3.6"/>
				<rect id="Rectangle-path_488_" x="48.9" y="39.6" fill="#8CC63F" width="3.6" height="3.6"/>
				<rect id="Rectangle-path_487_" x="48.9" y="36.1" fill="#8CC63F" width="3.6" height="3.6"/>
				<rect id="Rectangle-path_486_" x="48.9" y="32.5" fill="#8CC63F" width="3.6" height="3.6"/>
				<rect id="Rectangle-path_485_" x="48.9" y="28.9" fill="#4D4D4D" width="3.6" height="3.6"/>
				<rect id="Rectangle-path_484_" x="48.9" y="25.4" fill="#8CC63F" width="3.6" height="3.6"/>
				<rect id="Rectangle-path_483_" x="48.9" y="21.8" fill="#4D4D4D" width="3.6" height="3.6"/>
				<rect id="Rectangle-path_482_" x="48.9" y="18.2" fill="#4D4D4D" width="3.6" height="3.6"/>
				<rect id="Rectangle-path_481_" x="48.9" y="14.7" fill="#8CC63F" width="3.6" height="3.6"/>
				<rect id="Rectangle-path_480_" x="48.9" y="11.1" fill="#8CC63F" width="3.6" height="3.6"/>
				<rect id="Rectangle-path_479_" x="48.9" y="7.5" fill="#8CC63F" width="3.6" height="3.6"/>
				<rect id="Rectangle-path_478_" x="48.9" y="4" fill="#4C7521" width="3.6" height="3.6"/>
				<rect id="Rectangle-path_477_" x="45.3" y="71.7" fill="#4C7521" width="3.6" height="3.6"/>
				<rect id="Rectangle-path_476_" x="45.3" y="68.2" fill="#8CC63F" width="3.6" height="3.6"/>
				<rect id="Rectangle-path_475_" x="45.3" y="64.6" fill="#8CC63F" width="3.6" height="3.6"/>
				<rect id="Rectangle-path_474_" x="45.3" y="61" fill="#8CC63F" width="3.6" height="3.6"/>
				<rect id="Rectangle-path_473_" x="45.3" y="57.5" fill="#8CC63F" width="3.6" height="3.6"/>
				<rect id="Rectangle-path_472_" x="45.3" y="53.9" fill="#8CC63F" width="3.6" height="3.6"/>
				<rect id="Rectangle-path_471_" x="45.3" y="50.3" fill="#8CC63F" width="3.6" height="3.6"/>
				<rect id="Rectangle-path_470_" x="45.3" y="46.8" fill="#8CC63F" width="3.6" height="3.6"/>
				<rect id="Rectangle-path_469_" x="45.3" y="43.2" fill="#8CC63F" width="3.6" height="3.6"/>
				<rect id="Rectangle-path_468_" x="45.3" y="39.6" fill="#8CC63F" width="3.6" height="3.6"/>
				<rect id="Rectangle-path_467_" x="45.3" y="36.1" fill="#8CC63F" width="3.6" height="3.6"/>
				<rect id="Rectangle-path_466_" x="45.3" y="32.5" fill="#4D4D4D" width="3.6" height="3.6"/>
				<rect id="Rectangle-path_465_" x="45.3" y="28.9" fill="#4D4D4D" width="3.6" height="3.6"/>
				<rect id="Rectangle-path_464_" x="45.3" y="25.4" fill="#8CC63F" width="3.6" height="3.6"/>
				<rect id="Rectangle-path_463_" x="45.3" y="21.8" fill="#8CC63F" width="3.6" height="3.6"/>
				<rect id="Rectangle-path_462_" x="45.3" y="18.2" fill="#8CC63F" width="3.6" height="3.6"/>
				<rect id="Rectangle-path_461_" x="45.3" y="14.7" fill="#8CC63F" width="3.6" height="3.6"/>
				<rect id="Rectangle-path_460_" x="45.3" y="11.1" fill="#8CC63F" width="3.6" height="3.6"/>
				<rect id="Rectangle-path_459_" x="45.3" y="7.5" fill="#8CC63F" width="3.6" height="3.6"/>
				<rect id="Rectangle-path_458_" x="45.3" y="4" fill="#4C7521" width="3.6" height="3.6"/>
				<rect id="Rectangle-path_457_" x="41.8" y="71.7" fill="#4C7521" width="3.6" height="3.6"/>
				<rect id="Rectangle-path_456_" x="41.8" y="68.2" fill="#8CC63F" width="3.6" height="3.6"/>
				<rect id="Rectangle-path_455_" x="41.8" y="64.6" fill="#8CC63F" width="3.6" height="3.6"/>
				<rect id="Rectangle-path_454_" x="41.8" y="61" fill="#8CC63F" width="3.6" height="3.6"/>
				<rect id="Rectangle-path_453_" x="41.8" y="57.5" fill="#8CC63F" width="3.6" height="3.6"/>
				<rect id="Rectangle-path_452_" x="41.8" y="53.9" fill="#8CC63F" width="3.6" height="3.6"/>
				<rect id="Rectangle-path_451_" x="41.8" y="50.3" fill="#8CC63F" width="3.6" height="3.6"/>
				<rect id="Rectangle-path_450_" x="41.8" y="46.8" fill="#8CC63F" width="3.6" height="3.6"/>
				<rect id="Rectangle-path_449_" x="41.8" y="43.2" fill="#8CC63F" width="3.6" height="3.6"/>
				<rect id="Rectangle-path_448_" x="41.8" y="39.6" fill="#8CC63F" width="3.6" height="3.6"/>
				<rect id="Rectangle-path_447_" x="41.8" y="36.1" fill="#4D4D4D" width="3.6" height="3.6"/>
				<rect id="Rectangle-path_446_" x="41.8" y="32.5" fill="#8CC63F" width="3.6" height="3.6"/>
				<rect id="Rectangle-path_445_" x="41.8" y="28.9" fill="#4D4D4D" width="3.6" height="3.6"/>
				<rect id="Rectangle-path_444_" x="41.8" y="25.4" fill="#8CC63F" width="3.6" height="3.6"/>
				<rect id="Rectangle-path_443_" x="41.8" y="21.8" fill="#8CC63F" width="3.6" height="3.6"/>
				<rect id="Rectangle-path_442_" x="41.8" y="18.2" fill="#8CC63F" width="3.6" height="3.6"/>
				<rect id="Rectangle-path_441_" x="41.8" y="14.7" fill="#8CC63F" width="3.6" height="3.6"/>
				<rect id="Rectangle-path_440_" x="41.8" y="11.1" fill="#8CC63F" width="3.6" height="3.6"/>
				<rect id="Rectangle-path_439_" x="41.8" y="7.5" fill="#8CC63F" width="3.6" height="3.6"/>
				<rect id="Rectangle-path_438_" x="41.8" y="4" fill="#4C7521" width="3.6" height="3.6"/>
				<rect id="Rectangle-path_437_" x="38.2" y="71.7" fill="#4C7521" width="3.6" height="3.6"/>
				<rect id="Rectangle-path_436_" x="38.2" y="68.2" fill="#8CC63F" width="3.6" height="3.6"/>
				<rect id="Rectangle-path_435_" x="38.2" y="64.6" fill="#8CC63F" width="3.6" height="3.6"/>
				<rect id="Rectangle-path_434_" x="38.2" y="61" fill="#8CC63F" width="3.6" height="3.6"/>
				<rect id="Rectangle-path_433_" x="38.2" y="57.5" fill="#8CC63F" width="3.6" height="3.6"/>
				<rect id="Rectangle-path_432_" x="38.2" y="53.9" fill="#8CC63F" width="3.6" height="3.6"/>
				<rect id="Rectangle-path_431_" x="38.2" y="50.3" fill="#8CC63F" width="3.6" height="3.6"/>
				<rect id="Rectangle-path_430_" x="38.2" y="46.8" fill="#8CC63F" width="3.6" height="3.6"/>
				<rect id="Rectangle-path_429_" x="38.2" y="43.2" fill="#8CC63F" width="3.6" height="3.6"/>
				<rect id="Rectangle-path_428_" x="38.2" y="39.6" fill="#8CC63F" width="3.6" height="3.6"/>
				<rect id="Rectangle-path_427_" x="38.2" y="36.1" fill="#4D4D4D" width="3.6" height="3.6"/>
				<rect id="Rectangle-path_426_" x="38.2" y="32.5" fill="#8CC63F" width="3.6" height="3.6"/>
				<rect id="Rectangle-path_425_" x="38.2" y="28.9" fill="#4D4D4D" width="3.6" height="3.6"/>
				<rect id="Rectangle-path_424_" x="38.2" y="25.4" fill="#8CC63F" width="3.6" height="3.6"/>
				<rect id="Rectangle-path_423_" x="38.2" y="21.8" fill="#8CC63F" width="3.6" height="3.6"/>
				<rect id="Rectangle-path_422_" x="38.2" y="18.2" fill="#8CC63F" width="3.6" height="3.6"/>
				<rect id="Rectangle-path_421_" x="38.2" y="14.7" fill="#8CC63F" width="3.6" height="3.6"/>
				<rect id="Rectangle-path_420_" x="38.2" y="11.1" fill="#8CC63F" width="3.6" height="3.6"/>
				<rect id="Rectangle-path_419_" x="38.2" y="7.5" fill="#8CC63F" width="3.6" height="3.6"/>
				<rect id="Rectangle-path_418_" x="38.2" y="4" fill="#4C7521" width="3.6" height="3.6"/>
				<rect id="Rectangle-path_417_" x="34.6" y="71.7" fill="#4C7521" width="3.6" height="3.6"/>
				<rect id="Rectangle-path_416_" x="34.6" y="68.2" fill="#8CC63F" width="3.6" height="3.6"/>
				<rect id="Rectangle-path_415_" x="34.6" y="64.6" fill="#8CC63F" width="3.6" height="3.6"/>
				<rect id="Rectangle-path_414_" x="34.6" y="61" fill="#8CC63F" width="3.6" height="3.6"/>
				<rect id="Rectangle-path_413_" x="34.6" y="57.5" fill="#8CC63F" width="3.6" height="3.6"/>
				<rect id="Rectangle-path_412_" x="34.6" y="53.9" fill="#8CC63F" width="3.6" height="3.6"/>
				<rect id="Rectangle-path_411_" x="34.6" y="50.3" fill="#8CC63F" width="3.6" height="3.6"/>
				<rect id="Rectangle-path_410_" x="34.6" y="46.8" fill="#8CC63F" width="3.6" height="3.6"/>
				<rect id="Rectangle-path_409_" x="34.6" y="43.2" fill="#8CC63F" width="3.6" height="3.6"/>
				<rect id="Rectangle-path_408_" x="34.6" y="39.6" fill="#8CC63F" width="3.6" height="3.6"/>
				<rect id="Rectangle-path_407_" x="34.6" y="36.1" fill="#8CC63F" width="3.6" height="3.6"/>
				<rect id="Rectangle-path_406_" x="34.6" y="32.5" fill="#4D4D4D" width="3.6" height="3.6"/>
				<rect id="Rectangle-path_405_" x="34.6" y="28.9" fill="#4D4D4D" width="3.6" height="3.6"/>
				<rect id="Rectangle-path_404_" x="34.6" y="25.4" fill="#8CC63F" width="3.6" height="3.6"/>
				<rect id="Rectangle-path_403_" x="34.6" y="21.8" fill="#8CC63F" width="3.6" height="3.6"/>
				<rect id="Rectangle-path_402_" x="34.6" y="18.2" fill="#8CC63F" width="3.6" height="3.6"/>
				<rect id="Rectangle-path_401_" x="34.6" y="14.7" fill="#8CC63F" width="3.6" height="3.6"/>
				<rect id="Rectangle-path_400_" x="34.6" y="11.1" fill="#8CC63F" width="3.6" height="3.6"/>
				<rect id="Rectangle-path_399_" x="34.6" y="7.5" fill="#8CC63F" width="3.6" height="3.6"/>
				<rect id="Rectangle-path_398_" x="34.6" y="4" fill="#4C7521" width="3.6" height="3.6"/>
				<rect id="Rectangle-path_397_" x="31.1" y="68.2" fill="#4C7521" width="3.6" height="3.6"/>
				<rect id="Rectangle-path_396_" x="31.1" y="64.6" fill="#8CC63F" width="3.6" height="3.6"/>
				<rect id="Rectangle-path_395_" x="31.1" y="61" fill="#8CC63F" width="3.6" height="3.6"/>
				<rect id="Rectangle-path_394_" x="31.1" y="57.5" fill="#8CC63F" width="3.6" height="3.6"/>
				<rect id="Rectangle-path_393_" x="31.1" y="53.9" fill="#8CC63F" width="3.6" height="3.6"/>
				<rect id="Rectangle-path_392_" x="31.1" y="50.3" fill="#8CC63F" width="3.6" height="3.6"/>
				<rect id="Rectangle-path_391_" x="31.1" y="46.8" fill="#8CC63F" width="3.6" height="3.6"/>
				<rect id="Rectangle-path_390_" x="31.1" y="43.2" fill="#8CC63F" width="3.6" height="3.6"/>
				<rect id="Rectangle-path_389_" x="31.1" y="39.6" fill="#8CC63F" width="3.6" height="3.6"/>
				<rect id="Rectangle-path_388_" x="31.1" y="36.1" fill="#8CC63F" width="3.6" height="3.6"/>
				<rect id="Rectangle-path_387_" x="31.1" y="32.5" fill="#8CC63F" width="3.6" height="3.6"/>
				<rect id="Rectangle-path_386_" x="31.1" y="28.9" fill="#4D4D4D" width="3.6" height="3.6"/>
				<rect id="Rectangle-path_385_" x="31.1" y="25.4" fill="#8CC63F" width="3.6" height="3.6"/>
				<rect id="Rectangle-path_384_" x="31.1" y="21.8" fill="#4D4D4D" width="3.6" height="3.6"/>
				<rect id="Rectangle-path_383_" x="31.1" y="18.2" fill="#4D4D4D" width="3.6" height="3.6"/>
				<rect id="Rectangle-path_382_" x="31.1" y="14.7" fill="#8CC63F" width="3.6" height="3.6"/>
				<rect id="Rectangle-path_381_" x="31.1" y="11.1" fill="#8CC63F" width="3.6" height="3.6"/>
				<rect id="Rectangle-path_380_" x="31.1" y="7.5" fill="#8CC63F" width="3.6" height="3.6"/>
				<rect id="Rectangle-path_379_" x="31.1" y="4" fill="#4C7521" width="3.6" height="3.6"/>
				<rect id="Rectangle-path_378_" x="27.5" y="64.6" fill="#4C7521" width="3.6" height="3.6"/>
				<rect id="Rectangle-path_377_" x="27.5" y="61" fill="#8CC63F" width="3.6" height="3.6"/>
				<rect id="Rectangle-path_376_" x="27.5" y="57.5" fill="#8CC63F" width="3.6" height="3.6"/>
				<rect id="Rectangle-path_375_" x="27.5" y="53.9" fill="#8CC63F" width="3.6" height="3.6"/>
				<rect id="Rectangle-path_374_" x="27.5" y="50.3" fill="#8CC63F" width="3.6" height="3.6"/>
				<rect id="Rectangle-path_373_" x="27.5" y="46.8" fill="#8CC63F" width="3.6" height="3.6"/>
				<rect id="Rectangle-path_372_" x="27.5" y="43.2" fill="#8CC63F" width="3.6" height="3.6"/>
				<rect id="Rectangle-path_371_" x="27.5" y="39.6" fill="#8CC63F" width="3.6" height="3.6"/>
				<rect id="Rectangle-path_370_" x="27.5" y="36.1" fill="#8CC63F" width="3.6" height="3.6"/>
				<rect id="Rectangle-path_369_" x="27.5" y="32.5" fill="#8CC63F" width="3.6" height="3.6"/>
				<rect id="Rectangle-path_368_" x="27.5" y="28.9" fill="#8CC63F" width="3.6" height="3.6"/>
				<rect id="Rectangle-path_367_" x="27.5" y="25.4" fill="#8CC63F" width="3.6" height="3.6"/>
				<rect id="Rectangle-path_366_" x="27.5" y="21.8" fill="#4D4D4D" width="3.6" height="3.6"/>
				<rect id="Rectangle-path_365_" x="27.5" y="18.2" fill="#4D4D4D" width="3.6" height="3.6"/>
				<rect id="Rectangle-path_364_" x="27.5" y="14.7" fill="#8CC63F" width="3.6" height="3.6"/>
				<rect id="Rectangle-path_363_" x="27.5" y="11.1" fill="#8CC63F" width="3.6" height="3.6"/>
				<rect id="Rectangle-path_362_" x="27.5" y="7.5" fill="#4C7521" width="3.6" height="3.6"/>
				<rect id="Rectangle-path_361_" x="23.9" y="61" fill="#4C7521" width="3.6" height="3.6"/>
				<rect id="Rectangle-path_360_" x="23.9" y="57.5" fill="#8CC63F" width="3.6" height="3.6"/>
				<rect id="Rectangle-path_359_" x="23.9" y="53.9" fill="#8CC63F" width="3.6" height="3.6"/>
				<rect id="Rectangle-path_358_" x="23.9" y="50.3" fill="#8CC63F" width="3.6" height="3.6"/>
				<rect id="Rectangle-path_357_" x="23.9" y="46.8" fill="#8CC63F" width="3.6" height="3.6"/>
				<rect id="Rectangle-path_356_" x="23.9" y="43.2" fill="#8CC63F" width="3.6" height="3.6"/>
				<rect id="Rectangle-path_355_" x="23.9" y="39.6" fill="#8CC63F" width="3.6" height="3.6"/>
				<rect id="Rectangle-path_354_" x="23.9" y="36.1" fill="#8CC63F" width="3.6" height="3.6"/>
				<rect id="Rectangle-path_353_" x="23.9" y="32.5" fill="#8CC63F" width="3.6" height="3.6"/>
				<rect id="Rectangle-path_352_" x="23.9" y="28.9" fill="#FF7BAC" width="3.6" height="3.6"/>
				<rect id="Rectangle-path_351_" x="23.9" y="25.4" fill="#FF7BAC" width="3.6" height="3.6"/>
				<rect id="Rectangle-path_350_" x="23.9" y="21.8" fill="#8CC63F" width="3.6" height="3.6"/>
				<rect id="Rectangle-path_349_" x="23.9" y="18.2" fill="#8CC63F" width="3.6" height="3.6"/>
				<rect id="Rectangle-path_348_" x="23.9" y="14.7" fill="#8CC63F" width="3.6" height="3.6"/>
				<rect id="Rectangle-path_347_" x="23.9" y="11.1" fill="#4C7521" width="3.6" height="3.6"/>
				<rect id="Rectangle-path_346_" x="20.4" y="57.5" fill="#4C7521" width="3.6" height="3.6"/>
				<rect id="Rectangle-path_345_" x="20.4" y="53.9" fill="#8CC63F" width="3.6" height="3.6"/>
				<rect id="Rectangle-path_344_" x="20.4" y="50.3" fill="#8CC63F" width="3.6" height="3.6"/>
				<rect id="Rectangle-path_343_" x="20.4" y="46.8" fill="#8CC63F" width="3.6" height="3.6"/>
				<rect id="Rectangle-path_342_" x="20.4" y="43.2" fill="#8CC63F" width="3.6" height="3.6"/>
				<rect id="Rectangle-path_341_" x="20.4" y="39.6" fill="#8CC63F" width="3.6" height="3.6"/>
				<rect id="Rectangle-path_340_" x="20.4" y="36.1" fill="#8CC63F" width="3.6" height="3.6"/>
				<rect id="Rectangle-path_339_" x="20.4" y="32.5" fill="#8CC63F" width="3.6" height="3.6"/>
				<rect id="Rectangle-path_338_" x="20.4" y="28.9" fill="#FF7BAC" width="3.6" height="3.6"/>
				<rect id="Rectangle-path_337_" x="20.4" y="25.4" fill="#FF7BAC" width="3.6" height="3.6"/>
				<rect id="Rectangle-path_336_" x="20.4" y="21.8" fill="#8CC63F" width="3.6" height="3.6"/>
				<rect id="Rectangle-path_335_" x="20.4" y="18.2" fill="#8CC63F" width="3.6" height="3.6"/>
				<rect id="Rectangle-path_334_" x="20.4" y="14.7" fill="#4C7521" width="3.6" height="3.6"/>
				<rect id="Rectangle-path_333_" x="16.8" y="53.9" fill="#4C7521" width="3.6" height="3.6"/>
				<rect id="Rectangle-path_332_" x="16.8" y="50.3" fill="#8CC63F" width="3.6" height="3.6"/>
				<rect id="Rectangle-path_331_" x="16.8" y="46.8" fill="#8CC63F" width="3.6" height="3.6"/>
				<rect id="Rectangle-path_330_" x="16.8" y="43.2" fill="#8CC63F" width="3.6" height="3.6"/>
				<rect id="Rectangle-path_329_" x="16.8" y="39.6" fill="#8CC63F" width="3.6" height="3.6"/>
				<rect id="Rectangle-path_328_" x="16.8" y="36.1" fill="#8CC63F" width="3.6" height="3.6"/>
				<rect id="Rectangle-path_327_" x="16.8" y="32.5" fill="#8CC63F" width="3.6" height="3.6"/>
				<rect id="Rectangle-path_326_" x="16.8" y="28.9" fill="#8CC63F" width="3.6" height="3.6"/>
				<rect id="Rectangle-path_325_" x="16.8" y="25.4" fill="#8CC63F" width="3.6" height="3.6"/>
				<rect id="Rectangle-path_324_" x="16.8" y="21.8" fill="#8CC63F" width="3.6" height="3.6"/>
				<rect id="Rectangle-path_323_" x="16.8" y="18.2" fill="#4C7521" width="3.6" height="3.6"/>
				<rect id="Rectangle-path_322_" x="13.2" y="50.3" fill="#4C7521" width="3.6" height="3.6"/>
				<rect id="Rectangle-path_321_" x="13.2" y="46.8" fill="#4C7521" width="3.6" height="3.6"/>
				<rect id="Rectangle-path_320_" x="13.2" y="43.2" fill="#4C7521" width="3.6" height="3.6"/>
				<rect id="Rectangle-path_319_" x="13.2" y="39.6" fill="#4C7521" width="3.6" height="3.6"/>
				<rect id="Rectangle-path_318_" x="13.2" y="36.1" fill="#8CC63F" width="3.6" height="3.6"/>
				<rect id="Rectangle-path_317_" x="13.2" y="32.5" fill="#8CC63F" width="3.6" height="3.6"/>
				<rect id="Rectangle-path_316_" x="13.2" y="28.9" fill="#8CC63F" width="3.6" height="3.6"/>
				<rect id="Rectangle-path_315_" x="13.2" y="25.4" fill="#4C7521" width="3.6" height="3.6"/>
				<rect id="Rectangle-path_314_" x="13.2" y="21.8" fill="#4C7521" width="3.6" height="3.6"/>
				<rect id="Rectangle-path_313_" x="9.7" y="36.1" fill="#4C7521" width="3.6" height="3.6"/>
				<rect id="Rectangle-path_312_" x="9.7" y="32.5" fill="#8CC63F" width="3.6" height="3.6"/>
				<rect id="Rectangle-path_297_" x="9.7" y="28.9" fill="#4C7521" width="3.6" height="3.6"/>
				<rect id="Rectangle-path_298_" x="9.7" y="25.4" fill="#4C7521" width="3.6" height="3.6"/>
				<rect id="Rectangle-path_299_" x="6.1" y="36.1" fill="#4C7521" width="3.6" height="3.6"/>
				<rect id="Rectangle-path_300_" x="6.1" y="32.5" fill="#8CC63F" width="3.6" height="3.6"/>
				<rect id="Rectangle-path_301_" x="6.1" y="28.9" fill="#8CC63F" width="3.6" height="3.6"/>
				<rect id="Rectangle-path_302_" x="6.1" y="25.4" fill="#8CC63F" width="3.6" height="3.6"/>
				<rect id="Rectangle-path_303_" x="6.1" y="21.8" fill="#4C7521" width="3.6" height="3.6"/>
				<rect id="Rectangle-path_304_" x="2.5" y="36.1" fill="#4C7521" width="3.6" height="3.6"/>
				<rect id="Rectangle-path_305_" x="2.5" y="32.5" fill="#8CC63F" width="3.6" height="3.6"/>
				<rect id="Rectangle-path_306_" x="2.5" y="28.9" fill="#8CC63F" width="3.6" height="3.6"/>
				<rect id="Rectangle-path_307_" x="2.5" y="25.4" fill="#8CC63F" width="3.6" height="3.6"/>
				<rect id="Rectangle-path_308_" x="2.5" y="21.8" fill="#4C7521" width="3.6" height="3.6"/>
				<rect id="Rectangle-path_309_" x="-1" y="32.5" fill="#4C7521" width="3.6" height="3.6"/>
				<rect id="Rectangle-path_310_" x="-1" y="28.9" fill="#4C7521" width="3.6" height="3.6"/>
				<rect id="Rectangle-path_311_" x="-1" y="25.4" fill="#4C7521" width="3.6" height="3.6"/>
			</g>
		</g>
	</g>
</g>
</svg>
