<?xml version="1.0" encoding="utf-8"?>
<!-- Generator: Adobe Illustrator 18.1.1, SVG Export Plug-In . SVG Version: 6.00 Build 0)  -->
<!DOCTYPE svg PUBLIC "-//W3C//DTD SVG 1.1//EN" "http://www.w3.org/Graphics/SVG/1.1/DTD/svg11.dtd">
<svg version="1.1" id="Layer_1" xmlns:sketch="http://www.bohemiancoding.com/sketch/ns"
	 xmlns="http://www.w3.org/2000/svg" xmlns:xlink="http://www.w3.org/1999/xlink" x="0px" y="0px" viewBox="-153 236 305 321"
	 enable-background="new -153 236 305 321" xml:space="preserve">
<title>Adult_x5F_Hungry</title>
<desc>Created with Sketch.</desc>
<rect id="Rectangle-path" x="135.5" y="412.8" fill="#4C7521" width="16" height="16"/>
<rect id="Rectangle-path_1_" x="135.5" y="396.8" fill="#4C7521" width="16" height="16"/>
<rect id="Rectangle-path_2_" x="135.5" y="380.8" fill="#4C7521" width="16" height="16"/>
<rect id="Rectangle-path_3_" x="135.5" y="364.8" fill="#4C7521" width="16" height="16"/>
<rect id="Rectangle-path_4_" x="135.5" y="348.8" fill="#4C7521" width="16" height="16"/>
<rect id="Rectangle-path_5_" x="135.5" y="332.8" fill="#4C7521" width="16" height="16"/>
<rect id="Rectangle-path_6_" x="135.5" y="316.8" fill="#4C7521" width="16" height="16"/>
<rect id="Rectangle-path_7_" x="135.5" y="300.8" fill="#4C7521" width="16" height="16"/>
<rect id="Rectangle-path_8_" x="135.5" y="284.8" fill="#4C7521" width="16" height="16"/>
<rect id="Rectangle-path_9_" x="119.5" y="412.8" fill="#4C7521" width="16" height="16"/>
<rect id="Rectangle-path_10_" x="119.5" y="396.8" fill="#8CC63F" width="16" height="16"/>
<rect id="Rectangle-path_11_" x="119.5" y="380.8" fill="#8CC63F" width="16" height="16"/>
<rect id="Rectangle-path_12_" x="119.5" y="364.8" fill="#8CC63F" width="16" height="16"/>
<rect id="Rectangle-path_13_" x="119.5" y="348.8" fill="#8CC63F" width="16" height="16"/>
<rect id="Rectangle-path_14_" x="119.5" y="332.8" fill="#8CC63F" width="16" height="16"/>
<rect id="Rectangle-path_15_" x="119.5" y="316.8" fill="#8CC63F" width="16" height="16"/>
<rect id="Rectangle-path_16_" x="119.5" y="300.8" fill="#8CC63F" width="16" height="16"/>
<rect id="Rectangle-path_17_" x="119.5" y="284.8" fill="#4C7521" width="16" height="16"/>
<rect id="Rectangle-path_18_" x="103.5" y="412.8" fill="#4C7521" width="16" height="16"/>
<rect id="Rectangle-path_19_" x="103.5" y="396.8" fill="#8CC63F" width="16" height="16"/>
<rect id="Rectangle-path_20_" x="103.5" y="380.8" fill="#8CC63F" width="16" height="16"/>
<rect id="Rectangle-path_21_" x="103.5" y="364.8" fill="#8CC63F" width="16" height="16"/>
<rect id="Rectangle-path_22_" x="103.5" y="348.8" fill="#8CC63F" width="16" height="16"/>
<rect id="Rectangle-path_23_" x="103.5" y="332.8" fill="#8CC63F" width="16" height="16"/>
<rect id="Rectangle-path_24_" x="103.5" y="316.8" fill="#8CC63F" width="16" height="16"/>
<rect id="Rectangle-path_25_" x="103.5" y="300.8" fill="#8CC63F" width="16" height="16"/>
<rect id="Rectangle-path_26_" x="103.5" y="284.8" fill="#4C7521" width="16" height="16"/>
<rect id="Rectangle-path_27_" x="87.5" y="540.8" fill="#4C7521" width="16" height="16"/>
<rect id="Rectangle-path_28_" x="87.5" y="524.8" fill="#4C7521" width="16" height="16"/>
<rect id="Rectangle-path_29_" x="87.5" y="508.8" fill="#4C7521" width="16" height="16"/>
<rect id="Rectangle-path_30_" x="87.5" y="492.8" fill="#4C7521" width="16" height="16"/>
<rect id="Rectangle-path_31_" x="87.5" y="476.8" fill="#4C7521" width="16" height="16"/>
<rect id="Rectangle-path_32_" x="87.5" y="460.8" fill="#4C7521" width="16" height="16"/>
<rect id="Rectangle-path_33_" x="87.5" y="444.8" fill="#4C7521" width="16" height="16"/>
<rect id="Rectangle-path_34_" x="87.5" y="428.8" fill="#4C7521" width="16" height="16"/>
<rect id="Rectangle-path_35_" x="87.5" y="412.8" fill="#4C7521" width="16" height="16"/>
<rect id="Rectangle-path_36_" x="87.5" y="396.8" fill="#4C7521" width="16" height="16"/>
<rect id="Rectangle-path_37_" x="87.5" y="380.8" fill="#4C7521" width="16" height="16"/>
<rect id="Rectangle-path_38_" x="87.5" y="364.8" fill="#4C7521" width="16" height="16"/>
<rect id="Rectangle-path_39_" x="87.5" y="348.8" fill="#4C7521" width="16" height="16"/>
<rect id="Rectangle-path_40_" x="87.5" y="332.8" fill="#4C7521" width="16" height="16"/>
<rect id="Rectangle-path_41_" x="87.5" y="316.8" fill="#4C7521" width="16" height="16"/>
<rect id="Rectangle-path_42_" x="87.5" y="300.8" fill="#4C7521" width="16" height="16"/>
<rect id="Rectangle-path_43_" x="87.5" y="284.8" fill="#4C7521" width="16" height="16"/>
<rect id="Rectangle-path_44_" x="71.5" y="540.8" fill="#4C7521" width="16" height="16"/>
<rect id="Rectangle-path_45_" x="71.5" y="524.8" fill="#4C7521" width="16" height="16"/>
<rect id="Rectangle-path_46_" x="71.5" y="508.8" fill="#4C7521" width="16" height="16"/>
<rect id="Rectangle-path_47_" x="71.5" y="492.8" fill="#4C7521" width="16" height="16"/>
<rect id="Rectangle-path_48_" x="71.5" y="476.8" fill="#4C7521" width="16" height="16"/>
<rect id="Rectangle-path_49_" x="71.5" y="460.8" fill="#4C7521" width="16" height="16"/>
<rect id="Rectangle-path_50_" x="71.5" y="444.8" fill="#4C7521" width="16" height="16"/>
<rect id="Rectangle-path_51_" x="71.5" y="428.8" fill="#4C7521" width="16" height="16"/>
<rect id="Rectangle-path_52_" x="71.5" y="412.8" fill="#4C7521" width="16" height="16"/>
<rect id="Rectangle-path_53_" x="71.5" y="396.8" fill="#4C7521" width="16" height="16"/>
<rect id="Rectangle-path_54_" x="71.5" y="380.8" fill="#4C7521" width="16" height="16"/>
<rect id="Rectangle-path_55_" x="71.5" y="364.8" fill="#4C7521" width="16" height="16"/>
<rect id="Rectangle-path_56_" x="71.5" y="348.8" fill="#4C7521" width="16" height="16"/>
<rect id="Rectangle-path_57_" x="71.5" y="332.8" fill="#4C7521" width="16" height="16"/>
<rect id="Rectangle-path_58_" x="71.5" y="316.8" fill="#4C7521" width="16" height="16"/>
<rect id="Rectangle-path_59_" x="71.5" y="300.8" fill="#4C7521" width="16" height="16"/>
<rect id="Rectangle-path_60_" x="71.5" y="284.8" fill="#4C7521" width="16" height="16"/>
<rect id="Rectangle-path_61_" x="71.5" y="268.8" fill="#4C7521" width="16" height="16"/>
<rect id="Rectangle-path_62_" x="71.5" y="252.8" fill="#4C7521" width="16" height="16"/>
<rect id="Rectangle-path_63_" x="55.5" y="540.8" fill="#8CC63F" width="16" height="16"/>
<rect id="Rectangle-path_64_" x="55.5" y="524.8" fill="#8CC63F" width="16" height="16"/>
<rect id="Rectangle-path_65_" x="55.5" y="508.8" fill="#8CC63F" width="16" height="16"/>
<rect id="Rectangle-path_66_" x="55.5" y="492.8" fill="#8CC63F" width="16" height="16"/>
<rect id="Rectangle-path_67_" x="55.5" y="476.8" fill="#8CC63F" width="16" height="16"/>
<rect id="Rectangle-path_68_" x="55.5" y="460.8" fill="#8CC63F" width="16" height="16"/>
<rect id="Rectangle-path_69_" x="55.5" y="444.8" fill="#8CC63F" width="16" height="16"/>
<rect id="Rectangle-path_70_" x="55.5" y="428.8" fill="#8CC63F" width="16" height="16"/>
<rect id="Rectangle-path_71_" x="55.5" y="412.8" fill="#8CC63F" width="16" height="16"/>
<rect id="Rectangle-path_72_" x="55.5" y="396.8" fill="#8CC63F" width="16" height="16"/>
<rect id="Rectangle-path_73_" x="55.5" y="380.8" fill="#8CC63F" width="16" height="16"/>
<rect id="Rectangle-path_74_" x="55.5" y="364.8" fill="#8CC63F" width="16" height="16"/>
<rect id="Rectangle-path_75_" x="55.5" y="348.8" fill="#8CC63F" width="16" height="16"/>
<rect id="Rectangle-path_76_" x="55.5" y="332.8" fill="#8CC63F" width="16" height="16"/>
<rect id="Rectangle-path_77_" x="55.5" y="316.8" fill="#8CC63F" width="16" height="16"/>
<rect id="Rectangle-path_78_" x="55.5" y="300.8" fill="#8CC63F" width="16" height="16"/>
<rect id="Rectangle-path_79_" x="55.5" y="284.8" fill="#8CC63F" width="16" height="16"/>
<rect id="Rectangle-path_80_" x="55.5" y="268.8" fill="#8CC63F" width="16" height="16"/>
<rect id="Rectangle-path_81_" x="55.5" y="252.8" fill="#8CC63F" width="16" height="16"/>
<rect id="Rectangle-path_82_" x="55.5" y="236.8" fill="#4C7521" width="16" height="16"/>
<rect id="Rectangle-path_83_" x="39.5" y="540.8" fill="#8CC63F" width="16" height="16"/>
<rect id="Rectangle-path_84_" x="39.5" y="524.8" fill="#8CC63F" width="16" height="16"/>
<rect id="Rectangle-path_85_" x="39.5" y="508.8" fill="#8CC63F" width="16" height="16"/>
<rect id="Rectangle-path_86_" x="39.5" y="492.8" fill="#8CC63F" width="16" height="16"/>
<rect id="Rectangle-path_87_" x="39.5" y="476.8" fill="#8CC63F" width="16" height="16"/>
<rect id="Rectangle-path_88_" x="39.5" y="460.8" fill="#8CC63F" width="16" height="16"/>
<rect id="Rectangle-path_89_" x="39.5" y="444.8" fill="#8CC63F" width="16" height="16"/>
<rect id="Rectangle-path_90_" x="39.5" y="428.8" fill="#8CC63F" width="16" height="16"/>
<rect id="Rectangle-path_91_" x="39.5" y="412.8" fill="#8CC63F" width="16" height="16"/>
<rect id="Rectangle-path_92_" x="39.5" y="396.8" fill="#8CC63F" width="16" height="16"/>
<rect id="Rectangle-path_93_" x="39.5" y="380.8" fill="#8CC63F" width="16" height="16"/>
<rect id="Rectangle-path_94_" x="39.5" y="364.8" fill="#8CC63F" width="16" height="16"/>
<rect id="Rectangle-path_95_" x="39.5" y="348.8" fill="#8CC63F" width="16" height="16"/>
<rect id="Rectangle-path_96_" x="39.5" y="332.8" fill="#8CC63F" width="16" height="16"/>
<rect id="Rectangle-path_97_" x="39.5" y="316.8" fill="#8CC63F" width="16" height="16"/>
<rect id="Rectangle-path_98_" x="39.5" y="300.8" fill="#4D4D4D" width="16" height="16"/>
<rect id="Rectangle-path_99_" x="39.5" y="284.8" fill="#4D4D4D" width="16" height="16"/>
<rect id="Rectangle-path_100_" x="39.5" y="268.8" fill="#8CC63F" width="16" height="16"/>
<rect id="Rectangle-path_101_" x="39.5" y="252.8" fill="#8CC63F" width="16" height="16"/>
<rect id="Rectangle-path_102_" x="39.5" y="236.8" fill="#8CC63F" width="16" height="16"/>
<rect id="Rectangle-path_103_" x="23.5" y="540.8" fill="#8CC63F" width="16" height="16"/>
<rect id="Rectangle-path_104_" x="23.5" y="524.8" fill="#8CC63F" width="16" height="16"/>
<rect id="Rectangle-path_105_" x="23.5" y="508.8" fill="#8CC63F" width="16" height="16"/>
<rect id="Rectangle-path_106_" x="23.5" y="492.8" fill="#8CC63F" width="16" height="16"/>
<rect id="Rectangle-path_107_" x="23.5" y="476.8" fill="#8CC63F" width="16" height="16"/>
<rect id="Rectangle-path_108_" x="23.5" y="460.8" fill="#8CC63F" width="16" height="16"/>
<rect id="Rectangle-path_109_" x="23.5" y="444.8" fill="#8CC63F" width="16" height="16"/>
<rect id="Rectangle-path_110_" x="23.5" y="428.8" fill="#8CC63F" width="16" height="16"/>
<rect id="Rectangle-path_111_" x="23.5" y="412.8" fill="#8CC63F" width="16" height="16"/>
<rect id="Rectangle-path_112_" x="23.5" y="396.8" fill="#8CC63F" width="16" height="16"/>
<rect id="Rectangle-path_113_" x="23.5" y="380.8" fill="#8CC63F" width="16" height="16"/>
<rect id="Rectangle-path_114_" x="23.5" y="364.8" fill="#8CC63F" width="16" height="16"/>
<rect id="Rectangle-path_115_" x="23.5" y="348.8" fill="#8CC63F" width="16" height="16"/>
<rect id="Rectangle-path_116_" x="23.5" y="332.8" fill="#8CC63F" width="16" height="16"/>
<rect id="Rectangle-path_117_" x="23.5" y="316.8" fill="#8CC63F" width="16" height="16"/>
<rect id="Rectangle-path_118_" x="23.5" y="300.8" fill="#4D4D4D" width="16" height="16"/>
<rect id="Rectangle-path_119_" x="23.5" y="284.8" fill="#4D4D4D" width="16" height="16"/>
<rect id="Rectangle-path_120_" x="23.5" y="268.8" fill="#8CC63F" width="16" height="16"/>
<rect id="Rectangle-path_121_" x="23.5" y="252.8" fill="#8CC63F" width="16" height="16"/>
<rect id="Rectangle-path_122_" x="23.5" y="236.8" fill="#8CC63F" width="16" height="16"/>
<rect id="Rectangle-path_123_" x="7.5" y="508.8" fill="#8CC63F" width="16" height="16"/>
<rect id="Rectangle-path_124_" x="7.5" y="492.8" fill="#8CC63F" width="16" height="16"/>
<rect id="Rectangle-path_125_" x="7.5" y="476.8" fill="#8CC63F" width="16" height="16"/>
<rect id="Rectangle-path_126_" x="7.5" y="460.8" fill="#8CC63F" width="16" height="16"/>
<rect id="Rectangle-path_127_" x="7.5" y="444.8" fill="#8CC63F" width="16" height="16"/>
<rect id="Rectangle-path_128_" x="7.5" y="428.8" fill="#8CC63F" width="16" height="16"/>
<rect id="Rectangle-path_129_" x="7.5" y="412.8" fill="#8CC63F" width="16" height="16"/>
<rect id="Rectangle-path_130_" x="7.5" y="396.8" fill="#8CC63F" width="16" height="16"/>
<rect id="Rectangle-path_131_" x="7.5" y="380.8" fill="#C1272D" width="16" height="16"/>
<rect id="Rectangle-path_132_" x="7.5" y="364.8" fill="#C1272D" width="16" height="16"/>
<rect id="Rectangle-path_133_" x="7.5" y="348.8" fill="#C1272D" width="16" height="16"/>
<rect id="Rectangle-path_134_" x="7.5" y="332.8" fill="#4D4D4D" width="16" height="16"/>
<rect id="Rectangle-path_135_" x="7.5" y="316.8" fill="#8CC63F" width="16" height="16"/>
<rect id="Rectangle-path_136_" x="7.5" y="300.8" fill="#8CC63F" width="16" height="16"/>
<rect id="Rectangle-path_137_" x="7.5" y="284.8" fill="#8CC63F" width="16" height="16"/>
<rect id="Rectangle-path_138_" x="7.5" y="268.8" fill="#8CC63F" width="16" height="16"/>
<rect id="Rectangle-path_139_" x="7.5" y="252.8" fill="#8CC63F" width="16" height="16"/>
<rect id="Rectangle-path_140_" x="7.5" y="236.8" fill="#8CC63F" width="16" height="16"/>
<rect id="Rectangle-path_141_" x="-8.5" y="508.8" fill="#8CC63F" width="16" height="16"/>
<rect id="Rectangle-path_142_" x="-8.5" y="492.8" fill="#8CC63F" width="16" height="16"/>
<rect id="Rectangle-path_143_" x="-8.5" y="476.8" fill="#8CC63F" width="16" height="16"/>
<rect id="Rectangle-path_144_" x="-8.5" y="460.8" fill="#8CC63F" width="16" height="16"/>
<rect id="Rectangle-path_145_" x="-8.5" y="444.8" fill="#8CC63F" width="16" height="16"/>
<rect id="Rectangle-path_146_" x="-8.5" y="428.8" fill="#8CC63F" width="16" height="16"/>
<rect id="Rectangle-path_147_" x="-8.5" y="412.8" fill="#8CC63F" width="16" height="16"/>
<rect id="Rectangle-path_148_" x="-8.5" y="396.8" fill="#8CC63F" width="16" height="16"/>
<rect id="Rectangle-path_149_" x="-8.5" y="380.8" fill="#8CC63F" width="16" height="16"/>
<rect id="Rectangle-path_150_" x="-8.5" y="364.8" fill="#C1272D" width="16" height="16"/>
<rect id="Rectangle-path_151_" x="-8.5" y="348.8" fill="#FF0000" width="16" height="16"/>
<rect id="Rectangle-path_152_" x="-8.5" y="332.8" fill="#4D4D4D" width="16" height="16"/>
<rect id="Rectangle-path_153_" x="-8.5" y="316.8" fill="#8CC63F" width="16" height="16"/>
<rect id="Rectangle-path_154_" x="-8.5" y="300.8" fill="#8CC63F" width="16" height="16"/>
<rect id="Rectangle-path_155_" x="-8.5" y="284.8" fill="#8CC63F" width="16" height="16"/>
<rect id="Rectangle-path_156_" x="-8.5" y="268.8" fill="#8CC63F" width="16" height="16"/>
<rect id="Rectangle-path_157_" x="-8.5" y="252.8" fill="#8CC63F" width="16" height="16"/>
<rect id="Rectangle-path_158_" x="-8.5" y="236.8" fill="#8CC63F" width="16" height="16"/>
<rect id="Rectangle-path_159_" x="-24.5" y="508.8" fill="#8CC63F" width="16" height="16"/>
<rect id="Rectangle-path_160_" x="-24.5" y="492.8" fill="#8CC63F" width="16" height="16"/>
<rect id="Rectangle-path_161_" x="-24.5" y="476.8" fill="#8CC63F" width="16" height="16"/>
<rect id="Rectangle-path_162_" x="-24.5" y="460.8" fill="#8CC63F" width="16" height="16"/>
<rect id="Rectangle-path_163_" x="-24.5" y="444.8" fill="#8CC63F" width="16" height="16"/>
<rect id="Rectangle-path_164_" x="-24.5" y="428.8" fill="#8CC63F" width="16" height="16"/>
<rect id="Rectangle-path_165_" x="-24.5" y="412.8" fill="#8CC63F" width="16" height="16"/>
<rect id="Rectangle-path_166_" x="-24.5" y="396.8" fill="#8CC63F" width="16" height="16"/>
<rect id="Rectangle-path_167_" x="-24.5" y="380.8" fill="#8CC63F" width="16" height="16"/>
<rect id="Rectangle-path_168_" x="-24.5" y="364.8" fill="#C1272D" width="16" height="16"/>
<rect id="Rectangle-path_169_" x="-24.5" y="348.8" fill="#FFFFFF" width="16" height="16"/>
<rect id="Rectangle-path_170_" x="-24.5" y="332.8" fill="#4D4D4D" width="16" height="16"/>
<rect id="Rectangle-path_171_" x="-24.5" y="316.8" fill="#8CC63F" width="16" height="16"/>
<rect id="Rectangle-path_172_" x="-24.5" y="300.8" fill="#8CC63F" width="16" height="16"/>
<rect id="Rectangle-path_173_" x="-24.5" y="284.8" fill="#8CC63F" width="16" height="16"/>
<rect id="Rectangle-path_174_" x="-24.5" y="268.8" fill="#8CC63F" width="16" height="16"/>
<rect id="Rectangle-path_175_" x="-24.5" y="252.8" fill="#8CC63F" width="16" height="16"/>
<rect id="Rectangle-path_176_" x="-24.5" y="236.8" fill="#8CC63F" width="16" height="16"/>
<rect id="Rectangle-path_177_" x="-40.5" y="508.8" fill="#8CC63F" width="16" height="16"/>
<rect id="Rectangle-path_178_" x="-40.5" y="492.8" fill="#8CC63F" width="16" height="16"/>
<rect id="Rectangle-path_179_" x="-40.5" y="476.8" fill="#8CC63F" width="16" height="16"/>
<rect id="Rectangle-path_180_" x="-40.5" y="460.8" fill="#8CC63F" width="16" height="16"/>
<rect id="Rectangle-path_181_" x="-40.5" y="444.8" fill="#8CC63F" width="16" height="16"/>
<rect id="Rectangle-path_182_" x="-40.5" y="428.8" fill="#8CC63F" width="16" height="16"/>
<rect id="Rectangle-path_183_" x="-40.5" y="412.8" fill="#8CC63F" width="16" height="16"/>
<rect id="Rectangle-path_184_" x="-40.5" y="396.8" fill="#8CC63F" width="16" height="16"/>
<rect id="Rectangle-path_185_" x="-40.5" y="380.8" fill="#8CC63F" width="16" height="16"/>
<rect id="Rectangle-path_186_" x="-40.5" y="364.8" fill="#C1272D" width="16" height="16"/>
<rect id="Rectangle-path_187_" x="-40.5" y="348.8" fill="#C1272D" width="16" height="16"/>
<rect id="Rectangle-path_188_" x="-40.5" y="332.8" fill="#4D4D4D" width="16" height="16"/>
<rect id="Rectangle-path_189_" x="-40.5" y="316.8" fill="#8CC63F" width="16" height="16"/>
<rect id="Rectangle-path_190_" x="-40.5" y="300.8" fill="#8CC63F" width="16" height="16"/>
<rect id="Rectangle-path_191_" x="-40.5" y="284.8" fill="#8CC63F" width="16" height="16"/>
<rect id="Rectangle-path_192_" x="-40.5" y="268.8" fill="#8CC63F" width="16" height="16"/>
<rect id="Rectangle-path_193_" x="-40.5" y="252.8" fill="#8CC63F" width="16" height="16"/>
<rect id="Rectangle-path_194_" x="-40.5" y="236.8" fill="#8CC63F" width="16" height="16"/>
<rect id="Rectangle-path_195_" x="-56.5" y="540.8" fill="#4C7521" width="16" height="16"/>
<rect id="Rectangle-path_196_" x="-56.5" y="524.8" fill="#4C7521" width="16" height="16"/>
<rect id="Rectangle-path_197_" x="-56.5" y="508.8" fill="#8CC63F" width="16" height="16"/>
<rect id="Rectangle-path_198_" x="-56.5" y="492.8" fill="#8CC63F" width="16" height="16"/>
<rect id="Rectangle-path_199_" x="-56.5" y="476.8" fill="#8CC63F" width="16" height="16"/>
<rect id="Rectangle-path_200_" x="-56.5" y="460.8" fill="#8CC63F" width="16" height="16"/>
<rect id="Rectangle-path_201_" x="-56.5" y="444.8" fill="#8CC63F" width="16" height="16"/>
<rect id="Rectangle-path_202_" x="-56.5" y="428.8" fill="#8CC63F" width="16" height="16"/>
<rect id="Rectangle-path_203_" x="-56.5" y="412.8" fill="#8CC63F" width="16" height="16"/>
<rect id="Rectangle-path_204_" x="-56.5" y="396.8" fill="#8CC63F" width="16" height="16"/>
<rect id="Rectangle-path_205_" x="-56.5" y="380.8" fill="#8CC63F" width="16" height="16"/>
<rect id="Rectangle-path_206_" x="-56.5" y="364.8" fill="#8CC63F" width="16" height="16"/>
<rect id="Rectangle-path_207_" x="-56.5" y="348.8" fill="#8CC63F" width="16" height="16"/>
<rect id="Rectangle-path_208_" x="-56.5" y="332.8" fill="#8CC63F" width="16" height="16"/>
<rect id="Rectangle-path_209_" x="-56.5" y="316.8" fill="#8CC63F" width="16" height="16"/>
<rect id="Rectangle-path_210_" x="-56.5" y="300.8" fill="#4D4D4D" width="16" height="16"/>
<rect id="Rectangle-path_211_" x="-56.5" y="284.8" fill="#4D4D4D" width="16" height="16"/>
<rect id="Rectangle-path_212_" x="-56.5" y="268.8" fill="#8CC63F" width="16" height="16"/>
<rect id="Rectangle-path_213_" x="-56.5" y="252.8" fill="#8CC63F" width="16" height="16"/>
<rect id="Rectangle-path_214_" x="-56.5" y="236.8" fill="#8CC63F" width="16" height="16"/>
<rect id="Rectangle-path_215_" x="-72.5" y="540.8" fill="#8CC63F" width="16" height="16"/>
<rect id="Rectangle-path_216_" x="-72.5" y="524.8" fill="#8CC63F" width="16" height="16"/>
<rect id="Rectangle-path_217_" x="-72.5" y="508.8" fill="#8CC63F" width="16" height="16"/>
<rect id="Rectangle-path_218_" x="-72.5" y="492.8" fill="#8CC63F" width="16" height="16"/>
<rect id="Rectangle-path_219_" x="-72.5" y="476.8" fill="#8CC63F" width="16" height="16"/>
<rect id="Rectangle-path_220_" x="-72.5" y="460.8" fill="#8CC63F" width="16" height="16"/>
<rect id="Rectangle-path_221_" x="-72.5" y="444.8" fill="#8CC63F" width="16" height="16"/>
<rect id="Rectangle-path_222_" x="-72.5" y="428.8" fill="#8CC63F" width="16" height="16"/>
<rect id="Rectangle-path_223_" x="-72.5" y="412.8" fill="#8CC63F" width="16" height="16"/>
<rect id="Rectangle-path_224_" x="-72.5" y="396.8" fill="#8CC63F" width="16" height="16"/>
<rect id="Rectangle-path_225_" x="-72.5" y="380.8" fill="#8CC63F" width="16" height="16"/>
<rect id="Rectangle-path_226_" x="-72.5" y="364.8" fill="#8CC63F" width="16" height="16"/>
<rect id="Rectangle-path_227_" x="-72.5" y="348.8" fill="#8CC63F" width="16" height="16"/>
<rect id="Rectangle-path_228_" x="-72.5" y="332.8" fill="#8CC63F" width="16" height="16"/>
<rect id="Rectangle-path_229_" x="-72.5" y="316.8" fill="#8CC63F" width="16" height="16"/>
<rect id="Rectangle-path_230_" x="-72.5" y="300.8" fill="#4D4D4D" width="16" height="16"/>
<rect id="Rectangle-path_231_" x="-72.5" y="284.8" fill="#4D4D4D" width="16" height="16"/>
<rect id="Rectangle-path_232_" x="-72.5" y="268.8" fill="#8CC63F" width="16" height="16"/>
<rect id="Rectangle-path_233_" x="-72.5" y="252.8" fill="#8CC63F" width="16" height="16"/>
<rect id="Rectangle-path_234_" x="-72.5" y="236.8" fill="#8CC63F" width="16" height="16"/>
<rect id="Rectangle-path_235_" x="-88.5" y="540.8" fill="#8CC63F" width="16" height="16"/>
<rect id="Rectangle-path_236_" x="-88.5" y="524.8" fill="#8CC63F" width="16" height="16"/>
<rect id="Rectangle-path_237_" x="-88.5" y="508.8" fill="#8CC63F" width="16" height="16"/>
<rect id="Rectangle-path_238_" x="-88.5" y="492.8" fill="#8CC63F" width="16" height="16"/>
<rect id="Rectangle-path_239_" x="-88.5" y="476.8" fill="#8CC63F" width="16" height="16"/>
<rect id="Rectangle-path_240_" x="-88.5" y="460.8" fill="#8CC63F" width="16" height="16"/>
<rect id="Rectangle-path_241_" x="-88.5" y="444.8" fill="#8CC63F" width="16" height="16"/>
<rect id="Rectangle-path_242_" x="-88.5" y="428.8" fill="#8CC63F" width="16" height="16"/>
<rect id="Rectangle-path_243_" x="-88.5" y="412.8" fill="#8CC63F" width="16" height="16"/>
<rect id="Rectangle-path_244_" x="-88.5" y="396.8" fill="#8CC63F" width="16" height="16"/>
<rect id="Rectangle-path_245_" x="-88.5" y="380.8" fill="#8CC63F" width="16" height="16"/>
<rect id="Rectangle-path_246_" x="-88.5" y="364.8" fill="#8CC63F" width="16" height="16"/>
<rect id="Rectangle-path_247_" x="-88.5" y="348.8" fill="#8CC63F" width="16" height="16"/>
<rect id="Rectangle-path_248_" x="-88.5" y="332.8" fill="#8CC63F" width="16" height="16"/>
<rect id="Rectangle-path_249_" x="-88.5" y="316.8" fill="#8CC63F" width="16" height="16"/>
<rect id="Rectangle-path_250_" x="-88.5" y="300.8" fill="#8CC63F" width="16" height="16"/>
<rect id="Rectangle-path_251_" x="-88.5" y="284.8" fill="#8CC63F" width="16" height="16"/>
<rect id="Rectangle-path_252_" x="-88.5" y="268.8" fill="#8CC63F" width="16" height="16"/>
<rect id="Rectangle-path_253_" x="-88.5" y="252.8" fill="#8CC63F" width="16" height="16"/>
<rect id="Rectangle-path_254_" x="-88.5" y="236.8" fill="#8CC63F" width="16" height="16"/>
<rect id="Rectangle-path_255_" x="-104.5" y="540.8" fill="#8CC63F" width="16" height="16"/>
<rect id="Rectangle-path_256_" x="-104.5" y="524.8" fill="#8CC63F" width="16" height="16"/>
<rect id="Rectangle-path_257_" x="-104.5" y="508.8" fill="#8CC63F" width="16" height="16"/>
<rect id="Rectangle-path_258_" x="-104.5" y="492.8" fill="#8CC63F" width="16" height="16"/>
<rect id="Rectangle-path_259_" x="-104.5" y="476.8" fill="#8CC63F" width="16" height="16"/>
<rect id="Rectangle-path_260_" x="-104.5" y="460.8" fill="#8CC63F" width="16" height="16"/>
<rect id="Rectangle-path_261_" x="-104.5" y="444.8" fill="#8CC63F" width="16" height="16"/>
<rect id="Rectangle-path_262_" x="-104.5" y="428.8" fill="#8CC63F" width="16" height="16"/>
<rect id="Rectangle-path_263_" x="-104.5" y="412.8" fill="#8CC63F" width="16" height="16"/>
<rect id="Rectangle-path_264_" x="-104.5" y="396.8" fill="#8CC63F" width="16" height="16"/>
<rect id="Rectangle-path_265_" x="-104.5" y="380.8" fill="#8CC63F" width="16" height="16"/>
<rect id="Rectangle-path_266_" x="-104.5" y="364.8" fill="#8CC63F" width="16" height="16"/>
<rect id="Rectangle-path_267_" x="-104.5" y="348.8" fill="#8CC63F" width="16" height="16"/>
<rect id="Rectangle-path_268_" x="-104.5" y="332.8" fill="#8CC63F" width="16" height="16"/>
<rect id="Rectangle-path_269_" x="-104.5" y="316.8" fill="#8CC63F" width="16" height="16"/>
<rect id="Rectangle-path_270_" x="-104.5" y="300.8" fill="#8CC63F" width="16" height="16"/>
<rect id="Rectangle-path_271_" x="-104.5" y="284.8" fill="#8CC63F" width="16" height="16"/>
<rect id="Rectangle-path_272_" x="-104.5" y="268.8" fill="#8CC63F" width="16" height="16"/>
<rect id="Rectangle-path_273_" x="-104.5" y="252.8" fill="#8CC63F" width="16" height="16"/>
<rect id="Rectangle-path_274_" x="-120.5" y="396.8" fill="#4C7521" width="16" height="16"/>
<rect id="Rectangle-path_275_" x="-120.5" y="380.8" fill="#4C7521" width="16" height="16"/>
<rect id="Rectangle-path_276_" x="-120.5" y="364.8" fill="#4C7521" width="16" height="16"/>
<rect id="Rectangle-path_277_" x="-120.5" y="348.8" fill="#4C7521" width="16" height="16"/>
<rect id="Rectangle-path_278_" x="-120.5" y="332.8" fill="#4C7521" width="16" height="16"/>
<rect id="Rectangle-path_279_" x="-120.5" y="316.8" fill="#4C7521" width="16" height="16"/>
<rect id="Rectangle-path_280_" x="-120.5" y="300.8" fill="#4C7521" width="16" height="16"/>
<rect id="Rectangle-path_281_" x="-136.5" y="396.8" fill="#8CC63F" width="16" height="16"/>
<rect id="Rectangle-path_282_" x="-136.5" y="380.8" fill="#8CC63F" width="16" height="16"/>
<rect id="Rectangle-path_283_" x="-136.5" y="364.8" fill="#8CC63F" width="16" height="16"/>
<rect id="Rectangle-path_284_" x="-136.5" y="348.8" fill="#8CC63F" width="16" height="16"/>
<rect id="Rectangle-path_285_" x="-136.5" y="332.8" fill="#8CC63F" width="16" height="16"/>
<rect id="Rectangle-path_286_" x="-136.5" y="316.8" fill="#8CC63F" width="16" height="16"/>
<rect id="Rectangle-path_287_" x="-136.5" y="300.8" fill="#8CC63F" width="16" height="16"/>
<rect id="Rectangle-path_288_" x="-152.5" y="396.8" fill="#8CC63F" width="16" height="16"/>
<rect id="Rectangle-path_289_" x="-152.5" y="380.8" fill="#8CC63F" width="16" height="16"/>
<rect id="Rectangle-path_290_" x="-152.5" y="364.8" fill="#8CC63F" width="16" height="16"/>
<rect id="Rectangle-path_291_" x="-152.5" y="348.8" fill="#8CC63F" width="16" height="16"/>
<rect id="Rectangle-path_292_" x="-152.5" y="332.8" fill="#8CC63F" width="16" height="16"/>
<rect id="Rectangle-path_293_" x="-152.5" y="316.8" fill="#8CC63F" width="16" height="16"/>
<rect id="Rectangle-path_294_" x="-152.5" y="300.8" fill="#8CC63F" width="16" height="16"/>
<rect id="Rectangle-path_295_" x="71.5" y="236.8" fill="#4C7521" width="16" height="16"/>
<rect id="Rectangle-path_297_" x="87.5" y="268.8" fill="#4C7521" width="16" height="16"/>
<rect id="Rectangle-path_296_" x="87.5" y="252.8" fill="#4C7521" width="16" height="16"/>
</svg>
