<?xml version="1.0" encoding="utf-8"?>
<!-- Generator: Adobe Illustrator 19.0.1, SVG Export Plug-In . SVG Version: 6.00 Build 0)  -->
<svg version="1.1" xmlns="http://www.w3.org/2000/svg" xmlns:xlink="http://www.w3.org/1999/xlink" x="0px" y="0px"
	 viewBox="0 0 400 400" style="enable-background:new 0 0 400 400;" xml:space="preserve">
<style type="text/css">
	.st0{display:none;}
	.st1{display:inline;}
	.st2{fill:#808080;}
	.st3{fill:#CCCCCC;}
	.st4{fill:none;stroke:#000000;stroke-miterlimit:10;}
	.st5{fill:#EBB678;}
</style>
<g id="Layer_1" class="st0">
	<g class="st1">
		<g id="XMLID_1_">
			<g>
				<rect x="239.5" y="240.5" class="st2" width="16" height="16"/>
				<rect x="239.5" y="224.5" class="st2" width="16" height="16"/>
				<rect x="239.5" y="208.5" class="st2" width="16" height="16"/>
				<rect x="239.5" y="192.5" class="st2" width="16" height="16"/>
				<rect x="239.5" y="176.5" class="st2" width="16" height="16"/>
				<rect x="239.5" y="160.5" class="st2" width="16" height="16"/>
				<rect x="239.5" y="144.5" class="st2" width="16" height="16"/>
				<rect x="239.5" y="128.5" class="st2" width="16" height="16"/>
				<rect x="223.5" y="240.5" class="st3" width="16" height="16"/>
				<rect x="223.5" y="224.5" class="st3" width="16" height="16"/>
				<rect x="223.5" y="208.5" class="st3" width="16" height="16"/>
				<rect x="223.5" y="192.5" class="st3" width="16" height="16"/>
				<rect x="223.5" y="176.5" class="st3" width="16" height="16"/>
				<rect x="223.5" y="160.5" class="st3" width="16" height="16"/>
				<rect x="223.5" y="144.5" class="st3" width="16" height="16"/>
				<rect x="223.5" y="128.5" class="st3" width="16" height="16"/>
				<rect x="223.5" y="112.5" class="st2" width="16" height="16"/>
				<rect x="207.5" y="240.5" class="st3" width="16" height="16"/>
				<rect x="207.5" y="224.5" class="st3" width="16" height="16"/>
				<rect x="207.5" y="208.5" class="st3" width="16" height="16"/>
				<rect x="207.5" y="192.5" class="st3" width="16" height="16"/>
				<rect x="207.5" y="176.5" class="st3" width="16" height="16"/>
				<rect x="207.5" y="160.5" class="st3" width="16" height="16"/>
				<rect x="207.5" y="144.5" class="st3" width="16" height="16"/>
				<rect x="207.5" y="128.5" class="st3" width="16" height="16"/>
				<rect x="207.5" y="112.5" class="st3" width="16" height="16"/>
				<rect x="207.5" y="96.5" class="st2" width="16" height="16"/>
				<rect x="191.5" y="240.5" class="st3" width="16" height="16"/>
				<rect x="191.5" y="224.5" class="st3" width="16" height="16"/>
				<rect x="191.5" y="208.5" class="st3" width="16" height="16"/>
				<rect x="191.5" y="192.5" class="st3" width="16" height="16"/>
				<rect x="191.5" y="176.5" class="st3" width="16" height="16"/>
				<rect x="191.5" y="160.5" class="st3" width="16" height="16"/>
				<rect x="191.5" y="144.5" class="st3" width="16" height="16"/>
				<rect x="191.5" y="128.5" class="st3" width="16" height="16"/>
				<rect x="191.5" y="112.5" class="st3" width="16" height="16"/>
				<rect x="191.5" y="96.5" class="st3" width="16" height="16"/>
				<rect x="175.5" y="240.5" class="st3" width="16" height="16"/>
				<rect x="175.5" y="224.5" class="st3" width="16" height="16"/>
				<rect x="175.5" y="208.5" class="st3" width="16" height="16"/>
				<rect x="175.5" y="192.5" class="st3" width="16" height="16"/>
				<rect x="175.5" y="176.5" class="st3" width="16" height="16"/>
				<rect x="175.5" y="160.5" class="st3" width="16" height="16"/>
				<rect x="175.5" y="144.5" class="st3" width="16" height="16"/>
				<rect x="175.5" y="128.5" class="st3" width="16" height="16"/>
				<rect x="175.5" y="112.5" class="st3" width="16" height="16"/>
				<rect x="175.5" y="96.5" class="st3" width="16" height="16"/>
				<rect x="175.5" y="48.5" class="st3" width="16" height="16"/>
				<rect x="159.5" y="240.5" class="st3" width="16" height="16"/>
				<rect x="159.5" y="224.5" class="st3" width="16" height="16"/>
				<rect x="159.5" y="208.5" class="st3" width="16" height="16"/>
				<rect x="159.5" y="192.5" class="st3" width="16" height="16"/>
				<rect x="159.5" y="176.5" class="st3" width="16" height="16"/>
				<rect x="159.5" y="160.5" class="st3" width="16" height="16"/>
				<rect x="159.5" y="144.5" class="st3" width="16" height="16"/>
				<rect x="159.5" y="128.5" class="st3" width="16" height="16"/>
				<rect x="159.5" y="112.5" class="st3" width="16" height="16"/>
				<rect x="159.5" y="96.5" class="st3" width="16" height="16"/>
				<rect x="159.5" y="80.5" class="st3" width="16" height="16"/>
				<rect x="159.5" y="64.5" class="st3" width="16" height="16"/>
				<rect x="159.5" y="48.5" class="st3" width="16" height="16"/>
				<rect x="159.5" y="32.5" class="st3" width="16" height="16"/>
				<rect x="143.5" y="240.5" class="st3" width="16" height="16"/>
				<rect x="143.5" y="224.5" class="st3" width="16" height="16"/>
				<rect x="143.5" y="208.5" class="st3" width="16" height="16"/>
				<rect x="143.5" y="192.5" class="st3" width="16" height="16"/>
				<rect x="143.5" y="176.5" class="st3" width="16" height="16"/>
				<rect x="143.5" y="160.5" class="st3" width="16" height="16"/>
				<rect x="143.5" y="144.5" class="st3" width="16" height="16"/>
				<rect x="143.5" y="128.5" class="st3" width="16" height="16"/>
				<rect x="143.5" y="112.5" class="st3" width="16" height="16"/>
				<rect x="143.5" y="96.5" class="st3" width="16" height="16"/>
				<rect x="143.5" y="48.5" class="st3" width="16" height="16"/>
				<rect x="127.5" y="240.5" class="st3" width="16" height="16"/>
				<rect x="127.5" y="224.5" class="st3" width="16" height="16"/>
				<rect x="127.5" y="208.5" class="st3" width="16" height="16"/>
				<rect x="127.5" y="192.5" class="st3" width="16" height="16"/>
				<rect x="127.5" y="176.5" class="st3" width="16" height="16"/>
				<rect x="127.5" y="160.5" class="st3" width="16" height="16"/>
				<rect x="127.5" y="144.5" class="st3" width="16" height="16"/>
				<rect x="127.5" y="128.5" class="st3" width="16" height="16"/>
				<rect x="127.5" y="112.5" class="st3" width="16" height="16"/>
				<rect x="127.5" y="96.5" class="st3" width="16" height="16"/>
				<rect x="111.5" y="240.5" class="st3" width="16" height="16"/>
				<rect x="111.5" y="224.5" class="st3" width="16" height="16"/>
				<rect x="111.5" y="208.5" class="st3" width="16" height="16"/>
				<rect x="111.5" y="192.5" class="st3" width="16" height="16"/>
				<rect x="111.5" y="176.5" class="st3" width="16" height="16"/>
				<rect x="111.5" y="160.5" class="st3" width="16" height="16"/>
				<rect x="111.5" y="144.5" class="st3" width="16" height="16"/>
				<rect x="111.5" y="128.5" class="st3" width="16" height="16"/>
				<rect x="111.5" y="112.5" class="st3" width="16" height="16"/>
				<rect x="95.5" y="240.5" class="st3" width="16" height="16"/>
				<rect x="95.5" y="224.5" class="st3" width="16" height="16"/>
				<rect x="95.5" y="208.5" class="st3" width="16" height="16"/>
				<rect x="95.5" y="192.5" class="st3" width="16" height="16"/>
				<rect x="95.5" y="176.5" class="st3" width="16" height="16"/>
				<rect x="95.5" y="160.5" class="st3" width="16" height="16"/>
				<rect x="95.5" y="144.5" class="st3" width="16" height="16"/>
				<rect x="95.5" y="128.5" class="st3" width="16" height="16"/>
			</g>
			<g>
				<polygon class="st4" points="-0.5,16.5 -0.5,0.5 15.5,0.5 31.5,0.5 47.5,0.5 63.5,0.5 79.5,0.5 95.5,0.5 111.5,0.5 127.5,0.5 
					143.5,0.5 159.5,0.5 175.5,0.5 191.5,0.5 207.5,0.5 223.5,0.5 239.5,0.5 255.5,0.5 271.5,0.5 287.5,0.5 303.5,0.5 319.5,0.5 
					335.5,0.5 351.5,0.5 367.5,0.5 383.5,0.5 399.5,0.5 399.5,16.5 399.5,32.5 399.5,48.5 399.5,64.5 399.5,80.5 399.5,96.5 
					399.5,112.5 399.5,128.5 399.5,144.5 399.5,160.5 399.5,176.5 399.5,192.5 399.5,208.5 399.5,224.5 399.5,240.5 399.5,256.5 
					399.5,272.5 399.5,288.5 399.5,304.5 399.5,320.5 399.5,336.5 399.5,352.5 399.5,368.5 399.5,384.5 399.5,400.5 383.5,400.5 
					367.5,400.5 351.5,400.5 335.5,400.5 319.5,400.5 303.5,400.5 287.5,400.5 271.5,400.5 255.5,400.5 239.5,400.5 223.5,400.5 
					207.5,400.5 191.5,400.5 175.5,400.5 159.5,400.5 143.5,400.5 127.5,400.5 111.5,400.5 95.5,400.5 79.5,400.5 63.5,400.5 
					47.5,400.5 31.5,400.5 15.5,400.5 -0.5,400.5 -0.5,384.5 -0.5,368.5 -0.5,352.5 -0.5,336.5 -0.5,320.5 -0.5,304.5 -0.5,288.5 
					-0.5,272.5 -0.5,256.5 -0.5,240.5 -0.5,224.5 -0.5,208.5 -0.5,192.5 -0.5,176.5 -0.5,160.5 -0.5,144.5 -0.5,128.5 -0.5,112.5 
					-0.5,96.5 -0.5,80.5 -0.5,64.5 -0.5,48.5 -0.5,32.5 				"/>
				<polyline class="st4" points="0,384.5 15.5,384.5 31.5,384.5 47.5,384.5 63.5,384.5 79.5,384.5 95.5,384.5 111.5,384.5 
					127.5,384.5 143.5,384.5 159.5,384.5 175.5,384.5 191.5,384.5 207.5,384.5 223.5,384.5 239.5,384.5 255.5,384.5 271.5,384.5 
					287.5,384.5 303.5,384.5 319.5,384.5 335.5,384.5 351.5,384.5 367.5,384.5 383.5,384.5 399.5,384.5 400,384.5 				"/>
				<polyline class="st4" points="0,368.5 15.5,368.5 31.5,368.5 47.5,368.5 63.5,368.5 79.5,368.5 95.5,368.5 111.5,368.5 
					127.5,368.5 143.5,368.5 159.5,368.5 175.5,368.5 191.5,368.5 207.5,368.5 223.5,368.5 239.5,368.5 255.5,368.5 271.5,368.5 
					287.5,368.5 303.5,368.5 319.5,368.5 335.5,368.5 351.5,368.5 367.5,368.5 383.5,368.5 399.5,368.5 400,368.5 				"/>
				<polyline class="st4" points="0,352.5 15.5,352.5 31.5,352.5 47.5,352.5 63.5,352.5 79.5,352.5 95.5,352.5 111.5,352.5 
					127.5,352.5 143.5,352.5 159.5,352.5 175.5,352.5 191.5,352.5 207.5,352.5 223.5,352.5 239.5,352.5 255.5,352.5 271.5,352.5 
					287.5,352.5 303.5,352.5 319.5,352.5 335.5,352.5 351.5,352.5 367.5,352.5 383.5,352.5 399.5,352.5 400,352.5 				"/>
				<polyline class="st4" points="0,336.5 15.5,336.5 31.5,336.5 47.5,336.5 63.5,336.5 79.5,336.5 95.5,336.5 111.5,336.5 
					127.5,336.5 143.5,336.5 159.5,336.5 175.5,336.5 191.5,336.5 207.5,336.5 223.5,336.5 239.5,336.5 255.5,336.5 271.5,336.5 
					287.5,336.5 303.5,336.5 319.5,336.5 335.5,336.5 351.5,336.5 367.5,336.5 383.5,336.5 399.5,336.5 400,336.5 				"/>
				<polyline class="st4" points="0,320.5 15.5,320.5 31.5,320.5 47.5,320.5 63.5,320.5 79.5,320.5 95.5,320.5 111.5,320.5 
					127.5,320.5 143.5,320.5 159.5,320.5 175.5,320.5 191.5,320.5 207.5,320.5 223.5,320.5 239.5,320.5 255.5,320.5 271.5,320.5 
					287.5,320.5 303.5,320.5 319.5,320.5 335.5,320.5 351.5,320.5 367.5,320.5 383.5,320.5 399.5,320.5 400,320.5 				"/>
				<polyline class="st4" points="0,304.5 15.5,304.5 31.5,304.5 47.5,304.5 63.5,304.5 79.5,304.5 95.5,304.5 111.5,304.5 
					127.5,304.5 143.5,304.5 159.5,304.5 175.5,304.5 191.5,304.5 207.5,304.5 223.5,304.5 239.5,304.5 255.5,304.5 271.5,304.5 
					287.5,304.5 303.5,304.5 319.5,304.5 335.5,304.5 351.5,304.5 367.5,304.5 383.5,304.5 399.5,304.5 400,304.5 				"/>
				<polyline class="st4" points="0,288.5 15.5,288.5 31.5,288.5 47.5,288.5 63.5,288.5 79.5,288.5 95.5,288.5 111.5,288.5 
					127.5,288.5 143.5,288.5 159.5,288.5 175.5,288.5 191.5,288.5 207.5,288.5 223.5,288.5 239.5,288.5 255.5,288.5 271.5,288.5 
					287.5,288.5 303.5,288.5 319.5,288.5 335.5,288.5 351.5,288.5 367.5,288.5 383.5,288.5 399.5,288.5 400,288.5 				"/>
				<polyline class="st4" points="0,272.5 15.5,272.5 31.5,272.5 47.5,272.5 63.5,272.5 79.5,272.5 95.5,272.5 111.5,272.5 
					127.5,272.5 143.5,272.5 159.5,272.5 175.5,272.5 191.5,272.5 207.5,272.5 223.5,272.5 239.5,272.5 255.5,272.5 271.5,272.5 
					287.5,272.5 303.5,272.5 319.5,272.5 335.5,272.5 351.5,272.5 367.5,272.5 383.5,272.5 399.5,272.5 400,272.5 				"/>
				<polyline class="st4" points="0,256.5 15.5,256.5 31.5,256.5 47.5,256.5 63.5,256.5 79.5,256.5 95.5,256.5 111.5,256.5 
					127.5,256.5 143.5,256.5 159.5,256.5 175.5,256.5 191.5,256.5 207.5,256.5 223.5,256.5 239.5,256.5 255.5,256.5 271.5,256.5 
					287.5,256.5 303.5,256.5 319.5,256.5 335.5,256.5 351.5,256.5 367.5,256.5 383.5,256.5 399.5,256.5 400,256.5 				"/>
				<polyline class="st4" points="0,240.5 15.5,240.5 31.5,240.5 47.5,240.5 63.5,240.5 79.5,240.5 95.5,240.5 111.5,240.5 
					127.5,240.5 143.5,240.5 159.5,240.5 175.5,240.5 191.5,240.5 207.5,240.5 223.5,240.5 239.5,240.5 255.5,240.5 271.5,240.5 
					287.5,240.5 303.5,240.5 319.5,240.5 335.5,240.5 351.5,240.5 367.5,240.5 383.5,240.5 399.5,240.5 400,240.5 				"/>
				<polyline class="st4" points="0,224.5 15.5,224.5 31.5,224.5 47.5,224.5 63.5,224.5 79.5,224.5 95.5,224.5 111.5,224.5 
					127.5,224.5 143.5,224.5 159.5,224.5 175.5,224.5 191.5,224.5 207.5,224.5 223.5,224.5 239.5,224.5 255.5,224.5 271.5,224.5 
					287.5,224.5 303.5,224.5 319.5,224.5 335.5,224.5 351.5,224.5 367.5,224.5 383.5,224.5 399.5,224.5 400,224.5 				"/>
				<polyline class="st4" points="0,208.5 15.5,208.5 31.5,208.5 47.5,208.5 63.5,208.5 79.5,208.5 95.5,208.5 111.5,208.5 
					127.5,208.5 143.5,208.5 159.5,208.5 175.5,208.5 191.5,208.5 207.5,208.5 223.5,208.5 239.5,208.5 255.5,208.5 271.5,208.5 
					287.5,208.5 303.5,208.5 319.5,208.5 335.5,208.5 351.5,208.5 367.5,208.5 383.5,208.5 399.5,208.5 400,208.5 				"/>
				<polyline class="st4" points="0,192.5 15.5,192.5 31.5,192.5 47.5,192.5 63.5,192.5 79.5,192.5 95.5,192.5 111.5,192.5 
					127.5,192.5 143.5,192.5 159.5,192.5 175.5,192.5 191.5,192.5 207.5,192.5 223.5,192.5 239.5,192.5 255.5,192.5 271.5,192.5 
					287.5,192.5 303.5,192.5 319.5,192.5 335.5,192.5 351.5,192.5 367.5,192.5 383.5,192.5 399.5,192.5 400,192.5 				"/>
				<polyline class="st4" points="0,176.5 15.5,176.5 31.5,176.5 47.5,176.5 63.5,176.5 79.5,176.5 95.5,176.5 111.5,176.5 
					127.5,176.5 143.5,176.5 159.5,176.5 175.5,176.5 191.5,176.5 207.5,176.5 223.5,176.5 239.5,176.5 255.5,176.5 271.5,176.5 
					287.5,176.5 303.5,176.5 319.5,176.5 335.5,176.5 351.5,176.5 367.5,176.5 383.5,176.5 399.5,176.5 400,176.5 				"/>
				<polyline class="st4" points="0,160.5 15.5,160.5 31.5,160.5 47.5,160.5 63.5,160.5 79.5,160.5 95.5,160.5 111.5,160.5 
					127.5,160.5 143.5,160.5 159.5,160.5 175.5,160.5 191.5,160.5 207.5,160.5 223.5,160.5 239.5,160.5 255.5,160.5 271.5,160.5 
					287.5,160.5 303.5,160.5 319.5,160.5 335.5,160.5 351.5,160.5 367.5,160.5 383.5,160.5 399.5,160.5 400,160.5 				"/>
				<polyline class="st4" points="0,144.5 15.5,144.5 31.5,144.5 47.5,144.5 63.5,144.5 79.5,144.5 95.5,144.5 111.5,144.5 
					127.5,144.5 143.5,144.5 159.5,144.5 175.5,144.5 191.5,144.5 207.5,144.5 223.5,144.5 239.5,144.5 255.5,144.5 271.5,144.5 
					287.5,144.5 303.5,144.5 319.5,144.5 335.5,144.5 351.5,144.5 367.5,144.5 383.5,144.5 399.5,144.5 400,144.5 				"/>
				<polyline class="st4" points="0,128.5 15.5,128.5 31.5,128.5 47.5,128.5 63.5,128.5 79.5,128.5 95.5,128.5 111.5,128.5 
					127.5,128.5 143.5,128.5 159.5,128.5 175.5,128.5 191.5,128.5 207.5,128.5 223.5,128.5 239.5,128.5 255.5,128.5 271.5,128.5 
					287.5,128.5 303.5,128.5 319.5,128.5 335.5,128.5 351.5,128.5 367.5,128.5 383.5,128.5 399.5,128.5 400,128.5 				"/>
				<polyline class="st4" points="0,112.5 15.5,112.5 31.5,112.5 47.5,112.5 63.5,112.5 79.5,112.5 95.5,112.5 111.5,112.5 
					127.5,112.5 143.5,112.5 159.5,112.5 175.5,112.5 191.5,112.5 207.5,112.5 223.5,112.5 239.5,112.5 255.5,112.5 271.5,112.5 
					287.5,112.5 303.5,112.5 319.5,112.5 335.5,112.5 351.5,112.5 367.5,112.5 383.5,112.5 399.5,112.5 400,112.5 				"/>
				<polyline class="st4" points="0,96.5 15.5,96.5 31.5,96.5 47.5,96.5 63.5,96.5 79.5,96.5 95.5,96.5 111.5,96.5 127.5,96.5 
					143.5,96.5 159.5,96.5 175.5,96.5 191.5,96.5 207.5,96.5 223.5,96.5 239.5,96.5 255.5,96.5 271.5,96.5 287.5,96.5 303.5,96.5 
					319.5,96.5 335.5,96.5 351.5,96.5 367.5,96.5 383.5,96.5 399.5,96.5 400,96.5 				"/>
				<polyline class="st4" points="0,80.5 15.5,80.5 31.5,80.5 47.5,80.5 63.5,80.5 79.5,80.5 95.5,80.5 111.5,80.5 127.5,80.5 
					143.5,80.5 159.5,80.5 175.5,80.5 191.5,80.5 207.5,80.5 223.5,80.5 239.5,80.5 255.5,80.5 271.5,80.5 287.5,80.5 303.5,80.5 
					319.5,80.5 335.5,80.5 351.5,80.5 367.5,80.5 383.5,80.5 399.5,80.5 400,80.5 				"/>
				<polyline class="st4" points="0,64.5 15.5,64.5 31.5,64.5 47.5,64.5 63.5,64.5 79.5,64.5 95.5,64.5 111.5,64.5 127.5,64.5 
					143.5,64.5 159.5,64.5 175.5,64.5 191.5,64.5 207.5,64.5 223.5,64.5 239.5,64.5 255.5,64.5 271.5,64.5 287.5,64.5 303.5,64.5 
					319.5,64.5 335.5,64.5 351.5,64.5 367.5,64.5 383.5,64.5 399.5,64.5 400,64.5 				"/>
				<polyline class="st4" points="0,48.5 15.5,48.5 31.5,48.5 47.5,48.5 63.5,48.5 79.5,48.5 95.5,48.5 111.5,48.5 127.5,48.5 
					143.5,48.5 159.5,48.5 175.5,48.5 191.5,48.5 207.5,48.5 223.5,48.5 239.5,48.5 255.5,48.5 271.5,48.5 287.5,48.5 303.5,48.5 
					319.5,48.5 335.5,48.5 351.5,48.5 367.5,48.5 383.5,48.5 399.5,48.5 400,48.5 				"/>
				<polyline class="st4" points="0,32.5 15.5,32.5 31.5,32.5 47.5,32.5 63.5,32.5 79.5,32.5 95.5,32.5 111.5,32.5 127.5,32.5 
					143.5,32.5 159.5,32.5 175.5,32.5 191.5,32.5 207.5,32.5 223.5,32.5 239.5,32.5 255.5,32.5 271.5,32.5 287.5,32.5 303.5,32.5 
					319.5,32.5 335.5,32.5 351.5,32.5 367.5,32.5 383.5,32.5 399.5,32.5 400,32.5 				"/>
				<polyline class="st4" points="0,16.5 15.5,16.5 31.5,16.5 47.5,16.5 63.5,16.5 79.5,16.5 95.5,16.5 111.5,16.5 127.5,16.5 
					143.5,16.5 159.5,16.5 175.5,16.5 191.5,16.5 207.5,16.5 223.5,16.5 239.5,16.5 255.5,16.5 271.5,16.5 287.5,16.5 303.5,16.5 
					319.5,16.5 335.5,16.5 351.5,16.5 367.5,16.5 383.5,16.5 399.5,16.5 400,16.5 				"/>
				<polyline class="st4" points="383.5,0 383.5,0.5 383.5,16.5 383.5,32.5 383.5,48.5 383.5,64.5 383.5,80.5 383.5,96.5 
					383.5,112.5 383.5,128.5 383.5,144.5 383.5,160.5 383.5,176.5 383.5,192.5 383.5,208.5 383.5,224.5 383.5,240.5 383.5,256.5 
					383.5,272.5 383.5,288.5 383.5,304.5 383.5,320.5 383.5,336.5 383.5,352.5 383.5,368.5 383.5,384.5 383.5,400 				"/>
				<polyline class="st4" points="367.5,0 367.5,0.5 367.5,16.5 367.5,32.5 367.5,48.5 367.5,64.5 367.5,80.5 367.5,96.5 
					367.5,112.5 367.5,128.5 367.5,144.5 367.5,160.5 367.5,176.5 367.5,192.5 367.5,208.5 367.5,224.5 367.5,240.5 367.5,256.5 
					367.5,272.5 367.5,288.5 367.5,304.5 367.5,320.5 367.5,336.5 367.5,352.5 367.5,368.5 367.5,384.5 367.5,400 				"/>
				<polyline class="st4" points="351.5,0 351.5,0.5 351.5,16.5 351.5,32.5 351.5,48.5 351.5,64.5 351.5,80.5 351.5,96.5 
					351.5,112.5 351.5,128.5 351.5,144.5 351.5,160.5 351.5,176.5 351.5,192.5 351.5,208.5 351.5,224.5 351.5,240.5 351.5,256.5 
					351.5,272.5 351.5,288.5 351.5,304.5 351.5,320.5 351.5,336.5 351.5,352.5 351.5,368.5 351.5,384.5 351.5,400 				"/>
				<polyline class="st4" points="335.5,0 335.5,0.5 335.5,16.5 335.5,32.5 335.5,48.5 335.5,64.5 335.5,80.5 335.5,96.5 
					335.5,112.5 335.5,128.5 335.5,144.5 335.5,160.5 335.5,176.5 335.5,192.5 335.5,208.5 335.5,224.5 335.5,240.5 335.5,256.5 
					335.5,272.5 335.5,288.5 335.5,304.5 335.5,320.5 335.5,336.5 335.5,352.5 335.5,368.5 335.5,384.5 335.5,400 				"/>
				<polyline class="st4" points="319.5,0 319.5,0.5 319.5,16.5 319.5,32.5 319.5,48.5 319.5,64.5 319.5,80.5 319.5,96.5 
					319.5,112.5 319.5,128.5 319.5,144.5 319.5,160.5 319.5,176.5 319.5,192.5 319.5,208.5 319.5,224.5 319.5,240.5 319.5,256.5 
					319.5,272.5 319.5,288.5 319.5,304.5 319.5,320.5 319.5,336.5 319.5,352.5 319.5,368.5 319.5,384.5 319.5,400 				"/>
				<polyline class="st4" points="303.5,0 303.5,0.5 303.5,16.5 303.5,32.5 303.5,48.5 303.5,64.5 303.5,80.5 303.5,96.5 
					303.5,112.5 303.5,128.5 303.5,144.5 303.5,160.5 303.5,176.5 303.5,192.5 303.5,208.5 303.5,224.5 303.5,240.5 303.5,256.5 
					303.5,272.5 303.5,288.5 303.5,304.5 303.5,320.5 303.5,336.5 303.5,352.5 303.5,368.5 303.5,384.5 303.5,400 				"/>
				<polyline class="st4" points="287.5,0 287.5,0.5 287.5,16.5 287.5,32.5 287.5,48.5 287.5,64.5 287.5,80.5 287.5,96.5 
					287.5,112.5 287.5,128.5 287.5,144.5 287.5,160.5 287.5,176.5 287.5,192.5 287.5,208.5 287.5,224.5 287.5,240.5 287.5,256.5 
					287.5,272.5 287.5,288.5 287.5,304.5 287.5,320.5 287.5,336.5 287.5,352.5 287.5,368.5 287.5,384.5 287.5,400 				"/>
				<polyline class="st4" points="271.5,0 271.5,0.5 271.5,16.5 271.5,32.5 271.5,48.5 271.5,64.5 271.5,80.5 271.5,96.5 
					271.5,112.5 271.5,128.5 271.5,144.5 271.5,160.5 271.5,176.5 271.5,192.5 271.5,208.5 271.5,224.5 271.5,240.5 271.5,256.5 
					271.5,272.5 271.5,288.5 271.5,304.5 271.5,320.5 271.5,336.5 271.5,352.5 271.5,368.5 271.5,384.5 271.5,400 				"/>
				<polyline class="st4" points="255.5,0 255.5,0.5 255.5,16.5 255.5,32.5 255.5,48.5 255.5,64.5 255.5,80.5 255.5,96.5 
					255.5,112.5 255.5,128.5 255.5,144.5 255.5,160.5 255.5,176.5 255.5,192.5 255.5,208.5 255.5,224.5 255.5,240.5 255.5,256.5 
					255.5,272.5 255.5,288.5 255.5,304.5 255.5,320.5 255.5,336.5 255.5,352.5 255.5,368.5 255.5,384.5 255.5,400 				"/>
				<polyline class="st4" points="239.5,0 239.5,0.5 239.5,16.5 239.5,32.5 239.5,48.5 239.5,64.5 239.5,80.5 239.5,96.5 
					239.5,112.5 239.5,128.5 239.5,144.5 239.5,160.5 239.5,176.5 239.5,192.5 239.5,208.5 239.5,224.5 239.5,240.5 239.5,256.5 
					239.5,272.5 239.5,288.5 239.5,304.5 239.5,320.5 239.5,336.5 239.5,352.5 239.5,368.5 239.5,384.5 239.5,400 				"/>
				<polyline class="st4" points="223.5,0 223.5,0.5 223.5,16.5 223.5,32.5 223.5,48.5 223.5,64.5 223.5,80.5 223.5,96.5 
					223.5,112.5 223.5,128.5 223.5,144.5 223.5,160.5 223.5,176.5 223.5,192.5 223.5,208.5 223.5,224.5 223.5,240.5 223.5,256.5 
					223.5,272.5 223.5,288.5 223.5,304.5 223.5,320.5 223.5,336.5 223.5,352.5 223.5,368.5 223.5,384.5 223.5,400 				"/>
				<polyline class="st4" points="207.5,0 207.5,0.5 207.5,16.5 207.5,32.5 207.5,48.5 207.5,64.5 207.5,80.5 207.5,96.5 
					207.5,112.5 207.5,128.5 207.5,144.5 207.5,160.5 207.5,176.5 207.5,192.5 207.5,208.5 207.5,224.5 207.5,240.5 207.5,256.5 
					207.5,272.5 207.5,288.5 207.5,304.5 207.5,320.5 207.5,336.5 207.5,352.5 207.5,368.5 207.5,384.5 207.5,400 				"/>
				<polyline class="st4" points="191.5,0 191.5,0.5 191.5,16.5 191.5,32.5 191.5,48.5 191.5,64.5 191.5,80.5 191.5,96.5 
					191.5,112.5 191.5,128.5 191.5,144.5 191.5,160.5 191.5,176.5 191.5,192.5 191.5,208.5 191.5,224.5 191.5,240.5 191.5,256.5 
					191.5,272.5 191.5,288.5 191.5,304.5 191.5,320.5 191.5,336.5 191.5,352.5 191.5,368.5 191.5,384.5 191.5,400 				"/>
				<polyline class="st4" points="175.5,0 175.5,0.5 175.5,16.5 175.5,32.5 175.5,48.5 175.5,64.5 175.5,80.5 175.5,96.5 
					175.5,112.5 175.5,128.5 175.5,144.5 175.5,160.5 175.5,176.5 175.5,192.5 175.5,208.5 175.5,224.5 175.5,240.5 175.5,256.5 
					175.5,272.5 175.5,288.5 175.5,304.5 175.5,320.5 175.5,336.5 175.5,352.5 175.5,368.5 175.5,384.5 175.5,400 				"/>
				<polyline class="st4" points="159.5,0 159.5,0.5 159.5,16.5 159.5,32.5 159.5,48.5 159.5,64.5 159.5,80.5 159.5,96.5 
					159.5,112.5 159.5,128.5 159.5,144.5 159.5,160.5 159.5,176.5 159.5,192.5 159.5,208.5 159.5,224.5 159.5,240.5 159.5,256.5 
					159.5,272.5 159.5,288.5 159.5,304.5 159.5,320.5 159.5,336.5 159.5,352.5 159.5,368.5 159.5,384.5 159.5,400 				"/>
				<polyline class="st4" points="143.5,0 143.5,0.5 143.5,16.5 143.5,32.5 143.5,48.5 143.5,64.5 143.5,80.5 143.5,96.5 
					143.5,112.5 143.5,128.5 143.5,144.5 143.5,160.5 143.5,176.5 143.5,192.5 143.5,208.5 143.5,224.5 143.5,240.5 143.5,256.5 
					143.5,272.5 143.5,288.5 143.5,304.5 143.5,320.5 143.5,336.5 143.5,352.5 143.5,368.5 143.5,384.5 143.5,400 				"/>
				<polyline class="st4" points="127.5,0 127.5,0.5 127.5,16.5 127.5,32.5 127.5,48.5 127.5,64.5 127.5,80.5 127.5,96.5 
					127.5,112.5 127.5,128.5 127.5,144.5 127.5,160.5 127.5,176.5 127.5,192.5 127.5,208.5 127.5,224.5 127.5,240.5 127.5,256.5 
					127.5,272.5 127.5,288.5 127.5,304.5 127.5,320.5 127.5,336.5 127.5,352.5 127.5,368.5 127.5,384.5 127.5,400 				"/>
				<polyline class="st4" points="111.5,0 111.5,0.5 111.5,16.5 111.5,32.5 111.5,48.5 111.5,64.5 111.5,80.5 111.5,96.5 
					111.5,112.5 111.5,128.5 111.5,144.5 111.5,160.5 111.5,176.5 111.5,192.5 111.5,208.5 111.5,224.5 111.5,240.5 111.5,256.5 
					111.5,272.5 111.5,288.5 111.5,304.5 111.5,320.5 111.5,336.5 111.5,352.5 111.5,368.5 111.5,384.5 111.5,400 				"/>
				<polyline class="st4" points="95.5,0 95.5,0.5 95.5,16.5 95.5,32.5 95.5,48.5 95.5,64.5 95.5,80.5 95.5,96.5 95.5,112.5 
					95.5,128.5 95.5,144.5 95.5,160.5 95.5,176.5 95.5,192.5 95.5,208.5 95.5,224.5 95.5,240.5 95.5,256.5 95.5,272.5 95.5,288.5 
					95.5,304.5 95.5,320.5 95.5,336.5 95.5,352.5 95.5,368.5 95.5,384.5 95.5,400 				"/>
				<polyline class="st4" points="79.5,0 79.5,0.5 79.5,16.5 79.5,32.5 79.5,48.5 79.5,64.5 79.5,80.5 79.5,96.5 79.5,112.5 
					79.5,128.5 79.5,144.5 79.5,160.5 79.5,176.5 79.5,192.5 79.5,208.5 79.5,224.5 79.5,240.5 79.5,256.5 79.5,272.5 79.5,288.5 
					79.5,304.5 79.5,320.5 79.5,336.5 79.5,352.5 79.5,368.5 79.5,384.5 79.5,400 				"/>
				<polyline class="st4" points="63.5,0 63.5,0.5 63.5,16.5 63.5,32.5 63.5,48.5 63.5,64.5 63.5,80.5 63.5,96.5 63.5,112.5 
					63.5,128.5 63.5,144.5 63.5,160.5 63.5,176.5 63.5,192.5 63.5,208.5 63.5,224.5 63.5,240.5 63.5,256.5 63.5,272.5 63.5,288.5 
					63.5,304.5 63.5,320.5 63.5,336.5 63.5,352.5 63.5,368.5 63.5,384.5 63.5,400 				"/>
				<polyline class="st4" points="47.5,0 47.5,0.5 47.5,16.5 47.5,32.5 47.5,48.5 47.5,64.5 47.5,80.5 47.5,96.5 47.5,112.5 
					47.5,128.5 47.5,144.5 47.5,160.5 47.5,176.5 47.5,192.5 47.5,208.5 47.5,224.5 47.5,240.5 47.5,256.5 47.5,272.5 47.5,288.5 
					47.5,304.5 47.5,320.5 47.5,336.5 47.5,352.5 47.5,368.5 47.5,384.5 47.5,400 				"/>
				<polyline class="st4" points="31.5,0 31.5,0.5 31.5,16.5 31.5,32.5 31.5,48.5 31.5,64.5 31.5,80.5 31.5,96.5 31.5,112.5 
					31.5,128.5 31.5,144.5 31.5,160.5 31.5,176.5 31.5,192.5 31.5,208.5 31.5,224.5 31.5,240.5 31.5,256.5 31.5,272.5 31.5,288.5 
					31.5,304.5 31.5,320.5 31.5,336.5 31.5,352.5 31.5,368.5 31.5,384.5 31.5,400 				"/>
				<polyline class="st4" points="15.5,0 15.5,0.5 15.5,16.5 15.5,32.5 15.5,48.5 15.5,64.5 15.5,80.5 15.5,96.5 15.5,112.5 
					15.5,128.5 15.5,144.5 15.5,160.5 15.5,176.5 15.5,192.5 15.5,208.5 15.5,224.5 15.5,240.5 15.5,256.5 15.5,272.5 15.5,288.5 
					15.5,304.5 15.5,320.5 15.5,336.5 15.5,352.5 15.5,368.5 15.5,384.5 15.5,400 				"/>
			</g>
		</g>
	</g>
</g>
<g id="Layer_3" class="st0">
	<g class="st1">
		<path d="M268.6,259.6h-44c-6.2,0-16.6-6-18.5-7.9c-0.4-0.1-3.8-0.9-7.9-0.9h-47.3c-4,0-10.6,1.9-14,4c-0.3,0.2-7.8,4.8-17.8,4.8
			c-21.8,0-39.6-17.8-39.6-39.6c0-14.6,12.1-26.7,12.6-27.2c2.5-2.4,4.3-7.8,3.9-11.2L80.6,62.2c-0.4-3.5,0.6-7.1,2.9-9.6
			s5.6-4.1,9.2-4.1h44c7.1,0,13.4,5.5,14.4,12.5l15,101.3c0.5,3.6,3.7,8.6,6.7,10.7l69,47.2c3.3,2.2,9.6,4.2,13.6,4.2h13.2
			c0.2,0,16.7,0.5,19.6,7c1.3,3,2.4,7.6,2.4,10.6c0,1.4-1.5,12.7-7,15.2C280.1,258.8,273.3,259.6,268.6,259.6z M150.9,242h47.3
			c1.8,0,10.8,0.2,14.1,3.5c1.4,1.1,9.2,5.3,12.3,5.3h44c4.8,0,9.9-0.9,11.4-1.6c0.4-0.7,1.8-5.7,1.8-7.2c0-1.6-0.6-4.5-1.3-6.4
			c-1.9-1-8-2.4-11.9-2.4h-13.2c-5.7,0-13.8-2.5-18.5-5.7l-69-47.2c-5-3.4-9.5-10.6-10.4-16.7l-15-101.3c-0.4-2.6-3.1-5-5.7-5h-44
			c-1.1,0-2,0.4-2.6,1.1c-0.6,0.7-0.9,1.7-0.7,2.7l15.3,119.3c0.8,6.2-2,14.2-6.4,18.6c-0.1,0.1-10,10-10,21
			c0,17,13.8,30.8,30.8,30.8c7.4,0,13.1-3.4,13.2-3.4C137,244.3,145.2,242,150.9,242z"/>
		<path d="M141,215.6h-17.6c-2.4,0-4.4-2-4.4-4.4s2-4.4,4.4-4.4H141c2.4,0,4.4,2,4.4,4.4S143.4,215.6,141,215.6z"/>
	</g>
</g>
<g id="Foot">
	<g>
		<g id="XMLID_2_">
			<g>
				<rect x="303.5" y="240.5" class="st5" width="16" height="16"/>
				<rect x="303.5" y="224.5" class="st5" width="16" height="16"/>
				<rect x="287.5" y="208.5" class="st5" width="16" height="16"/>
				<rect x="239.5" y="208.5" class="st5" width="16" height="16"/>
				<rect x="271.5" y="208.5" class="st5" width="16" height="16"/>
				<rect x="255.5" y="208.5" class="st5" width="16" height="16"/>
				<rect x="79.5" y="240.5" class="st5" width="16" height="16"/>
				<rect x="143.5" y="48.5" class="st5" width="16" height="16"/>
				<rect x="79.5" y="48.5" class="st5" width="16" height="16"/>
				<rect x="287.5" y="256.5" class="st5" width="16" height="16"/>
				<rect x="143.5" y="208.5" class="st5" width="16" height="16"/>
				<rect x="127.5" y="208.5" class="st5" width="16" height="16"/>
				<rect x="79.5" y="64.5" class="st5" width="16" height="16"/>
				<rect x="79.5" y="80.5" class="st5" width="16" height="16"/>
				<rect x="79.5" y="96.5" class="st5" width="16" height="16"/>
				<rect x="79.5" y="112.5" class="st5" width="16" height="16"/>
				<rect x="79.5" y="128.5" class="st5" width="16" height="16"/>
				<rect x="79.5" y="160.5" class="st5" width="16" height="16"/>
				<rect x="79.5" y="144.5" class="st5" width="16" height="16"/>
				<rect x="95.5" y="176.5" class="st5" width="16" height="16"/>
				<rect x="95.5" y="192.5" class="st5" width="16" height="16"/>
				<rect x="79.5" y="208.5" class="st5" width="16" height="16"/>
				<rect x="79.5" y="224.5" class="st5" width="16" height="16"/>
				<rect x="95.5" y="240.5" class="st5" width="16" height="16"/>
				<rect x="111.5" y="256.5" class="st5" width="16" height="16"/>
				<rect x="127.5" y="256.5" class="st5" width="16" height="16"/>
				<rect x="143.5" y="240.5" class="st5" width="16" height="16"/>
				<rect x="159.5" y="240.5" class="st5" width="16" height="16"/>
				<rect x="175.5" y="240.5" class="st5" width="16" height="16"/>
				<rect x="191.5" y="240.5" class="st5" width="16" height="16"/>
				<rect x="207.5" y="240.5" class="st5" width="16" height="16"/>
				<rect x="223.5" y="256.5" class="st5" width="16" height="16"/>
				<rect x="239.5" y="256.5" class="st5" width="16" height="16"/>
				<rect x="271.5" y="256.5" class="st5" width="16" height="16"/>
				<rect x="255.5" y="256.5" class="st5" width="16" height="16"/>
				<rect x="223.5" y="208.5" class="st5" width="16" height="16"/>
				<rect x="207.5" y="192.5" class="st5" width="16" height="16"/>
				<rect x="191.5" y="192.5" class="st5" width="16" height="16"/>
				<rect x="175.5" y="176.5" class="st5" width="16" height="16"/>
				<rect x="159.5" y="160.5" class="st5" width="16" height="16"/>
				<rect x="159.5" y="144.5" class="st5" width="16" height="16"/>
				<rect x="159.5" y="128.5" class="st5" width="16" height="16"/>
				<rect x="143.5" y="128.5" class="st5" width="16" height="16"/>
				<rect x="143.5" y="112.5" class="st5" width="16" height="16"/>
				<rect x="143.5" y="96.5" class="st5" width="16" height="16"/>
				<rect x="143.5" y="80.5" class="st5" width="16" height="16"/>
				<rect x="143.5" y="64.5" class="st5" width="16" height="16"/>
				<rect x="127.5" y="48.5" class="st5" width="16" height="16"/>
				<rect x="111.5" y="48.5" class="st5" width="16" height="16"/>
				<rect x="95.5" y="48.5" class="st5" width="16" height="16"/>
			</g>
			<g>
			</g>
		</g>
	</g>
</g>
</svg>
